<?xml version="1.0" encoding="UTF-8" standalone="no"?>
<!DOCTYPE svg PUBLIC "-//W3C//DTD SVG 1.1//EN" "http://www.w3.org/Graphics/SVG/1.1/DTD/svg11.dtd">
<svg width="100%" height="100%" viewBox="0 0 368 116" version="1.1" xmlns="http://www.w3.org/2000/svg" xmlns:xlink="http://www.w3.org/1999/xlink" xml:space="preserve" xmlns:serif="http://www.serif.com/" style="fill-rule:evenodd;clip-rule:evenodd;stroke-linejoin:round;stroke-miterlimit:2;">
    <g transform="matrix(1,0,0,1,-574.997,-1110.98)">
        <g transform="matrix(1.45789,0,0,0.9323,280.088,821.159)">
            <g transform="matrix(1.02069,0,0,0.925532,-6.49663,24.955)">
                <path d="M410.67,352.596C410.67,328.488 399.321,308.915 385.341,308.915L229.878,308.915C215.899,308.915 204.549,328.488 204.549,352.596L204.549,398.858C204.549,422.966 215.899,442.538 229.878,442.538L385.341,442.538C399.321,442.538 410.67,422.966 410.67,398.858L410.67,352.596Z" style="fill:none;"/>
            </g>
            <g transform="matrix(1.02069,0,0,0.925532,-6.49663,24.955)">
                <path d="M410.67,351.916C410.67,335.244 402.822,321.709 393.154,321.709L239.124,321.709C229.456,321.709 221.608,335.244 221.608,351.916L221.608,412.331C221.608,429.003 229.456,442.538 239.124,442.538L393.154,442.538C402.822,442.538 410.67,429.003 410.67,412.331L410.67,351.916Z" style="fill:rgb(55,181,82);"/>
            </g>
            <g transform="matrix(1.02069,0,0,0.925532,-6.49663,-61.879)">
                <rect x="365.182" y="499.399" width="45.489" height="36.96" style="fill:rgb(55,181,82);"/>
            </g>
            <g transform="matrix(1.02069,0,0,0.925532,-6.49663,-61.879)">
                <rect x="365.182" y="499.399" width="45.489" height="36.96" style="fill:rgb(55,181,82);"/>
            </g>
            <g transform="matrix(1.02069,0,0,0.925532,-153.041,-139.503)">
                <rect x="365.182" y="499.399" width="45.489" height="36.96" style="fill:rgb(55,181,82);"/>
            </g>
        </g>
        <g transform="matrix(1.11236,0,0,0.921706,-92.571,592.848)">
            <g transform="matrix(83.6174,0,0,91.6667,632.249,673.43)">
                <path d="M0.259,0.01C0.223,0.009 0.193,0.005 0.17,-0.002C0.146,-0.009 0.127,-0.02 0.113,-0.034C0.099,-0.047 0.089,-0.064 0.084,-0.085C0.078,-0.105 0.075,-0.128 0.075,-0.154L0.075,-0.756L0.196,-0.776L0.196,-0.177C0.196,-0.162 0.197,-0.15 0.2,-0.14C0.202,-0.13 0.206,-0.122 0.212,-0.115C0.218,-0.108 0.226,-0.102 0.236,-0.099C0.247,-0.095 0.26,-0.092 0.276,-0.09L0.259,0.01Z" style="fill:white;fill-rule:nonzero;"/>
            </g>
            <g transform="matrix(83.6174,0,0,91.6667,653.906,673.43)">
                <path d="M0.048,-0.259C0.048,-0.305 0.055,-0.345 0.069,-0.38C0.082,-0.415 0.1,-0.444 0.123,-0.467C0.146,-0.49 0.172,-0.507 0.201,-0.519C0.23,-0.53 0.26,-0.536 0.291,-0.536C0.363,-0.536 0.419,-0.514 0.46,-0.469C0.5,-0.424 0.52,-0.358 0.52,-0.269C0.52,-0.262 0.52,-0.255 0.52,-0.247C0.519,-0.238 0.519,-0.231 0.518,-0.224L0.173,-0.224C0.176,-0.182 0.191,-0.15 0.218,-0.127C0.244,-0.103 0.282,-0.092 0.332,-0.092C0.361,-0.092 0.388,-0.095 0.412,-0.1C0.437,-0.105 0.456,-0.111 0.47,-0.117L0.486,-0.018C0.479,-0.015 0.47,-0.011 0.459,-0.008C0.447,-0.004 0.434,-0.001 0.419,0.002C0.404,0.005 0.387,0.008 0.37,0.01C0.353,0.012 0.335,0.013 0.317,0.013C0.271,0.013 0.231,0.006 0.197,-0.008C0.163,-0.021 0.135,-0.04 0.113,-0.065C0.091,-0.089 0.075,-0.117 0.064,-0.151C0.053,-0.184 0.048,-0.22 0.048,-0.259ZM0.399,-0.313C0.399,-0.33 0.397,-0.345 0.392,-0.361C0.387,-0.376 0.381,-0.389 0.372,-0.4C0.363,-0.41 0.352,-0.419 0.339,-0.426C0.326,-0.432 0.31,-0.435 0.292,-0.435C0.273,-0.435 0.257,-0.432 0.243,-0.425C0.229,-0.418 0.217,-0.408 0.207,-0.397C0.198,-0.386 0.19,-0.373 0.185,-0.358C0.18,-0.343 0.176,-0.328 0.174,-0.313L0.399,-0.313Z" style="fill:white;fill-rule:nonzero;"/>
            </g>
            <g transform="matrix(83.6174,0,0,91.6667,694.795,673.43)">
                <path d="M0.506,-0.016C0.483,-0.01 0.452,-0.004 0.415,0.002C0.378,0.009 0.337,0.012 0.292,0.012C0.25,0.012 0.215,0.006 0.187,-0.006C0.158,-0.018 0.136,-0.035 0.118,-0.056C0.102,-0.077 0.089,-0.103 0.082,-0.133C0.075,-0.162 0.071,-0.195 0.071,-0.23L0.071,-0.523L0.192,-0.523L0.192,-0.249C0.192,-0.193 0.2,-0.153 0.217,-0.129C0.233,-0.105 0.261,-0.093 0.302,-0.093C0.317,-0.093 0.332,-0.094 0.348,-0.095C0.365,-0.096 0.377,-0.098 0.385,-0.1L0.385,-0.523L0.506,-0.523L0.506,-0.016Z" style="fill:white;fill-rule:nonzero;"/>
            </g>
            <g transform="matrix(83.6174,0,0,91.6667,735.767,673.43)">
                <path d="M0.29,-0.776C0.318,-0.776 0.343,-0.774 0.364,-0.769C0.385,-0.763 0.401,-0.759 0.412,-0.755L0.389,-0.655C0.378,-0.66 0.365,-0.665 0.349,-0.668C0.335,-0.671 0.318,-0.673 0.301,-0.673C0.282,-0.673 0.265,-0.67 0.252,-0.665C0.239,-0.659 0.228,-0.651 0.22,-0.641C0.212,-0.631 0.206,-0.619 0.203,-0.605C0.2,-0.59 0.198,-0.575 0.198,-0.558L0.198,-0.523L0.388,-0.523L0.388,-0.422L0.198,-0.422L0.198,-0L0.077,-0L0.077,-0.56C0.077,-0.627 0.095,-0.68 0.13,-0.719C0.165,-0.757 0.219,-0.776 0.29,-0.776Z" style="fill:white;fill-rule:nonzero;"/>
            </g>
            <g transform="matrix(83.6174,0,0,91.6667,762.357,673.43)">
                <path d="M0.29,-0.776C0.318,-0.776 0.343,-0.774 0.364,-0.769C0.385,-0.763 0.401,-0.759 0.412,-0.755L0.389,-0.655C0.378,-0.66 0.365,-0.665 0.349,-0.668C0.335,-0.671 0.318,-0.673 0.301,-0.673C0.282,-0.673 0.265,-0.67 0.252,-0.665C0.239,-0.659 0.228,-0.651 0.22,-0.641C0.212,-0.631 0.206,-0.619 0.203,-0.605C0.2,-0.59 0.198,-0.575 0.198,-0.558L0.198,-0.523L0.388,-0.523L0.388,-0.422L0.198,-0.422L0.198,-0L0.077,-0L0.077,-0.56C0.077,-0.627 0.095,-0.68 0.13,-0.719C0.165,-0.757 0.219,-0.776 0.29,-0.776Z" style="fill:white;fill-rule:nonzero;"/>
            </g>
            <g transform="matrix(83.6174,0,0,91.6667,783.516,673.43)">
                <path d="M0.048,-0.259C0.048,-0.305 0.055,-0.345 0.069,-0.38C0.082,-0.415 0.1,-0.444 0.123,-0.467C0.146,-0.49 0.172,-0.507 0.201,-0.519C0.23,-0.53 0.26,-0.536 0.291,-0.536C0.363,-0.536 0.419,-0.514 0.46,-0.469C0.5,-0.424 0.52,-0.358 0.52,-0.269C0.52,-0.262 0.52,-0.255 0.52,-0.247C0.519,-0.238 0.519,-0.231 0.518,-0.224L0.173,-0.224C0.176,-0.182 0.191,-0.15 0.218,-0.127C0.244,-0.103 0.282,-0.092 0.332,-0.092C0.361,-0.092 0.388,-0.095 0.412,-0.1C0.437,-0.105 0.456,-0.111 0.47,-0.117L0.486,-0.018C0.479,-0.015 0.47,-0.011 0.459,-0.008C0.447,-0.004 0.434,-0.001 0.419,0.002C0.404,0.005 0.387,0.008 0.37,0.01C0.353,0.012 0.335,0.013 0.317,0.013C0.271,0.013 0.231,0.006 0.197,-0.008C0.163,-0.021 0.135,-0.04 0.113,-0.065C0.091,-0.089 0.075,-0.117 0.064,-0.151C0.053,-0.184 0.048,-0.22 0.048,-0.259ZM0.399,-0.313C0.399,-0.33 0.397,-0.345 0.392,-0.361C0.387,-0.376 0.381,-0.389 0.372,-0.4C0.363,-0.41 0.352,-0.419 0.339,-0.426C0.326,-0.432 0.31,-0.435 0.292,-0.435C0.273,-0.435 0.257,-0.432 0.243,-0.425C0.229,-0.418 0.217,-0.408 0.207,-0.397C0.198,-0.386 0.19,-0.373 0.185,-0.358C0.18,-0.343 0.176,-0.328 0.174,-0.313L0.399,-0.313Z" style="fill:white;fill-rule:nonzero;"/>
            </g>
            <g transform="matrix(83.6174,0,0,91.6667,824.405,673.43)">
                <path d="M0.077,-0.506C0.1,-0.513 0.131,-0.519 0.168,-0.525C0.205,-0.531 0.247,-0.534 0.292,-0.534C0.335,-0.534 0.37,-0.528 0.399,-0.517C0.428,-0.505 0.451,-0.489 0.468,-0.468C0.485,-0.447 0.497,-0.421 0.503,-0.392C0.51,-0.362 0.514,-0.329 0.514,-0.294L0.514,-0L0.393,-0L0.393,-0.275C0.393,-0.303 0.391,-0.327 0.388,-0.346C0.384,-0.366 0.378,-0.382 0.37,-0.395C0.361,-0.407 0.35,-0.416 0.336,-0.422C0.321,-0.427 0.304,-0.43 0.283,-0.43C0.268,-0.43 0.252,-0.429 0.235,-0.427C0.218,-0.425 0.206,-0.423 0.198,-0.422L0.198,-0L0.077,-0L0.077,-0.506Z" style="fill:white;fill-rule:nonzero;"/>
            </g>
        </g>
        <g transform="matrix(0.955272,0,0,0.926643,420.342,811.4)">
            <g transform="matrix(62.5,0,0,62.5,473.217,434.009)">
                <path d="M0.213,-0.066C0.213,-0.043 0.205,-0.024 0.19,-0.009C0.174,0.006 0.155,0.013 0.133,0.013C0.11,0.013 0.091,0.006 0.076,-0.009C0.061,-0.024 0.053,-0.043 0.053,-0.066C0.053,-0.089 0.061,-0.109 0.076,-0.124C0.091,-0.139 0.11,-0.146 0.133,-0.146C0.155,-0.146 0.174,-0.139 0.19,-0.124C0.205,-0.109 0.213,-0.089 0.213,-0.066Z" style="fill:white;fill-rule:nonzero;"/>
            </g>
            <g transform="matrix(62.5,0,0,62.5,481.405,434.009)">
                <path d="M0.172,-0.263C0.172,-0.21 0.185,-0.168 0.21,-0.138C0.235,-0.107 0.27,-0.092 0.315,-0.092C0.334,-0.092 0.351,-0.093 0.365,-0.095C0.378,-0.096 0.389,-0.098 0.398,-0.1L0.398,-0.4C0.387,-0.407 0.373,-0.414 0.356,-0.421C0.338,-0.427 0.319,-0.43 0.299,-0.43C0.255,-0.43 0.223,-0.415 0.203,-0.385C0.182,-0.355 0.172,-0.314 0.172,-0.263ZM0.519,-0.016C0.495,-0.009 0.465,-0.002 0.429,0.004C0.392,0.01 0.354,0.013 0.314,0.013C0.273,0.013 0.236,0.007 0.203,-0.006C0.17,-0.019 0.142,-0.037 0.119,-0.061C0.097,-0.084 0.079,-0.113 0.067,-0.147C0.054,-0.18 0.048,-0.218 0.048,-0.26C0.048,-0.301 0.053,-0.339 0.064,-0.373C0.074,-0.406 0.089,-0.435 0.109,-0.459C0.129,-0.483 0.153,-0.501 0.182,-0.515C0.211,-0.528 0.244,-0.534 0.281,-0.534C0.306,-0.534 0.329,-0.531 0.348,-0.525C0.367,-0.519 0.384,-0.512 0.398,-0.505L0.398,-0.756L0.519,-0.776L0.519,-0.016Z" style="fill:rgb(56,59,58);fill-rule:nonzero;"/>
            </g>
            <g transform="matrix(62.5,0,0,62.5,514.405,434.009)">
                <path d="M0.048,-0.259C0.048,-0.305 0.055,-0.345 0.069,-0.38C0.082,-0.415 0.1,-0.444 0.123,-0.467C0.146,-0.49 0.172,-0.507 0.201,-0.519C0.23,-0.53 0.26,-0.536 0.291,-0.536C0.363,-0.536 0.419,-0.514 0.46,-0.469C0.5,-0.424 0.52,-0.358 0.52,-0.269C0.52,-0.262 0.52,-0.255 0.52,-0.247C0.519,-0.238 0.519,-0.231 0.518,-0.224L0.173,-0.224C0.176,-0.182 0.191,-0.15 0.218,-0.127C0.244,-0.103 0.282,-0.092 0.332,-0.092C0.361,-0.092 0.388,-0.095 0.412,-0.1C0.437,-0.105 0.456,-0.111 0.47,-0.117L0.486,-0.018C0.479,-0.015 0.47,-0.011 0.459,-0.008C0.447,-0.004 0.434,-0.001 0.419,0.002C0.404,0.005 0.387,0.008 0.37,0.01C0.353,0.012 0.335,0.013 0.317,0.013C0.271,0.013 0.231,0.006 0.197,-0.008C0.163,-0.021 0.135,-0.04 0.113,-0.065C0.091,-0.089 0.075,-0.117 0.064,-0.151C0.053,-0.184 0.048,-0.22 0.048,-0.259ZM0.399,-0.313C0.399,-0.33 0.397,-0.345 0.392,-0.361C0.387,-0.376 0.381,-0.389 0.372,-0.4C0.363,-0.41 0.352,-0.419 0.339,-0.426C0.326,-0.432 0.31,-0.435 0.292,-0.435C0.273,-0.435 0.257,-0.432 0.243,-0.425C0.229,-0.418 0.217,-0.408 0.207,-0.397C0.198,-0.386 0.19,-0.373 0.185,-0.358C0.18,-0.343 0.176,-0.328 0.174,-0.313L0.399,-0.313Z" style="fill:rgb(56,59,58);fill-rule:nonzero;"/>
            </g>
        </g>
    </g>
</svg>
