<?xml version="1.0" encoding="UTF-8"?>
<svg id="Ebene_1" data-name="Ebene 1" xmlns="http://www.w3.org/2000/svg" viewBox="0 0 500 499.99">
  <defs>
    <style>
      .cls-1 {
        fill: #41c7a8;
      }

      .cls-1, .cls-2 {
        stroke-width: 0px;
      }

      .cls-2 {
        fill: #fff;
      }
    </style>
  </defs>
  <circle id="Ellipse_6" data-name="Ellipse 6" class="cls-2" cx="249.99" cy="249.99" r="249.99"/>
  <path id="Icon_awesome-arrow-circle-right" data-name="Icon awesome-arrow-circle-right" class="cls-1" d="m500,249.99h0c0,138.07-111.93,249.99-249.99,249.99S.01,388.06.01,249.99C.01,111.93,111.94,0,250.01,0s249.99,111.93,249.99,249.99Zm-220.86-105.25c.09-.08.17-.17.26-.25,9.55-9.47,9.62-24.88.15-34.43l-11.08-10.99s-.07-.07-.1-.1c-9.44-9.38-24.69-9.34-34.07.1L100.51,232.92s-.07.07-.1.1c-9.38,9.44-9.34,24.69.1,34.07l133.77,133.6s.07.07.1.1c9.44,9.38,24.69,9.34,34.07-.1l11.08-10.99c.09-.09.18-.18.26-.27,9.27-9.64,8.98-24.98-.67-34.25l-76.11-72.95h184.07s.08,0,.12,0c13.33-.03,24.1-10.86,24.07-24.19v-16.12s0-.08,0-.12c-.03-13.33-10.86-24.1-24.19-24.07h-184.07s76.11-72.99,76.11-72.99h0Z"/>
</svg>