<?xml version="1.0" encoding="UTF-8"?>
<svg id="Ebene_1" data-name="Ebene 1" xmlns="http://www.w3.org/2000/svg" viewBox="0 0 500 499.99">
  <defs>
    <style>
      .cls-1 {
        fill: #41c7a8;
      }

      .cls-1, .cls-2 {
        stroke-width: 0px;
      }

      .cls-2 {
        fill: #fff;
      }
    </style>
  </defs>
  <circle id="Ellipse_6" data-name="Ellipse 6" class="cls-2" cx="250.01" cy="249.99" r="249.99"/>
  <path id="Icon_awesome-arrow-circle-right" data-name="Icon awesome-arrow-circle-right" class="cls-1" d="m249.99,0c138.07,0,249.99,111.93,249.99,249.99s-111.93,249.99-249.99,249.99S0,388.06,0,249.99h0C0,111.93,111.93,0,249.99,0Zm-29.13,144.76l76.11,72.99H112.9c-13.33-.03-24.16,10.74-24.19,24.07,0,.04,0,.08,0,.12v16.12c-.03,13.33,10.74,24.16,24.07,24.19.04,0,.08,0,.12,0h184.07l-76.11,72.95c-9.64,9.27-9.94,24.61-.67,34.25.09.09.17.18.26.27l11.08,10.99c9.38,9.44,24.64,9.48,34.07.1.03-.03.07-.07.1-.1l133.77-133.6c9.44-9.38,9.48-24.64.1-34.07-.03-.03-.07-.07-.1-.1l-133.77-133.84c-9.38-9.44-24.64-9.48-34.07-.1-.03.03-.07.07-.1.1l-11.08,10.99c-9.47,9.55-9.4,24.96.15,34.43.08.08.17.17.26.25h0Z"/>
</svg>