<?xml version="1.0" encoding="UTF-8"?>
<svg id="Ebene_1" data-name="Ebene 1" xmlns="http://www.w3.org/2000/svg" xmlns:xlink="http://www.w3.org/1999/xlink" viewBox="0 0 500 407.5">
  <defs>
    <style>
      .cls-1 {
        clip-path: url(#clippath);
      }

      .cls-2 {
        fill: none;
      }

      .cls-2, .cls-3 {
        stroke-width: 0px;
      }

      .cls-3 {
        fill: #41c7a8;
      }
    </style>
    <clipPath id="clippath">
      <rect class="cls-2" width="500" height="407.5"/>
    </clipPath>
  </defs>
  <g class="cls-1">
    <g id="Gruppe_74" data-name="Gruppe 74">
      <path id="Pfad_248" data-name="Pfad 248" class="cls-3" d="m342.59,296.34H38.92C14.06,296.34,0,282.18,0,257.17c0-72.75,0-145.5,0-218.22C0,14,14.08,0,39.17,0h375.53c24.96,0,38.99,14.08,39,39.1v99.81h-70.55c-21.23-1.17-39.38,15.08-40.56,36.31-.08,1.48-.08,2.96.01,4.44-.04,38.58,0,77.16,0,116.67m-115.45-51.22c-4.81,0-9.64-.21-14.44.05-4.87,0-8.84,3.9-8.95,8.77-.28,4.88,3.44,9.06,8.32,9.34.02,0,.04,0,.06,0,9.79.38,19.65.38,29.46,0,4.87-.25,8.63-4.4,8.38-9.27,0-.02,0-.04,0-.06-.1-4.87-4.08-8.76-8.95-8.77-4.61-.26-9.24-.05-13.87-.05"/>
      <path id="Pfad_249" data-name="Pfad 249" class="cls-3" d="m361.1,282.6v-102.44c-1.43-11.14,6.45-21.33,17.59-22.75,1.75-.22,3.52-.22,5.27.01h93.14c11.13-1.49,21.37,6.33,22.85,17.46.23,1.75.24,3.53.01,5.28v204.83c1.31,11.1-6.63,21.16-17.73,22.47-1.62.19-3.25.19-4.87-.02h-93.72c-11.08,1.39-21.19-6.47-22.58-17.55-.2-1.63-.21-3.27-.02-4.9,0-34.15,0-68.29,0-102.44m69.07,97.08c4.62,0,9.26.14,13.88,0,5.08.21,9.37-3.74,9.58-8.82,0-.2,0-.4,0-.61-.08-5.03-4.22-9.05-9.25-8.98-.06,0-.12,0-.18,0-9.04-.19-18.1-.19-27.19,0-5.08-.18-9.35,3.79-9.53,8.87-.18,5.08,3.79,9.35,8.87,9.53.17,0,.34,0,.51,0,4.43.2,8.87.04,13.3.05"/>
      <path id="Pfad_250" data-name="Pfad 250" class="cls-3" d="m286.79,388.97c12.96,0,24.86-.1,36.82.05,4.88-.31,9.12,3.31,9.58,8.17.66,4.42-2.12,8.62-6.44,9.75-2.05.5-4.17.68-6.28.53-24.68.03-49.36.03-74.04,0h-111.65c-1.73,0-3.48.09-5.2-.05-5.08-.03-9.19-4.17-9.18-9.25-.06-4.99,3.94-9.09,8.93-9.15.1,0,.21,0,.31,0,10.02-.22,20.05-.08,30.08-.08h6.87v-73.82h120.21v73.85Z"/>
    </g>
  </g>
</svg>