<?xml version="1.0" encoding="UTF-8"?>
<svg id="Ebene_1" data-name="Ebene 1" xmlns="http://www.w3.org/2000/svg" viewBox="0 0 500 500">
  <defs>
    <style>
      .cls-1 {
        fill: #41c7a8;
        stroke-width: 0px;
      }
    </style>
  </defs>
  <path id="Icon_awesome-smile" data-name="Icon awesome-smile" class="cls-1" d="m250,0C111.93,0,0,111.93,0,250s111.93,250,250,250,250-111.93,250-250h0C500,111.93,388.07,0,250,0Zm80.65,169.37c17.82,0,32.26,14.44,32.26,32.26s-14.44,32.26-32.26,32.26-32.26-14.44-32.26-32.26h0c-.02-17.79,14.39-32.24,32.18-32.26.03,0,.05,0,.08,0Zm-161.29,0c17.82,0,32.26,14.44,32.26,32.26s-14.44,32.26-32.26,32.26-32.26-14.44-32.26-32.26h0c-.02-17.79,14.39-32.24,32.18-32.26.02,0,.05,0,.07,0h0Zm196.37,171.55c-53.22,63.91-148.17,72.58-212.08,19.37-7.03-5.85-13.51-12.34-19.37-19.37-5.71-6.85-4.78-17.03,2.06-22.73,6.85-5.71,17.03-4.78,22.74,2.06,41.93,50.22,116.62,56.94,166.84,15.01,5.44-4.54,10.47-9.57,15.01-15.01,5.71-6.85,15.89-7.77,22.73-2.06,6.85,5.71,7.77,15.89,2.07,22.73Z"/>
</svg>