<?xml version="1.0" encoding="UTF-8"?>
<svg id="Ebene_1" data-name="Ebene 1" xmlns="http://www.w3.org/2000/svg" viewBox="0 0 409.21 500">
  <defs>
    <style>
      .cls-1 {
        fill: #41c7a8;
        stroke-width: 0px;
      }
    </style>
  </defs>
  <g id="Gruppe_79" data-name="Gruppe 79">
    <path id="Pfad_251" data-name="Pfad 251" class="cls-1" d="m55.09,155.7c-4.78-4.59-9.43-8.76-13.79-13.24-5.8-4.81-6.6-13.4-1.8-19.2,4.81-5.8,13.4-6.6,19.2-1.8.65.54,1.26,1.14,1.8,1.8,4.69,4.63,9.04,9.55,13.76,14.65,29.47-24.21,65.05-39.81,102.83-45.07v-24.15h54.63v24.12c37.83,5.22,73.47,20.84,102.94,45.13,4.5-4.78,8.76-9.55,13.24-14.1,4.53-6.1,13.14-7.37,19.24-2.84,6.1,4.53,7.37,13.14,2.84,19.24-.82,1.1-1.8,2.08-2.91,2.89-3.98,4.06-7.96,8.07-11.94,12.12-.22.3-.4.63-.53.99,76.86,82.84,72.01,212.3-10.83,289.15-82.84,76.86-212.3,72.01-289.15-10.83-73.01-78.69-72.79-200.42.5-278.85m-18.72,139.82c-.01,92.85,75.25,168.14,168.1,168.15,92.85.01,168.14-75.25,168.15-168.1.01-92.73-75.06-167.96-167.79-168.15-92.93-.09-168.35,75.17-168.46,168.1"/>
    <path id="Pfad_252" data-name="Pfad 252" class="cls-1" d="m204.41.14c14.56,0,29.12-.05,43.68,0,7.59-.93,14.5,4.46,15.43,12.05.14,1.11.14,2.24,0,3.36.07,7.96.07,15.91,0,23.84.87,7.54-4.54,14.36-12.09,15.23-.97.11-1.95.12-2.93.02-29.31.07-58.62.07-87.93,0-7.57.78-14.34-4.72-15.13-12.29-.1-.94-.1-1.89,0-2.84-.08-7.96-.06-15.92,0-23.84-.94-7.66,4.51-14.63,12.17-15.57,1.22-.15,2.45-.14,3.67.04h43.12"/>
    <path id="Pfad_257" data-name="Pfad 257" class="cls-1" d="m204.48,141.34v154.15h153.9c.01,85.15-69,154.19-154.15,154.2-85.15.01-154.19-69-154.2-154.15-.01-85.15,69-154.19,154.15-154.2.1,0,.2,0,.3,0"/>
  </g>
</svg>