<?xml version="1.0" encoding="UTF-8"?>
<svg id="Ebene_1" data-name="Ebene 1" xmlns="http://www.w3.org/2000/svg" viewBox="0 0 500 499.92">
  <defs>
    <style>
      .cls-1 {
        fill: #41c7a8;
        stroke-width: 0px;
      }
    </style>
  </defs>
  <path id="Icon_awesome-cubes" data-name="Icon awesome-cubes" class="cls-1" d="m477.12,243.51l-94.28-40.39v-121.06c.5-15.94-8.44-30.69-22.82-37.61L262.3,2.59c-7.87-3.46-16.83-3.46-24.7,0l-97.65,41.85c-14.37,6.92-23.32,21.66-22.82,37.61v121.06l-94.36,40.39C8.44,250.46-.47,265.19.02,281.11v122.85c-.34,14.57,7.05,28.23,19.44,35.92l97.65,55.77c9.71,5.69,21.74,5.69,31.45,0l101.44-57.99,101.46,57.99c9.71,5.69,21.74,5.69,31.45,0l97.65-55.77c12.39-7.69,19.78-21.36,19.44-35.93v-122.83c.5-15.94-8.44-30.69-22.82-37.61h-.04Zm-127.53-39.5l-82.99,35.59v-76.06l83-41.29v81.76Zm-199.19-123.52l99.59-42.63,99.6,42.63v.67l-99.6,46.19-99.59-46.19v-.67Zm82.01,324.82l-83,47.43v-88.27l83-43.29v84.14Zm0-124.98l-99.59,46.2-99.6-46.2v-.67l99.6-42.6,99.59,42.6v.67Zm234.36,124.98l-83,47.43v-88.27l83-43.29v84.14Zm0-124.98l-99.6,46.2-99.6-46.2v-.67l99.6-42.6,99.6,42.63v.64Z"/>
</svg>