<?xml version="1.0" encoding="UTF-8"?>
<svg id="Ebene_1" data-name="Ebene 1" xmlns="http://www.w3.org/2000/svg" xmlns:xlink="http://www.w3.org/1999/xlink" viewBox="0 0 446.74 500">
  <defs>
    <style>
      .cls-1 {
        clip-path: url(#clippath);
      }

      .cls-2 {
        fill: none;
      }

      .cls-2, .cls-3 {
        stroke-width: 0px;
      }

      .cls-3 {
        fill: #41c7a8;
      }
    </style>
    <clipPath id="clippath">
      <rect class="cls-2" width="446.74" height="500"/>
    </clipPath>
  </defs>
  <g class="cls-1">
    <g id="Gruppe_72" data-name="Gruppe 72">
      <path id="Pfad_247" data-name="Pfad 247" class="cls-3" d="m227.32,500h-7.82c-7.04-2.44-14.13-4.7-21.12-7.35-46.82-17.6-88.94-45.79-123.07-82.35-23.82-24.22-42.05-53.35-53.41-85.36C10.55,289.74,3.75,253.25,1.65,216.33-1.4,168.51-.08,120.51,5.58,72.92c-.06-8.91,6.52-16.48,15.35-17.66C85.79,37.23,150.65,19.19,215.51,1.14c5.16-1.5,10.63-1.5,15.79,0,64.84,18.12,129.7,36.16,194.58,54.12,8.99,1.27,15.61,9.07,15.41,18.15,4.32,37.71,6.06,75.67,5.21,113.61-.52,36.32-4.87,72.48-12.97,107.89-5.36,25.87-15.17,50.61-29,73.11-35.04,53.72-85.54,95.57-144.83,120.03-10.56,4.5-21.58,7.99-32.38,11.95m-22.78-244.13c-1.3-2.01-2.73-3.95-4.27-5.79-17.01-17.08-34.06-34.13-51.14-51.14-5.71-7.05-16.05-8.13-23.1-2.42-.84.68-1.6,1.44-2.29,2.26-5.15,4.99-10.24,10.04-15.18,15.22-6.68,5.85-7.36,16-1.52,22.69.5.57,1.03,1.1,1.6,1.59,27.8,27.94,55.67,55.81,83.6,83.6,5.8,6.68,15.91,7.39,22.6,1.6.61-.53,1.17-1.1,1.69-1.71,45.32-45.22,90.58-90.48,135.8-135.8,6.78-5.9,7.48-16.18,1.58-22.96-.52-.6-1.09-1.16-1.7-1.68-4.3-4.45-8.74-8.8-13.11-13.15-10.25-10.23-18.57-10.22-28.87.07-33.99,33.97-67.97,67.95-101.94,101.94-1.42,1.79-2.69,3.68-3.79,5.68"/>
    </g>
  </g>
</svg>