<?xml version="1.0" encoding="UTF-8"?>
<svg xmlns="http://www.w3.org/2000/svg" xmlns:xlink="http://www.w3.org/1999/xlink" viewBox="0 0 419.32 442.98">
  <defs>
    <style>
      .cls-1 {
        fill: #757575;
      }

      .cls-1, .cls-2, .cls-3, .cls-4, .cls-5, .cls-6, .cls-7, .cls-8, .cls-9, .cls-10, .cls-11, .cls-12 {
        stroke-linecap: round;
        stroke-linejoin: round;
      }

      .cls-1, .cls-2, .cls-3, .cls-4, .cls-5, .cls-7, .cls-8, .cls-9, .cls-10, .cls-11, .cls-12 {
        stroke: #263238;
      }

      .cls-2, .cls-13, .cls-14 {
        fill: #41c7a8;
      }

      .cls-3, .cls-15, .cls-16 {
        fill: #263238;
      }

      .cls-4, .cls-17, .cls-18 {
        fill: #fff;
      }

      .cls-5 {
        fill: #999;
      }

      .cls-6 {
        stroke: #fff;
      }

      .cls-6, .cls-7, .cls-8, .cls-9, .cls-10, .cls-11, .cls-12 {
        fill: none;
      }

      .cls-19 {
        opacity: .3;
      }

      .cls-19, .cls-17, .cls-16, .cls-14, .cls-20 {
        stroke-width: 0px;
      }

      .cls-21 {
        clip-path: url(#clippath);
      }

      .cls-17 {
        opacity: .7;
      }

      .cls-8 {
        stroke-dasharray: 0 0 1 3;
      }

      .cls-22 {
        clip-path: url(#clippath-1);
      }

      .cls-23 {
        clip-path: url(#clippath-4);
      }

      .cls-24 {
        clip-path: url(#clippath-3);
      }

      .cls-25 {
        clip-path: url(#clippath-2);
      }

      .cls-9 {
        stroke-dasharray: 0 0 1 2.99;
      }

      .cls-10 {
        stroke-dasharray: 0 0 1 3;
      }

      .cls-11 {
        stroke-width: 2px;
      }

      .cls-12 {
        stroke-dasharray: 0 0 .98 2.93;
      }

      .cls-20 {
        opacity: .2;
      }
    </style>
    <clipPath id="clippath">
      <path class="cls-2" d="m359.92,393.25c-6.77,11.03-41.12,16.21-59.87,15.72-18.74-.48-72.7-26.03-76.36-31.44-3.39-5.01-11.72-21.57,1.12-31.58,1.02-.79,2.16-1.54,3.46-2.24,8.79-4.76,67.25,10.25,67.25,10.25,0,0,3.62-2.29,4.95-2.12,4.08.52,6.97,3.82,15.24,6.17,5.77,1.65,21.52-4.69,31.58.76,1.1.59,2.12,1.32,3.06,2.22,9.4,8.98,16.33,21.23,9.57,32.26Z"/>
    </clipPath>
    <clipPath id="clippath-1">
      <path class="cls-3" d="m290.67,402.8l17.52,13.75s13.58-1.08,25.12-3.75h0c8.3-1.93,15.55-4.69,15.95-8.46.61-5.74-5.53-7.31-12.82-7.09-1.36.03-2.76.14-4.17.28-11.67,1.25-26.51-5.2-26.51-5.2l-15.08,10.47Z"/>
    </clipPath>
    <clipPath id="clippath-2">
      <path class="cls-4" d="m307,408.22c-3.16.52.31,6.97,4.59,5.01s-1.43-5.53-4.59-5.01Z"/>
    </clipPath>
    <clipPath id="clippath-3">
      <path class="cls-4" d="m333.31,412.79c8.3-1.92,15.55-4.68,15.95-8.45.61-5.74-5.53-7.31-12.82-7.09-.32.31-7.39,7.14-3.12,15.54Z"/>
    </clipPath>
    <clipPath id="clippath-4">
      <path class="cls-3" d="m279.9,403.33l-18.86,11.83s-13.39-2.5-24.58-6.37h0c-8.05-2.79-14.97-6.29-14.97-10.09,0-5.77,6.27-6.69,13.5-5.7,1.35.17,2.73.42,4.12.72,11.48,2.47,26.91-2.38,26.91-2.38l13.9,12Z"/>
    </clipPath>
  </defs>
  <g id="Background_Simple" data-name="Background Simple">
    <path class="cls-17" d="m26.44,137.97s-27.88,71.99,11.3,144.5c39.17,72.52,119.88,110.8,184.47,143.55,64.59,32.75,131.66,16.8,163.53-36.84,31.87-53.64-11.85-91.93-11.9-168.42-.05-76.49,11.45-96.74-29.96-161.36C302.47-5.22,200.82-19.52,123.98,28.41,47.14,76.34,26.44,137.97,26.44,137.97Z"/>
    <g>
      <path class="cls-14" d="m27.48,402.55h211.21c.86-1.36,1.72-2.72,2.59-4.05,22.72-34.59,59.1-59.24,98.83-70.81,17.8-5.18,37.08-8.27,51.38-20.06,14.72-12.14,21.48-31.5,24.4-50.34,3.54-22.82,1.63-48.4-13.86-65.54-18.19-20.12-48.67-22.37-72.37-35.56-40.79-22.7-56.6-74.39-93.71-102.71-23.43-17.88-55.09-24.81-83.4-20.89-40.19,5.56-78.01,32.5-89.36,71.96-3.15,10.95-4.41,22.83-3.44,35.41,1.82,23.55,6.88,47.4,2.1,70.53-5.27,25.49-21.85,47.02-31.76,71.09-12.34,29.97-14.04,63.6-8.76,95.58,1.41,8.55,3.38,17.13,6.15,25.38Z"/>
      <path class="cls-17" d="m27.48,402.55h211.21c.86-1.36,1.72-2.72,2.59-4.05,22.72-34.59,59.1-59.24,98.83-70.81,17.8-5.18,37.08-8.27,51.38-20.06,14.72-12.14,21.48-31.5,24.4-50.34,3.54-22.82,1.63-48.4-13.86-65.54-18.19-20.12-48.67-22.37-72.37-35.56-40.79-22.7-56.6-74.39-93.71-102.71-23.43-17.88-55.09-24.81-83.4-20.89-40.19,5.56-78.01,32.5-89.36,71.96-3.15,10.95-4.41,22.83-3.44,35.41,1.82,23.55,6.88,47.4,2.1,70.53-5.27,25.49-21.85,47.02-31.76,71.09-12.34,29.97-14.04,63.6-8.76,95.58,1.41,8.55,3.38,17.13,6.15,25.38Z"/>
    </g>
  </g>
  <g id="Floor">
    <line class="cls-7" x1=".5" y1="402.55" x2="418.82" y2="402.55"/>
  </g>
  <g id="Graphics">
    <g>
      <path class="cls-7" d="m237.47,84.27v-15.7l-11.76-1.01c-.7-2.48-1.67-4.84-2.91-7.05l7.59-9.02-11.1-11.1-9.02,7.59c-2.2-1.24-4.57-2.21-7.05-2.91l-1.01-11.76h-15.7l-1.01,11.76c-2.48.7-4.84,1.67-7.05,2.91l-9.02-7.59-11.1,11.1,7.59,9.02c-1.23,2.2-2.21,4.57-2.91,7.05l-11.76,1.01v15.7l11.76,1.01c.7,2.48,1.67,4.84,2.91,7.05l-7.59,9.02,11.1,11.1,9.02-7.59c2.2,1.23,4.57,2.21,7.05,2.91l1.01,11.76h15.7l1.01-11.76c2.48-.7,4.84-1.67,7.05-2.91l9.02,7.59,11.1-11.1-7.59-9.02c1.23-2.2,2.21-4.57,2.91-7.05l11.76-1.01Zm-43.11,10.39c-10.07,0-18.24-8.17-18.24-18.24s8.17-18.24,18.24-18.24,18.24,8.17,18.24,18.24-8.17,18.24-18.24,18.24Z"/>
      <path class="cls-7" d="m406.2,237.73v-7.53l-5.64-.49c-.34-1.19-.8-2.32-1.39-3.38l3.64-4.33-5.32-5.32-4.33,3.64c-1.06-.59-2.19-1.06-3.38-1.39l-.49-5.64h-7.53l-.49,5.64c-1.19.34-2.32.8-3.38,1.39l-4.33-3.64-5.32,5.32,3.64,4.33c-.59,1.06-1.06,2.19-1.39,3.38l-5.64.49v7.53l5.64.49c.34,1.19.8,2.32,1.39,3.38l-3.64,4.33,5.32,5.32,4.33-3.64c1.06.59,2.19,1.06,3.38,1.39l.49,5.64h7.53l.49-5.64c1.19-.34,2.32-.8,3.38-1.39l4.33,3.64,5.32-5.32-3.64-4.33c.59-1.06,1.06-2.19,1.39-3.38l5.64-.49Zm-20.67,4.98c-4.83,0-8.75-3.92-8.75-8.75s3.92-8.75,8.75-8.75,8.75,3.92,8.75,8.75-3.92,8.75-8.75,8.75Z"/>
      <g>
        <path class="cls-7" d="m400.54,100.68c.34-1.49.53-3.03.53-4.62,0-11.34-9.19-20.53-20.53-20.53-1.85,0-3.65.25-5.36.71-3.38-5.98-9.8-10.03-17.16-10.03-10.46,0-19.02,8.16-19.66,18.46-.97-.18-1.96-.29-2.98-.29-8.28,0-15.09,6.25-15.99,14.28-4.86.11-8.77,4.07-8.77,8.96s4.01,8.97,8.97,8.97h75.29c4.95,0,8.97-4.01,8.97-8.97,0-2.8-1.29-5.3-3.3-6.95Z"/>
        <g>
          <line class="cls-7" x1="359.14" y1="109.72" x2="359.14" y2="130.47"/>
          <line class="cls-7" x1="359.14" y1="97.27" x2="359.14" y2="105.57"/>
          <line class="cls-7" x1="359.14" y1="89.52" x2="359.14" y2="93.95"/>
          <polyline class="cls-7" points="355.22 128.04 359.14 132.89 363.06 128.04"/>
        </g>
      </g>
      <g>
        <path class="cls-7" d="m171.14,344.04c.34-1.49.53-3.03.53-4.62,0-11.34-9.19-20.53-20.53-20.53-1.85,0-3.65.25-5.36.71-3.38-5.98-9.8-10.03-17.16-10.03-10.46,0-19.02,8.16-19.66,18.46-.97-.18-1.96-.29-2.98-.29-8.28,0-15.09,6.25-15.99,14.28-4.86.11-8.77,4.07-8.77,8.96s4.01,8.97,8.97,8.97h75.29c4.95,0,8.97-4.01,8.97-8.97,0-2.8-1.29-5.3-3.3-6.95Z"/>
        <g>
          <line class="cls-7" x1="129.75" y1="356.04" x2="129.75" y2="335.29"/>
          <line class="cls-7" x1="129.75" y1="368.49" x2="129.75" y2="360.19"/>
          <line class="cls-7" x1="129.75" y1="376.24" x2="129.75" y2="371.8"/>
          <polyline class="cls-7" points="133.66 337.72 129.75 332.87 125.83 337.72"/>
        </g>
      </g>
    </g>
  </g>
  <g id="Interface">
    <g>
      <path class="cls-2" d="m11.99,80.78h251.45c2.34,0,4.24,1.9,4.24,4.24v11.85H7.75v-11.85c0-2.34,1.9-4.24,4.24-4.24Z"/>
      <rect class="cls-4" x="19.12" y="99.85" width="262.71" height="184.87"/>
      <path class="cls-4" d="m285.86,88.83c0,2.22-1.8,4.02-4.02,4.02s-4.02-1.8-4.02-4.02,1.8-4.02,4.02-4.02,4.02,1.8,4.02,4.02Z"/>
      <path class="cls-4" d="m271.7,88.83c0,2.22-1.8,4.02-4.02,4.02s-4.02-1.8-4.02-4.02,1.8-4.02,4.02-4.02,4.02,1.8,4.02,4.02Z"/>
      <path class="cls-4" d="m257.54,88.83c0,2.22-1.8,4.02-4.02,4.02s-4.02-1.8-4.02-4.02,1.8-4.02,4.02-4.02,4.02,1.8,4.02,4.02Z"/>
      <g>
        <line class="cls-11" x1="273.88" y1="107.78" x2="263.47" y2="107.78"/>
        <line class="cls-11" x1="273.88" y1="112" x2="263.47" y2="112"/>
        <line class="cls-11" x1="273.88" y1="116.22" x2="263.47" y2="116.22"/>
      </g>
      <g>
        <line class="cls-11" x1="37.32" y1="216.86" x2="116.05" y2="216.86"/>
        <line class="cls-11" x1="37.32" y1="223.07" x2="116.05" y2="223.07"/>
        <line class="cls-11" x1="37.32" y1="229.4" x2="99.39" y2="229.4"/>
      </g>
      <g>
        <g>
          <line class="cls-7" x1="204.27" y1="101.94" x2="204.27" y2="102.44"/>
          <line class="cls-8" x1="204.27" y1="105.43" x2="204.27" y2="279.66"/>
          <line class="cls-7" x1="204.27" y1="281.16" x2="204.27" y2="281.66"/>
        </g>
        <g>
          <line class="cls-7" x1="22.29" y1="243.26" x2="22.79" y2="243.26"/>
          <line class="cls-9" x1="25.78" y1="243.26" x2="275.82" y2="243.26"/>
          <line class="cls-7" x1="277.31" y1="243.26" x2="277.81" y2="243.26"/>
        </g>
        <rect class="cls-4" x="202.54" y="241.54" width="3.45" height="3.45"/>
      </g>
      <g>
        <path class="cls-2" d="m125.48,28.9h-49.3c-1.2,0-2.18.97-2.18,2.18v22.95c0,1.2.97,2.18,2.18,2.18h22.13l2.53,9.04,2.53-9.04h22.13c1.2,0,2.18-.97,2.18-2.18v-22.95c0-1.2-.97-2.18-2.18-2.18Z"/>
        <g>
          <line class="cls-11" x1="82.2" y1="35.47" x2="119.45" y2="35.47"/>
          <line class="cls-11" x1="82.2" y1="40.19" x2="119.45" y2="40.19"/>
          <line class="cls-11" x1="82.2" y1="44.91" x2="119.45" y2="44.91"/>
          <line class="cls-11" x1="82.2" y1="49.63" x2="110.28" y2="49.63"/>
        </g>
      </g>
      <g>
        <rect class="cls-3" x="51.71" y="272.48" width="53.66" height="33.63"/>
        <rect class="cls-2" x="51.71" y="272.48" width="53.66" height="5.11"/>
        <g>
          <line class="cls-6" x1="57.19" y1="281.9" x2="70.9" y2="281.9"/>
          <line class="cls-6" x1="64.04" y1="285.73" x2="87.78" y2="285.73"/>
          <line class="cls-6" x1="61.01" y1="289.29" x2="68" y2="289.29"/>
          <line class="cls-6" x1="64.04" y1="293.51" x2="80.03" y2="293.51"/>
          <line class="cls-6" x1="57.19" y1="297.33" x2="70.9" y2="297.33"/>
        </g>
      </g>
      <g>
        <line class="cls-7" x1="190.5" y1="210.12" x2="144.43" y2="210.12"/>
        <path class="cls-7" d="m191.39,231.42s0-21.4-23.92-21.4-23.92,21.4-23.92,21.4"/>
        <circle class="cls-2" cx="191.39" cy="231.42" r="2.02"/>
        <path class="cls-2" d="m141.53,231.42c0-1.11.9-2.02,2.02-2.02s2.02.9,2.02,2.02-.9,2.02-2.02,2.02-2.02-.9-2.02-2.02Z"/>
        <g>
          <rect class="cls-2" x="189.61" y="208.25" width="3.54" height="3.54" transform="translate(382.77 420.03) rotate(180)"/>
          <rect class="cls-2" x="165.7" y="208.25" width="3.54" height="3.54" transform="translate(334.93 420.03) rotate(180)"/>
          <rect class="cls-2" x="141.78" y="208.25" width="3.54" height="3.54" transform="translate(287.1 420.03) rotate(180)"/>
        </g>
      </g>
      <path class="cls-2" d="m65.94,145.75v-7.07l-5.3-.46c-.32-1.12-.75-2.18-1.31-3.17l3.42-4.06-5-5-4.06,3.42c-.99-.56-2.06-.99-3.17-1.31l-.46-5.3h-7.07l-.46,5.3c-1.12.32-2.18.75-3.17,1.31l-4.06-3.42-5,5,3.42,4.06c-.56.99-.99,2.06-1.31,3.17l-5.3.46v7.07l5.3.46c.32,1.12.75,2.18,1.31,3.17l-3.42,4.06,5,5,4.06-3.42c.99.56,2.06.99,3.17,1.31l.46,5.3h7.07l.46-5.3c1.12-.32,2.18-.75,3.17-1.31l4.06,3.42,5-5-3.42-4.06c.56-.99.99-2.06,1.31-3.17l5.3-.46Zm-19.42,4.68c-4.54,0-8.22-3.68-8.22-8.22s3.68-8.22,8.22-8.22,8.22,3.68,8.22,8.22-3.68,8.22-8.22,8.22Z"/>
      <path class="cls-2" d="m89.98,161.61v-4.84l-3.63-.31c-.22-.77-.52-1.49-.9-2.17l2.34-2.78-3.42-3.42-2.78,2.34c-.68-.38-1.41-.68-2.17-.9l-.31-3.63h-4.84l-.31,3.63c-.76.22-1.49.52-2.17.9l-2.78-2.34-3.42,3.42,2.34,2.78c-.38.68-.68,1.41-.9,2.17l-3.63.31v4.84l3.63.31c.22.77.52,1.49.9,2.17l-2.34,2.78,3.42,3.42,2.78-2.34c.68.38,1.41.68,2.17.9l.31,3.63h4.84l.31-3.63c.77-.22,1.49-.52,2.17-.9l2.78,2.34,3.42-3.42-2.34-2.78c.38-.68.68-1.41.9-2.17l3.63-.31Zm-13.29,3.2c-3.11,0-5.63-2.52-5.63-5.63s2.52-5.63,5.63-5.63,5.63,2.52,5.63,5.63-2.52,5.63-5.63,5.63Z"/>
      <g>
        <line class="cls-11" x1="214.15" y1="255.02" x2="252.88" y2="255.02"/>
        <line class="cls-11" x1="214.15" y1="261.23" x2="252.88" y2="261.23"/>
        <line class="cls-11" x1="214.15" y1="267.56" x2="236.23" y2="267.56"/>
      </g>
      <path class="cls-2" d="m163.12,270.13h-20.39c-2.77,0-5.02-2.25-5.02-5.02h0c0-2.77,2.25-5.02,5.02-5.02h20.39c2.77,0,5.02,2.25,5.02,5.02h0c0,2.77-2.25,5.02-5.02,5.02Z"/>
      <path class="cls-2" d="m201.11,270.13h-20.39c-2.77,0-5.02-2.25-5.02-5.02h0c0-2.77,2.25-5.02,5.02-5.02h20.39c2.77,0,5.02,2.25,5.02,5.02h0c0,2.77-2.25,5.02-5.02,5.02Z"/>
      <g>
        <rect class="cls-4" x="216.98" y="162.85" width="43.24" height="43.24"/>
        <line class="cls-4" x1="216.98" y1="162.85" x2="260.22" y2="206.09"/>
        <line class="cls-4" x1="260.22" y1="162.85" x2="216.98" y2="206.09"/>
      </g>
      <g>
        <rect class="cls-3" x="253.52" y="137.17" width="53.66" height="33.63"/>
        <rect class="cls-2" x="253.52" y="137.17" width="53.66" height="5.11"/>
        <g>
          <line class="cls-6" x1="258.99" y1="146.59" x2="272.71" y2="146.59"/>
          <line class="cls-6" x1="265.85" y1="150.41" x2="289.59" y2="150.41"/>
          <line class="cls-6" x1="262.82" y1="153.98" x2="269.8" y2="153.98"/>
          <line class="cls-6" x1="265.85" y1="158.19" x2="281.84" y2="158.19"/>
          <line class="cls-6" x1="258.99" y1="162.02" x2="272.71" y2="162.02"/>
        </g>
      </g>
      <g>
        <polygon class="cls-4" points="233.94 113.77 233.94 123.86 229.49 128.31 219.4 128.31 219.4 113.77 233.94 113.77"/>
        <polygon class="cls-4" points="233.94 123.86 229.49 128.31 229.49 123.86 233.94 123.86"/>
      </g>
      <g>
        <polygon class="cls-4" points="79.31 191.8 79.31 201.89 74.86 206.34 64.77 206.34 64.77 191.8 79.31 191.8"/>
        <polygon class="cls-4" points="79.31 201.89 74.86 206.34 74.86 201.89 79.31 201.89"/>
      </g>
      <g>
        <polygon class="cls-4" points="24.36 253.96 24.36 264.05 19.91 268.5 9.82 268.5 9.82 253.96 24.36 253.96"/>
        <polygon class="cls-4" points="24.36 264.05 19.91 268.5 19.91 264.05 24.36 264.05"/>
      </g>
    </g>
  </g>
  <g id="Character">
    <g>
      <path class="cls-4" d="m206.38,192.46c-5.29.45-12.01-5.87-12.01-5.87,0,0-1.03.99-1.89-.24-.86-1.24-4.59-4.1-4.8-6.58-.21-2.48,4.19-6.5,4.19-6.5-3.4.93-3.76-1.06-3.76-1.06,0,0,5.71-4.72,7.71-4.84.78-.05,4.19,1.91,7.48,4.55,3.44,2.77,9.9,12.52,9.9,12.52,0,0,21.85,15.87,27.38,19.93,7.29,5.36,15.93,14.87,15.93,14.87,0,0,29.02,13.08,36.98,20.27l-10.81,25.62s-26.37-17.67-29.01-22.15c-2.64-4.48-5.27-1.79-7.91-4.72-2.64-2.93-5.17-6.28-5.17-6.28,0,0-6.38-2.8-12.55-9.12-6.17-6.33-11.6-16.01-15.01-21.81-3.41-5.8-6.64-8.57-6.64-8.57Z"/>
      <path class="cls-4" d="m207.99,188.72s-7.87-1.91-8.55-7.1c-.22-1.69-1.69-3.63-1.69-3.63,0,0-7.35-.36-6.88-3.35l9.79-.87s5.37,1.75,8.54,7.18"/>
      <path class="cls-7" d="m194.36,186.59s.49-.69.33-2.12c0,0,2.16-.39,1.92-2.31,0,0,3.2-.39,1.14-4.17"/>
      <path class="cls-7" d="m196.61,182.17s-4.3-3.2-4.79-4.65"/>
      <path class="cls-7" d="m194.7,184.47s-4.59-2.79-4.67-4.43"/>
      <path class="cls-7" d="m195.74,170.09s-1.46,2.62-3.87,3.17"/>
      <path class="cls-7" d="m195.02,171.12s1.17.59,2.16,1.43"/>
      <path class="cls-16" d="m362.62,259.69s-17.33-7.54-34.9-11.66c-17.57-4.12-45.96-7.78-45.96-7.78,0,0,7.82,79.8,5.76,84.6-2.06,4.8-14.42,20.92-14.42,20.92,0,0,66.89,26.08,78.55,28.3,11.66,2.22,5.58-38.25,5.58-38.25,0,0,12.25-51.44,5.39-76.13Z"/>
      <path class="cls-4" d="m338.62,251.12s1.59,3.03-2.59,4.57c-10.83,4-22.37.47-21.14-3.77.47-1.62,3.15,0,2.98-6.05-.02-.78-.3-1.69-.73-2.66-.66-1.5-1.7-3.14-2.75-4.61-1.83-2.56-3.71-4.63-3.71-4.63,0,0,17.19-10.97,29.94,0,0,0-4.74,2.4-2,17.15Z"/>
      <g>
        <path class="cls-13" d="m359.92,393.25c-6.77,11.03-41.12,16.21-59.87,15.72-18.74-.48-72.7-26.03-76.36-31.44-3.39-5.01-11.72-21.57,1.12-31.58,1.02-.79,2.16-1.54,3.46-2.24,8.79-4.76,67.25,10.25,67.25,10.25,0,0,3.62-2.29,4.95-2.12,4.08.52,6.97,3.82,15.24,6.17,5.77,1.65,21.52-4.69,31.58.76,1.1.59,2.12,1.32,3.06,2.22,9.4,8.98,16.33,21.23,9.57,32.26Z"/>
        <g class="cls-21">
          <path class="cls-19" d="m347.29,358.77c-10.31-.69-19.5,1.47-25.92,5.26-7.61,4.5-43.55,21.81-43.55,21.81.08-1.86,2.08-5.61,2.08-5.61-3.38-3.01-12.22-5.35-12.22-5.35-6.85-5.85-34.03-23.3-42.87-28.93,1.02-.79,2.16-1.54,3.46-2.24,8.79-4.76,67.25,10.25,67.25,10.25,0,0,3.62-2.29,4.95-2.12,4.08.52,6.97,3.82,15.24,6.17,5.77,1.65,21.52-4.69,31.58.76Z"/>
        </g>
        <path class="cls-7" d="m359.92,393.25c-6.77,11.03-41.12,16.21-59.87,15.72-18.74-.48-72.7-26.03-76.36-31.44-3.39-5.01-11.72-21.57,1.12-31.58,1.02-.79,2.16-1.54,3.46-2.24,8.79-4.76,67.25,10.25,67.25,10.25,0,0,3.62-2.29,4.95-2.12,4.08.52,6.97,3.82,15.24,6.17,5.77,1.65,21.52-4.69,31.58.76,1.1.59,2.12,1.32,3.06,2.22,9.4,8.98,16.33,21.23,9.57,32.26Z"/>
      </g>
      <g>
        <path class="cls-4" d="m349.37,403.2l.86,3.77s-2.3,6.53-12.41,7.59c-10.11,1.06-16.1,3.31-20.96,3.6-4.86.29-7.69-.12-7.69-.12l-.99-1.48,41.19-13.35Z"/>
        <g>
          <path class="cls-15" d="m290.67,402.8l17.52,13.75s13.58-1.08,25.12-3.75h0c8.3-1.93,15.55-4.69,15.95-8.46.61-5.74-5.53-7.31-12.82-7.09-1.36.03-2.76.14-4.17.28-11.67,1.25-26.51-5.2-26.51-5.2l-15.08,10.47Z"/>
          <g class="cls-22">
            <path class="cls-19" d="m349.26,404.21c-3.15,1.24-7.06,2.96-9.74,4.79,0,0-16.27,8.37-41.27-.25l-7.58-5.95,15.08-10.47s14.83,6.45,26.51,5.19c1.41-.15,2.81-.25,4.17-.28,7.24-.23,13.33,1.32,12.83,6.96Z"/>
          </g>
          <path class="cls-7" d="m290.67,402.8l17.52,13.75s13.58-1.08,25.12-3.75h0c8.3-1.93,15.55-4.69,15.95-8.46.61-5.74-5.53-7.31-12.82-7.09-1.36.03-2.76.14-4.17.28-11.67,1.25-26.51-5.2-26.51-5.2l-15.08,10.47Z"/>
        </g>
        <g>
          <path class="cls-18" d="m307,408.22c-3.16.52.31,6.97,4.59,5.01s-1.43-5.53-4.59-5.01Z"/>
          <g class="cls-25">
            <path class="cls-20" d="m312.93,412.19c-2.16-.26-4.43-.65-6.8-1.19-.61-1.27-.47-2.57.88-2.78,2.65-.43,7.11,2.01,5.93,3.97Z"/>
          </g>
          <path class="cls-7" d="m307,408.22c-3.16.52.31,6.97,4.59,5.01s-1.43-5.53-4.59-5.01Z"/>
        </g>
        <g>
          <path class="cls-18" d="m333.31,412.79c8.3-1.92,15.55-4.68,15.95-8.45.61-5.74-5.53-7.31-12.82-7.09-.32.31-7.39,7.14-3.12,15.54Z"/>
          <g class="cls-24">
            <path class="cls-19" d="m349.26,404.21c-3.15,1.24-7.06,2.96-9.74,4.79,0,0-2.43,1.25-6.85,2.29-2.8-7.7,3.46-13.76,3.76-14.04,7.24-.23,13.33,1.32,12.83,6.96Z"/>
          </g>
          <path class="cls-7" d="m333.31,412.79c8.3-1.92,15.55-4.68,15.95-8.45.61-5.74-5.53-7.31-12.82-7.09-.32.31-7.39,7.14-3.12,15.54Z"/>
        </g>
        <path class="cls-4" d="m327.38,405.66s.03,0,.05,0c.48.02.89-.35.91-.82.17-3.62,2.96-6.56,2.99-6.59.33-.35.32-.89-.03-1.23-.34-.33-.89-.32-1.22.02-.13.14-3.26,3.43-3.47,7.71-.02.46.32.86.77.9Z"/>
        <path class="cls-4" d="m323.91,405.87s.05,0,.07,0c.48,0,.88-.37.88-.85.07-3.65,2.63-6.82,2.65-6.85.3-.37.25-.92-.12-1.22-.37-.3-.91-.25-1.22.12-.12.15-2.96,3.65-3.05,7.92,0,.45.33.83.77.88Z"/>
        <path class="cls-4" d="m319.76,405.43s.01,0,.02,0c.48.04.9-.31.94-.79.27-3.04,2.85-6.92,2.88-6.96.27-.4.16-.94-.24-1.2-.4-.27-.94-.16-1.2.24-.12.17-2.86,4.29-3.16,7.78-.04.47.3.89.77.94Z"/>
        <path class="cls-4" d="m315.84,405.01c.08,0,.16,0,.23,0,.47-.08.79-.53.71-1-.62-3.68,2.8-6.84,2.84-6.87.35-.32.38-.87.06-1.22-.32-.35-.87-.38-1.22-.06-.17.15-4.16,3.81-3.39,8.44.07.39.39.68.76.72Z"/>
        <path class="cls-4" d="m311.58,403.99c.09,0,.19,0,.29-.02.47-.11.76-.57.65-1.04-.75-3.28,2.48-6.99,2.51-7.03.32-.36.28-.91-.08-1.22-.36-.32-.9-.28-1.22.07-.16.18-3.86,4.41-2.91,8.57.09.37.4.63.75.67Z"/>
      </g>
      <g>
        <path class="cls-4" d="m221.48,397.56l-1.26,3.66s1.6,6.73,11.55,8.85c9.95,2.12,15.66,4.98,20.46,5.78s7.66.69,7.66.69l1.14-1.37-39.56-17.6Z"/>
        <g>
          <path class="cls-15" d="m279.9,403.33l-18.86,11.83s-13.39-2.5-24.58-6.37h0c-8.05-2.79-14.97-6.29-14.97-10.09,0-5.77,6.27-6.69,13.5-5.7,1.35.17,2.73.42,4.12.72,11.48,2.47,26.91-2.38,26.91-2.38l13.9,12Z"/>
          <g class="cls-23">
            <path class="cls-19" d="m279.9,403.33l-11.1,6.96c-11.14-3.35-18.39-10.45-22.53-15.87,9.84.03,19.73-3.09,19.73-3.09l13.9,12Z"/>
          </g>
          <path class="cls-7" d="m279.9,403.33l-18.86,11.83s-13.39-2.5-24.58-6.37h0c-8.05-2.79-14.97-6.29-14.97-10.09,0-5.77,6.27-6.69,13.5-5.7,1.35.17,2.73.42,4.12.72,11.48,2.47,26.91-2.38,26.91-2.38l13.9,12Z"/>
        </g>
        <path class="cls-4" d="m236.45,408.79c-8.05-2.78-14.97-6.28-14.97-10.08,0-5.77,6.27-6.69,13.5-5.7.29.34,6.6,7.88,1.47,15.79Z"/>
        <path class="cls-4" d="m243.09,402.32s-.03,0-.05,0c-.48-.03-.84-.44-.82-.91.21-3.61-2.25-6.84-2.28-6.87-.29-.38-.22-.92.15-1.22.38-.29.92-.22,1.21.15.12.15,2.88,3.75,2.64,8.03-.03.46-.41.82-.86.82Z"/>
        <path class="cls-4" d="m246.52,402.89s-.05,0-.07,0c-.48-.04-.83-.46-.79-.94.31-3.64-1.9-7.06-1.92-7.1-.26-.4-.15-.94.25-1.2.4-.26.94-.15,1.2.25.1.16,2.56,3.94,2.2,8.19-.04.45-.42.79-.86.79Z"/>
        <path class="cls-4" d="m250.69,402.89h-.02c-.48,0-.86-.4-.85-.88.05-3.05-2.11-7.18-2.13-7.22-.22-.42-.06-.95.36-1.17.42-.23.95-.06,1.17.36.1.19,2.39,4.57,2.33,8.07,0,.47-.4.85-.87.85Z"/>
        <path class="cls-4" d="m254.63,402.89c-.08,0-.15-.01-.23-.03-.46-.13-.73-.61-.6-1.07,1-3.6-2.07-7.09-2.1-7.13-.32-.36-.29-.9.07-1.22.36-.32.9-.29,1.22.07.15.17,3.74,4.23,2.48,8.75-.11.38-.46.63-.83.63Z"/>
        <path class="cls-4" d="m258.98,402.32c-.09,0-.19-.02-.28-.05-.45-.16-.69-.65-.54-1.1,1.09-3.18-1.73-7.21-1.76-7.25-.28-.39-.19-.93.2-1.21.39-.28.93-.19,1.21.2.14.19,3.38,4.79,1.99,8.83-.12.36-.46.59-.82.59Z"/>
        <path class="cls-4" d="m263.09,407.01c3.09.84-1.04,6.9-5.09,4.5s2.01-5.35,5.09-4.5Z"/>
      </g>
      <path class="cls-2" d="m227.43,374.87c4.64,6.49,18.36,13.66,32.04,19.58,1.47,2.43,4.46,6.98,8.58,11.21,8.42,8.66,11.85,3.81,11.85,3.81,0,0,5.32-.6,13.17-1.67.52,1.01,1.72,2.59,3.97,2.23,1.02-.16,2.99-1.62,5.21-3.55,19.83-2.98,46.74-7.96,54.01-13.82"/>
      <g>
        <path class="cls-7" d="m348.48,362.53c-3.43-3.77-6.86-3.94-14.06-3.43,0,0-18.79,5.96-31.89,13.89-13.1,7.93-32.24,16.26-32.24,16.26,0,0-5.83-1.69-9.89,0,0,0-2.85.22-.94,5.2"/>
        <path class="cls-7" d="m357.23,385.05s.1,5.81-8.14,9.83"/>
        <path class="cls-7" d="m266.35,360.81s13.01,9.4,15.6,15.6c0,0,5,2.13,7.39,3.81"/>
        <path class="cls-7" d="m282.9,368.63c.87,2.7,1.2,5.64.46,8.41"/>
        <path class="cls-7" d="m279.9,362.53c.71,1.03,1.33,2.12,1.86,3.25"/>
        <path class="cls-7" d="m298.41,361.67s4.35,5.81,5.43,10.54"/>
        <path class="cls-7" d="m322.64,396.82c1.62-.1,3.23-.28,4.82-.59"/>
        <path class="cls-7" d="m281.84,392.66c11.87,2.27,24.88,4,37.4,4.29"/>
      </g>
      <path class="cls-4" d="m369.83,304.47s-2.35,40.95-5.12,43.35-7.14,3.09-15.41,3.77c-8.27.69-44.85,2.93-44.85,2.93l-3.91-11.75s19.45-1.97,28.08-5.15c8.63-3.18,19.87-5.26,19.87-5.26,0,0-1.63-10.31-1.63-14.75v-20.88"/>
      <path class="cls-16" d="m362.62,259.69c8.92,5.49,11.55,18.18,8.46,45.27,0,0,2.63,3.2-1.26,4.8,0,0-14.56-5.45-21.34-1.69-6.78,3.75-5.02-5.19-5.02-5.19,0,0-2.79-24.92,3.38-29.42"/>
      <path class="cls-6" d="m346.05,269.63s-8.57,8.92-1.03,31.44c0,0-1.05,4.1-1.04,5.6,0,1.5,2.07,2.29,2.07,2.29"/>
      <path class="cls-6" d="m336.03,284.72s.62,10.97,7.44,15.78"/>
      <path class="cls-6" d="m338.23,259.18s-13.29,5.09-23.86-.55c-6.27-3.34-3.69-8.71-3.69-8.71"/>
      <g>
        <path class="cls-1" d="m242.66,362.54h72.34c1.63,0,3.26-.21,4.84-.62l14.27-3.74c.41-.11.69-.47.69-.89h0c0-.51-.41-.92-.92-.92h-94.2c-.51,0-.92.41-.92.92v1.35c0,2.16,1.75,3.91,3.91,3.91Z"/>
        <path class="cls-5" d="m235.49,358.95h72.54c1.27,0,2.02-1.04,1.69-2.33l-13.46-52.33c-.33-1.29-1.62-2.33-2.89-2.33h-72.54c-1.27,0-2.02,1.04-1.69,2.33l13.46,52.33c.33,1.29,1.62,2.33,2.89,2.33Z"/>
        <line class="cls-7" x1="223.39" y1="303.82" x2="222.02" y2="303.82"/>
        <line class="cls-7" x1="234.02" y1="303.82" x2="226.93" y2="303.82"/>
        <path class="cls-7" d="m306.28,352.33l-11.88-46.18c-.33-1.29-1.63-2.33-2.89-2.33h-55.89"/>
        <line class="cls-7" x1="307.32" y1="356.36" x2="307.02" y2="355.21"/>
        <path class="cls-4" d="m257.32,331.77c.05.41.13.83.25,1.25.93,3.15,3.88,5.06,6.59,4.27,2.71-.8,4.16-4,3.24-7.15-.94-3.16-3.89-5.06-6.6-4.27-.32.1-.63.23-.92.39.23,2.33-.77,4.51-2.56,5.51Z"/>
      </g>
      <path class="cls-16" d="m289.34,233.71c-6.28-.69-9.71-6.65-13.48-7.58-3.77-.93-6.18-1.99-6.18-1.99,0,0-1.3-4.55-3.25-2.96-1.94,1.59-4.51,35.49-2,34.43,2.51-1.06,2.51,2.94,2.51,2.94l23.31,20.55,19.54-34.6s-14.18-10.09-20.46-10.78Z"/>
      <g>
        <g>
          <polyline class="cls-7" points="99.39 112.78 99.39 112.28 99.89 112.28"/>
          <line class="cls-12" x1="102.83" y1="112.28" x2="187.43" y2="112.28"/>
          <polyline class="cls-7" points="188.89 112.28 189.39 112.28 189.39 112.78"/>
          <line class="cls-10" x1="189.39" y1="115.78" x2="189.39" y2="170.28"/>
          <polyline class="cls-7" points="189.39 171.78 189.39 172.28 188.89 172.28"/>
          <line class="cls-12" x1="185.96" y1="172.28" x2="101.36" y2="172.28"/>
          <polyline class="cls-7" points="99.89 172.28 99.39 172.28 99.39 171.78"/>
          <line class="cls-10" x1="99.39" y1="168.78" x2="99.39" y2="114.28"/>
        </g>
        <circle class="cls-2" cx="144.39" cy="112.28" r="1.48"/>
        <circle class="cls-2" cx="99.39" cy="142.28" r="1.48"/>
        <circle class="cls-2" cx="144.39" cy="172.28" r="1.48"/>
        <circle class="cls-2" cx="189.39" cy="142.28" r="1.48"/>
        <rect class="cls-2" x="187.67" y="170.56" width="3.45" height="3.45"/>
        <rect class="cls-2" x="187.67" y="110.56" width="3.45" height="3.45"/>
        <rect class="cls-2" x="97.67" y="170.56" width="3.45" height="3.45"/>
        <rect class="cls-2" x="97.67" y="110.56" width="3.45" height="3.45"/>
      </g>
      <g>
        <rect class="cls-4" x="105.37" y="117.58" width="78.33" height="49.77"/>
        <polygon class="cls-2" points="183.69 152.65 174.99 161.36 151.43 137.8 141.52 147.72 125.71 131.91 105.37 152.26 105.37 167.36 183.69 167.36 183.69 152.65"/>
        <circle class="cls-2" cx="167.47" cy="131.71" r="5.53"/>
      </g>
      <path class="cls-6" d="m293.48,242.88s-5.95,11.17-6.7,28.26"/>
      <path class="cls-6" d="m275.87,250.62s1.79,9.5,7.03,16.38"/>
      <path class="cls-6" d="m300.53,289.81s8.98,29.56,28.56,38.27"/>
      <path class="cls-16" d="m324.19,236.31s-.85,6.45-7.05,6.9c-.66-1.5-1.7-3.14-2.75-4.61,4.11-1.32,9.8-2.29,9.8-2.29Z"/>
      <g>
        <path class="cls-4" d="m337.4,236.76s10.37,1.27,14.71-12.65c4.34-13.92.93-24.41-16.24-29.46-9.52-2.8-19.03-.55-22.46,6.65-2.94,6.17-1.55,11.31-2.23,13.38-.76,2.32-7.77,4.29-7.77,5.88,0,1.32,3.89,3.55,3.89,3.55l-1.14,3.46,1.08.57s-1.99,7.79-1.08,10.54c.67,2.01,18.23,2.84,19.6-2.13"/>
        <path class="cls-7" d="m313.5,206.36s3.43.86,4.37,2.66"/>
        <path class="cls-16" d="m314.11,214.26c-.15,1.01.08,1.88.52,1.94.43.06.9-.7,1.05-1.71.15-1.01-.08-1.88-.52-1.94s-.9.7-1.05,1.71Z"/>
        <path class="cls-7" d="m307.23,228.14s5.58,2.14,7.66.85"/>
        <path class="cls-7" d="m309.19,213.47c-.41,2.23.09,4.2,1.12,4.39,1.03.19,2.2-1.46,2.62-3.7s-.09-4.2-1.12-4.39c-1.03-.19-2.2,1.46-2.62,3.7Z"/>
        <path class="cls-16" d="m352.57,202.07s-.8-5.83-6.52-10.06c-5.72-4.23-12.57-5.14-12.57-5.14,0,0,3.32,1.45,4.57,3.35,0,0-8.57-6.44-18.75-2.21-10.17,4.23-8.92,15.22-8.92,15.22l1.49-2.88s-.17,3.43,1.63,4.69c0,0,1.09-3.32,2.19-4.8,0,0,2.7,8.12,10.13,10.86,0,0-.8-1.6-.11-4,0,0,4.11,8.92,2.91,13.26l1.32,2.29s4.73-4.79,8.57-.8c2.21,2.29-4.23,10.97-5.14,10.97l3.89,5.72s9.72,1.38,15.32-9.14c5.6-10.52,4.23-15.02,4.23-15.02,0,0,1.83,2.56,2.06,4.04,0,0,1.6-11.32-6.29-16.35Z"/>
        <path class="cls-4" d="m329.7,223.68s2.98-10.09,9.38-6.53,1.82,8.93-.46,10.99c-2.29,2.06-4,5.83-5.49,5.83s-1.83-1.83-1.83-1.83"/>
        <line class="cls-7" x1="312.93" y1="214.16" x2="330.73" y2="217.86"/>
      </g>
    </g>
  </g>
</svg>