<?xml version="1.0" encoding="UTF-8"?>
<svg xmlns="http://www.w3.org/2000/svg" viewBox="0 0 475.87 432.43">
  <defs>
    <style>
      .cls-1, .cls-2, .cls-3, .cls-4, .cls-5, .cls-6, .cls-7, .cls-8, .cls-9, .cls-10, .cls-11, .cls-12, .cls-13, .cls-14 {
        stroke-linejoin: round;
      }

      .cls-1, .cls-2, .cls-3, .cls-4, .cls-13, .cls-14 {
        fill: none;
      }

      .cls-1, .cls-5, .cls-6, .cls-7, .cls-8, .cls-10, .cls-11, .cls-13 {
        stroke: #263238;
      }

      .cls-2 {
        stroke: #ccc;
      }

      .cls-3, .cls-12 {
        stroke: #fff;
      }

      .cls-4, .cls-9, .cls-14 {
        stroke: #000;
      }

      .cls-15 {
        opacity: .7;
      }

      .cls-15, .cls-6 {
        fill: #fff;
      }

      .cls-15, .cls-16, .cls-17 {
        stroke-width: 0px;
      }

      .cls-18 {
        opacity: .2;
      }

      .cls-5 {
        fill: #8f8f8f;
      }

      .cls-7 {
        fill: #d9d9d9;
      }

      .cls-8 {
        fill: #a6a6a6;
      }

      .cls-9, .cls-10, .cls-12, .cls-16 {
        fill: #263238;
      }

      .cls-11, .cls-17 {
        fill: #41c7a8;
      }

      .cls-13, .cls-14 {
        stroke-width: .5px;
      }
    </style>
  </defs>
  <g id="Background_Simple" data-name="Background Simple">
    <g>
      <path class="cls-17" d="m437.94,149.97c-15.43-33.19-38.51-62.78-60.13-92.37-31.77-43.47-118.71-72.73-188.93-39.29-70.22,33.44-63.53,87.78-85.27,131.25-21.73,43.47-84.43,86.1-93.63,130.41-14.16,68.23-3.46,116.13,76.07,144.62,60.35,21.62,125.69-19.22,184.75-29.26,39.17-6.66,82.04-1.57,119.69-17.28,46.28-19.31,61.94-78.4,65.61-124.01,1.66-20.65.48-41.56-3.81-61.84-3.14-14.82-8.12-28.82-14.35-42.23Z"/>
      <path class="cls-15" d="m437.94,149.97c-15.43-33.19-38.51-62.78-60.13-92.37-31.77-43.47-118.71-72.73-188.93-39.29-70.22,33.44-63.53,87.78-85.27,131.25-21.73,43.47-84.43,86.1-93.63,130.41-14.16,68.23-3.46,116.13,76.07,144.62,60.35,21.62,125.69-19.22,184.75-29.26,39.17-6.66,82.04-1.57,119.69-17.28,46.28-19.31,61.94-78.4,65.61-124.01,1.66-20.65.48-41.56-3.81-61.84-3.14-14.82-8.12-28.82-14.35-42.23Z"/>
    </g>
  </g>
  <g id="Graphics">
    <g class="cls-18">
      <rect class="cls-4" x="277.59" y="23.5" width="150.59" height="18.41" rx="7.34" ry="7.34"/>
      <line class="cls-14" x1="404.97" y1="27.75" x2="404.97" y2="36.36"/>
      <g>
        <line class="cls-4" x1="398.27" y1="27.83" x2="390.2" y2="35.9"/>
        <line class="cls-4" x1="390.2" y1="27.83" x2="398.27" y2="35.9"/>
      </g>
      <g>
        <path class="cls-9" d="m419.07,36.13h0c-.24.3-.69.33-.97.08l-3.31-3.01.63-.76,3.55,2.72c.3.24.35.68.11.97Z"/>
        <path class="cls-4" d="m410.56,29.07c-1.1,1.33-.91,3.3.41,4.4,1.33,1.1,3.3.91,4.4-.41,1.1-1.33.91-3.3-.41-4.4-1.33-1.1-3.3-.91-4.4.41Zm4.46,3.7c-.94,1.14-2.63,1.3-3.76.35-1.14-.94-1.3-2.63-.35-3.76.94-1.14,2.63-1.3,3.76-.35,1.14.94,1.3,2.63.35,3.76Z"/>
      </g>
    </g>
    <g>
      <path class="cls-2" d="m138.46,56.79c-1.29,1.56-3.61,1.74-5.12.41l-16.16-14.7c.66-.57,1.29-1.21,1.87-1.91.58-.69,1.09-1.42,1.52-2.18l17.33,13.27c1.6,1.24,1.85,3.56.56,5.11Z"/>
      <path class="cls-2" d="m116.82,17.52c1.95,1.58,3.56,3.59,4.58,5.89,2.81,6.29,1.12,14.29-3.99,18.9-5.11,4.61-13.24,5.48-19.21,2.05-6.21-3.57-9.55-11.48-7.7-18.41,1.71-6.38,7.57-11.47,14.15-12.17,4.34-.46,8.78,1.01,12.16,3.75Zm.41,21.56c-4.95,5.98-13.81,6.81-19.79,1.86-5.99-4.95-6.82-13.82-1.87-19.8,4.96-5.98,13.82-6.81,19.8-1.86s6.81,13.82,1.86,19.8Z"/>
    </g>
    <g>
      <path class="cls-2" d="m375.63,419.01c-1.11-1.19-1.01-3.07.21-4.13l13.44-11.37c.39.59.83,1.16,1.33,1.69.49.54,1.02,1.02,1.58,1.44l-12.42,12.45c-1.16,1.15-3.04,1.1-4.14-.09Z"/>
      <path class="cls-2" d="m409.27,405.84c-1.47,1.39-3.24,2.46-5.18,3.04-5.32,1.59-11.53-.6-14.68-5.17-3.15-4.57-2.99-11.15.38-15.56,3.5-4.58,10.17-6.43,15.52-4.22,4.92,2.03,8.37,7.25,8.24,12.58-.09,3.52-1.73,6.91-4.27,9.32Zm-17.27-1.93c-4.26-4.58-3.99-11.75.59-16,4.58-4.27,11.75-4,16.01.58,4.26,4.59,3.99,11.75-.59,16.01-4.58,4.26-11.75,3.99-16.01-.59Z"/>
    </g>
    <g class="cls-18">
      <line class="cls-4" x1="73.92" y1="381.74" x2="50.98" y2="404.69"/>
      <line class="cls-4" x1="50.98" y1="381.74" x2="73.92" y2="404.69"/>
    </g>
    <g class="cls-18">
      <line class="cls-4" x1="456.92" y1="165.74" x2="433.98" y2="188.69"/>
      <line class="cls-4" x1="433.98" y1="165.74" x2="456.92" y2="188.69"/>
    </g>
    <g class="cls-18">
      <line class="cls-4" x1="37.92" y1="34.74" x2="14.98" y2="57.69"/>
      <line class="cls-4" x1="14.98" y1="34.74" x2="37.92" y2="57.69"/>
    </g>
  </g>
  <g id="Plants">
    <g>
      <g>
        <path class="cls-16" d="m58.75,179.78c.06,0-.85-3.81-.93-4.05-.98-2.71-4.47-7.37-7.69-7.26-2.32.08-3.83,2.25-3.53,4.46.31,2.26,2.41,4.12,4.29,5.18,2.21,1.24,7.86,1.67,7.86,1.67Z"/>
        <path class="cls-16" d="m64.13,153.72c-3,1.19-4.32,6.86-4.13,9.74.02.25.72,4.11.77,4.08,0,0,.05-.03.06-.03-.22.89-.44,1.85-.66,2.91-.39,1.95-.82,4.16-1.11,6.59-.31,2.43-.57,5.08-.6,7.9-.03,2.82.08,5.79.6,8.84,0,.03.02.07.02.1-.43-.84-1.7-3.17-1.82-3.33-1.66-2.36-6.26-5.93-9.34-4.97-2.22.69-3.1,3.18-2.22,5.23.9,2.1,3.41,3.34,5.5,3.86,2.36.59,7.53-.37,7.95-.45.51,2.9,1.28,5.83,2.21,8.75.53,1.67,1.12,3.34,1.73,5-.39-.72-.75-1.36-.81-1.44-1.66-2.36-6.26-5.93-9.34-4.97-2.22.69-3.1,3.18-2.22,5.23.89,2.1,3.41,3.34,5.5,3.86,2.12.53,6.55-.2,7.72-.41.24.64.48,1.27.72,1.91,1.17,3.05,2.35,6.08,3.41,9.09.38,1.06.71,2.12,1.04,3.18-.35-.64-.65-1.17-.7-1.25-1.66-2.36-6.26-5.93-9.34-4.97-2.22.69-3.1,3.18-2.22,5.23.89,2.1,3.41,3.34,5.5,3.86,2.02.5,6.12-.13,7.51-.37.31,1.09.62,2.19.88,3.26.16.74.36,1.44.47,2.19.13.74.26,1.47.38,2.2.19,1.41.4,2.85.55,4.23.11.96.21,1.87.3,2.79-.36-1.06-1.11-3.12-1.2-3.29-.85-1.71-2.91-4.15-5.13-5.46-.12-.25-.27-.5-.44-.72-1.34-1.78-3.94-2.27-5.64-.69-2.37,2.19-1.57,7.96-.36,10.57.07.15,1.03,1.74,1.66,2.73-.46-.53-.89-1.04-1.37-1.58-.93-1.07-1.9-2.11-2.93-3.23-.52-.52-1.04-1.05-1.57-1.59-.51-.54-1.12-1.05-1.68-1.58-1.33-1.2-2.74-2.36-4.19-3.49.93-.82,4.21-3.78,5.11-5.74.9-1.96,1.5-4.7.42-6.71-1.06-1.97-3.55-2.84-5.48-1.53-2.68,1.81-2.76,7.63-1.95,10.4.05.17.85,2.1,1.31,3.14-.87-.67-1.74-1.35-2.65-2-2.62-1.89-5.32-3.71-8.02-5.55-.83-.56-1.64-1.13-2.46-1.7.34-.29,4.3-3.72,5.31-5.92.9-1.96,1.5-4.7.42-6.71-1.06-1.97-3.55-2.84-5.47-1.54-2.68,1.81-2.76,7.63-1.95,10.4.06.21,1.21,2.97,1.54,3.66-1.8-1.25-3.59-2.51-5.29-3.83-2.36-1.81-4.58-3.72-6.58-5.73.16-.13,4.31-3.7,5.35-5.95.9-1.96,1.5-4.7.42-6.71-1.06-1.97-3.55-2.84-5.47-1.54-2.68,1.81-2.76,7.63-1.95,10.4.06.22,1.31,3.19,1.57,3.71-.12-.12-.26-.23-.37-.35-2.12-2.17-3.9-4.54-5.45-6.84-.91-1.33-1.7-2.66-2.44-3.97.84-.58,4.66-3.3,5.82-5.22,1.11-1.85,2.01-4.51,1.16-6.62-.83-2.07-3.21-3.21-5.27-2.13-2.86,1.5-3.58,7.28-3.08,10.12.03.15.47,1.69.81,2.81-.33-.6-.67-1.2-.97-1.78-1.14-2.16-2.04-4.21-2.83-6.03-.44-1.04-.82-1.99-1.16-2.88.53-1,2.6-5.08,2.74-7.28.13-2.15-.29-4.92-2.02-6.41-1.69-1.45-4.33-1.37-5.66.54-1.85,2.65.18,8.11,1.93,10.4.15.2,2.87,3.03,2.9,2.98,0,0,.03-.05.03-.06.31.86.66,1.79,1.06,2.79.75,1.84,1.61,3.92,2.71,6.11,1.09,2.2,2.33,4.55,3.86,6.91,1.53,2.37,3.27,4.79,5.37,7.04.02.03.05.05.08.07-.82-.47-3.16-1.7-3.35-1.78-2.69-1.05-8.49-1.5-10.53,1.01-1.47,1.8-.83,4.36,1.03,5.59,1.9,1.25,4.69.9,6.72.18,2.29-.81,6.08-4.47,6.38-4.76,2.03,2.13,4.28,4.15,6.67,6.08,1.37,1.1,2.78,2.17,4.21,3.22-.72-.38-1.37-.72-1.47-.76-2.69-1.05-8.49-1.5-10.53,1.01-1.47,1.8-.83,4.36,1.03,5.59,1.9,1.25,4.69.9,6.72.18,2.06-.73,5.35-3.78,6.21-4.6.55.4,1.1.8,1.65,1.2,2.66,1.9,5.31,3.78,7.87,5.7.9.68,1.76,1.38,2.62,2.08-.64-.34-1.19-.62-1.27-.65-2.69-1.05-8.49-1.5-10.53,1.01-1.47,1.8-.83,4.36,1.03,5.59,1.9,1.25,4.69.9,6.72.18,1.97-.7,5.03-3.49,6.06-4.46.86.74,1.73,1.48,2.53,2.24.54.53,1.09,1,1.6,1.56.52.55,1.03,1.09,1.53,1.62.94,1.07,1.91,2.16,2.8,3.22.62.73,1.2,1.45,1.79,2.16-.89-.69-2.65-1.99-2.81-2.08-2.5-1.44-8.17-2.77-10.56-.6-1.73,1.56-1.48,4.19.18,5.68,1.69,1.53,4.5,1.6,6.61,1.2,2.33-.44,6.47-3.35,6.99-3.71.97,1.19,1.89,2.35,2.75,3.46,1.13,1.46,2.16,2.83,3.1,4.11.61-.1,1.37-.24,2.24-.4-1.14-1.49-2.42-3.14-3.85-4.9-.98-1.21-2.04-2.48-3.15-3.78.26-.31,1.75-2.07,2.94-3.9,2.3.81,7.02.69,7.63.67.15,1.52.28,3,.39,4.4.18,2.42.3,4.63.39,6.6.66-.15,1.33-.31,2.03-.48-.12-1.89-.29-3.99-.51-6.28-.15-1.55-.34-3.2-.54-4.89.6-.17,5.46-1.6,7.27-3.14,1.64-1.4,3.33-3.64,3.2-5.91-.13-2.23-2.03-4.06-4.33-3.69-3.19.52-5.7,5.77-6.13,8.62-.03.17-.1,2.02-.12,3.2-.09-.69-.17-1.36-.27-2.07-.19-1.41-.42-2.8-.66-4.31-.14-.72-.29-1.45-.43-2.19-.13-.73-.36-1.49-.53-2.25-.45-1.74-.98-3.48-1.57-5.22,1.23-.17,5.59-.83,7.43-1.97,1.83-1.14,3.84-3.09,4.05-5.36.2-2.22-1.39-4.32-3.72-4.3-3.23.03-6.51,4.84-7.37,7.59-.05.17-.45,2.22-.64,3.34-.36-1.04-.71-2.09-1.1-3.13-1.14-3.02-2.39-6.04-3.63-9.05-.38-.92-.74-1.85-1.11-2.77.44-.05,5.64-.73,7.7-2.01,1.83-1.14,3.84-3.09,4.05-5.36.2-2.22-1.39-4.32-3.72-4.3-3.23.03-6.51,4.84-7.37,7.59-.06.21-.63,3.15-.73,3.9-.81-2.04-1.61-4.07-2.3-6.11-.97-2.81-1.76-5.63-2.33-8.41.2-.03,5.64-.7,7.74-2.01,1.83-1.14,3.85-3.09,4.05-5.36.2-2.22-1.39-4.32-3.72-4.3-3.23.03-6.51,4.84-7.37,7.59-.07.22-.67,3.38-.74,3.96-.03-.17-.09-.33-.12-.5-.57-2.98-.75-5.94-.78-8.71-.02-1.61.05-3.16.15-4.66,1.02-.02,5.7-.18,7.73-1.15,1.94-.93,4.16-2.65,4.62-4.88.45-2.19-.91-4.45-3.22-4.68-3.21-.33-7,4.1-8.15,6.74-.06.14-.54,1.67-.87,2.79.06-.68.1-1.38.17-2.02.25-2.43.62-4.64.97-6.59.21-1.11.42-2.11.62-3.04.99-.55,4.97-2.8,6.3-4.56,1.3-1.72,2.47-4.27,1.85-6.46-.61-2.15-2.86-3.53-5.02-2.67Z"/>
        <path class="cls-16" d="m7.46,205.42c2.52-.19,7.47-2.94,7.48-2.94.05-.03-2.81-2.71-3.01-2.86-2.31-1.72-7.79-3.69-10.42-1.81-1.89,1.35-1.95,3.99-.48,5.67,1.5,1.71,4.28,2.11,6.43,1.95Z"/>
      </g>
      <g>
        <path class="cls-16" d="m224.32,48.96c.04.06,2.77-3.48,2.91-3.73,1.7-2.81,3.32-9.25.9-12.02-1.74-2-4.74-1.77-6.48.08-1.78,1.89-1.92,5.09-1.5,7.51.49,2.84,4.16,8.15,4.16,8.15Z"/>
        <path class="cls-16" d="m251.23,35.02c-3.21-1.8-9.17,1.1-11.58,3.33-.21.19-3.12,3.59-3.05,3.61,0,0,.06.02.07.03-.95.45-1.95.94-3.04,1.51-2.01,1.05-4.26,2.26-6.63,3.74-2.37,1.47-4.9,3.14-7.41,5.14-2.52,2-5.07,4.23-7.39,6.87-.03.03-.05.06-.08.09.44-.98,1.58-3.77,1.65-4,.89-3.16.76-9.79-2.3-11.83-2.21-1.47-5.04-.46-6.23,1.79-1.21,2.3-.5,5.42.53,7.64,1.17,2.51,5.74,6.4,6.1,6.71-2.19,2.53-4.24,5.31-6.15,8.24-1.1,1.67-2.15,3.39-3.18,5.12.35-.86.66-1.64.7-1.75.89-3.16.76-9.79-2.3-11.83-2.21-1.47-5.04-.46-6.23,1.79-1.21,2.3-.5,5.42.53,7.64,1.06,2.25,4.88,5.65,5.9,6.54-.39.67-.79,1.33-1.17,2.01-1.86,3.22-3.7,6.44-5.6,9.55-.67,1.09-1.37,2.15-2.06,3.2.31-.77.57-1.41.6-1.52.89-3.16.76-9.79-2.3-11.83-2.21-1.47-5.04-.46-6.23,1.79-1.21,2.3-.5,5.42.54,7.64,1.01,2.15,4.51,5.32,5.72,6.38-.75,1.06-1.49,2.12-2.26,3.12-.54.67-1.02,1.35-1.6,1.99-.56.65-1.12,1.28-1.67,1.92-1.11,1.18-2.24,2.4-3.35,3.53-.76.79-1.51,1.52-2.25,2.27.68-1.08,1.96-3.23,2.05-3.42.9-1.99,1.59-5.55,1.15-8.45.14-.29.24-.6.32-.91.62-2.47-.82-5.11-3.44-5.49-3.64-.53-8.17,4.32-9.61,7.27-.09.17-.8,2.17-1.23,3.43.14-.78.28-1.54.42-2.34.28-1.59.5-3.19.75-4.91.09-.83.19-1.68.28-2.53.11-.84.12-1.74.19-2.62.11-2.04.12-4.12.09-6.21,1.39.24,6.36,1.01,8.75.4,2.38-.61,5.24-2.04,6.24-4.44.98-2.34-.04-5.17-2.57-5.95-3.52-1.07-8.73,3.04-10.6,5.73-.12.17-1.24,2.25-1.84,3.41-.03-1.26-.06-2.51-.13-3.78-.21-3.67-.53-7.38-.84-11.08-.09-1.13-.18-2.26-.26-3.39.5.09,6.38,1.14,9.05.45,2.38-.61,5.24-2.04,6.24-4.44.98-2.34-.04-5.17-2.57-5.95-3.52-1.07-8.73,3.04-10.6,5.73-.14.2-1.76,3.21-2.13,3.99-.19-2.49-.35-4.98-.41-7.43-.09-3.39,0-6.72.34-9.94.23.04,6.36,1.16,9.1.46,2.38-.61,5.24-2.04,6.24-4.44.98-2.34-.04-5.17-2.57-5.95-3.52-1.07-8.73,3.04-10.6,5.73-.15.21-1.89,3.44-2.16,4.05.02-.19.02-.39.04-.58.4-3.43,1.22-6.71,2.14-9.73.53-1.76,1.13-3.41,1.76-5.01,1.12.33,6.26,1.76,8.8,1.4,2.43-.34,5.43-1.46,6.69-3.73,1.23-2.22.53-5.15-1.9-6.19-3.38-1.45-9.01,2.06-11.17,4.54-.12.13-1.16,1.63-1.9,2.74.29-.72.58-1.46.88-2.14,1.1-2.56,2.26-4.83,3.31-6.83.6-1.14,1.17-2.15,1.71-3.09,1.27-.25,6.36-1.34,8.41-2.8,2-1.42,4.15-3.79,4.22-6.39.07-2.54-1.9-4.81-4.54-4.62-3.67.27-7.04,5.98-7.82,9.17-.07.28-.62,4.71-.55,4.7,0,0,.06-.01.08-.02-.54.9-1.11,1.87-1.71,2.94-1.09,1.99-2.31,4.24-3.47,6.78-1.16,2.54-2.36,5.33-3.35,8.38-1,3.06-1.89,6.32-2.38,9.81,0,.04,0,.08-.01.12-.17-1.06-.76-4.02-.83-4.24-1-3.13-4.77-8.59-8.45-8.6-2.65,0-4.46,2.4-4.2,4.93.26,2.58,2.57,4.8,4.66,6.08,2.36,1.44,8.32,2.17,8.79,2.23-.43,3.32-.6,6.77-.59,10.26,0,2,.08,4.01.17,6.03-.18-.91-.35-1.73-.38-1.84-1-3.13-4.77-8.59-8.45-8.6-2.65,0-4.45,2.4-4.2,4.93.26,2.58,2.57,4.8,4.66,6.08,2.12,1.3,7.19,2.02,8.53,2.19.04.77.08,1.55.13,2.32.23,3.71.47,7.41.6,11.05.05,1.28.04,2.55.05,3.81-.16-.81-.3-1.49-.34-1.6-1-3.13-4.77-8.59-8.45-8.6-2.65,0-4.45,2.4-4.2,4.93.26,2.58,2.57,4.8,4.66,6.08,2.03,1.24,6.7,1.95,8.29,2.16-.04,1.3-.07,2.59-.16,3.85-.08.85-.1,1.68-.24,2.54-.11.85-.22,1.69-.33,2.52-.27,1.59-.54,3.24-.85,4.79-.2,1.08-.42,2.1-.63,3.13-.03-1.28-.14-3.78-.18-3.98-.51-3.24-3.41-9.21-7.05-9.78-2.62-.41-4.77,1.7-4.9,4.23-.14,2.59,1.81,5.13,3.69,6.71,2.06,1.74,7.61,3.33,8.3,3.52-.36,1.71-.72,3.36-1.09,4.92-.48,2.05-.95,3.95-1.41,5.7.53.47,1.19,1.04,1.96,1.69.51-2.08,1.04-4.39,1.57-6.92.37-1.73.73-3.59,1.08-5.5.46.01,3.09.06,5.55-.2.93,2.61,4.43,6.71,4.88,7.23-1.24,1.23-2.45,2.41-3.62,3.5-2.01,1.9-3.88,3.59-5.56,5.07.6.47,1.23.96,1.88,1.45,1.59-1.47,3.33-3.12,5.19-4.96,1.26-1.24,2.59-2.59,3.93-3.99.58.4,5.33,3.69,7.99,4.18,2.41.44,5.61.34,7.52-1.42,1.87-1.72,2.13-4.71.16-6.48-2.75-2.45-9.2-.9-12.03.77-.17.1-1.86,1.37-2.92,2.18.55-.57,1.09-1.13,1.64-1.72,1.11-1.18,2.18-2.38,3.34-3.68.54-.64,1.08-1.29,1.63-1.95.56-.64,1.06-1.39,1.6-2.08,1.22-1.64,2.37-3.37,3.5-5.13,1.03.97,4.75,4.35,7.08,5.16,2.32.8,5.49,1.18,7.65-.26,2.11-1.41,2.82-4.34,1.14-6.38-2.34-2.84-8.95-2.28-12.01-1.07-.19.08-2.28,1.19-3.42,1.83.67-1.07,1.34-2.13,1.98-3.23,1.85-3.18,3.62-6.45,5.41-9.7.55-1,1.1-1.99,1.65-2.98.36.35,4.69,4.47,7.3,5.37,2.32.8,5.49,1.18,7.65-.26,2.11-1.41,2.82-4.34,1.14-6.38-2.34-2.84-8.95-2.28-12.01-1.07-.23.09-3.24,1.7-3.98,2.15,1.22-2.18,2.45-4.34,3.76-6.43,1.79-2.88,3.71-5.6,5.77-8.1.17.16,4.67,4.48,7.34,5.41,2.32.8,5.49,1.18,7.65-.26,2.11-1.41,2.82-4.33,1.14-6.38-2.34-2.84-8.95-2.28-12.01-1.07-.24.1-3.47,1.83-4.04,2.19.12-.15.23-.32.36-.46,2.23-2.64,4.72-4.92,7.15-6.94,1.41-1.18,2.83-2.22,4.23-3.21.76.89,4.25,4.92,6.56,6.02,2.22,1.05,5.33,1.78,7.63.58,2.26-1.17,3.28-4,1.83-6.21-2.02-3.08-8.65-3.25-11.82-2.38-.17.05-1.87.72-3.1,1.23.64-.44,1.29-.9,1.91-1.3,2.33-1.53,4.55-2.78,6.53-3.87,1.13-.61,2.16-1.15,3.14-1.63,1.2.49,6.04,2.39,8.56,2.3,2.45-.09,5.55-.88,7.04-3,1.46-2.08,1.07-5.06-1.24-6.36Z"/>
        <path class="cls-16" d="m164.83,21.98c1.97,2.1,7.97,4.5,7.97,4.5.06.03.39-4.43.37-4.72-.14-3.28-2.33-9.54-5.88-10.52-2.55-.71-4.93,1.14-5.36,3.64-.44,2.56,1.21,5.3,2.89,7.09Z"/>
      </g>
      <g>
        <path class="cls-16" d="m454.49,273.2s2.04-2.57,2.15-2.75c1.25-2.07,2.44-6.81.66-8.86-1.28-1.47-3.49-1.31-4.77.06-1.31,1.4-1.41,3.75-1.11,5.53.36,2.09,3.07,6.01,3.07,6.01Z"/>
        <path class="cls-16" d="m474.32,262.93c-2.36-1.33-6.76.81-8.53,2.46-.15.14-2.3,2.64-2.25,2.66,0,0,.04.02.05.02-.7.33-1.44.7-2.24,1.11-1.48.78-3.14,1.67-4.89,2.76-1.75,1.09-3.61,2.32-5.46,3.79-1.86,1.47-3.73,3.12-5.45,5.06-.02.02-.04.05-.06.07.32-.72,1.17-2.78,1.21-2.95.66-2.33.56-7.22-1.7-8.72-1.63-1.08-3.71-.34-4.59,1.32-.89,1.69-.37,3.99.39,5.63.86,1.85,4.23,4.71,4.5,4.94-1.62,1.87-3.12,3.91-4.53,6.07-.81,1.23-1.58,2.5-2.34,3.78.26-.64.49-1.21.51-1.29.66-2.33.56-7.22-1.7-8.72-1.63-1.08-3.71-.34-4.59,1.32-.89,1.69-.37,3.99.39,5.63.78,1.66,3.6,4.16,4.35,4.82-.29.49-.58.98-.86,1.48-1.37,2.37-2.72,4.75-4.12,7.04-.49.81-1.01,1.58-1.52,2.36.23-.56.42-1.04.44-1.12.66-2.33.56-7.22-1.7-8.72-1.63-1.08-3.71-.34-4.59,1.32-.89,1.69-.37,3.99.39,5.63.74,1.59,3.32,3.92,4.22,4.7-.55.78-1.1,1.56-1.66,2.3-.4.49-.75.99-1.18,1.46-.41.48-.82.95-1.23,1.41-.81.87-1.65,1.77-2.46,2.6-.56.58-1.11,1.12-1.66,1.67.5-.8,1.45-2.38,1.51-2.52.67-1.46,1.17-4.09.85-6.23.1-.22.18-.44.24-.67.45-1.82-.6-3.76-2.54-4.04-2.68-.39-6.02,3.19-7.08,5.36-.06.13-.59,1.6-.9,2.53.1-.58.21-1.13.31-1.73.2-1.17.37-2.35.56-3.62.07-.61.14-1.23.21-1.86.08-.62.09-1.28.14-1.93.08-1.51.09-3.04.06-4.58,1.03.17,4.69.74,6.45.29,1.75-.45,3.86-1.51,4.6-3.27.72-1.73-.03-3.81-1.89-4.38-2.59-.79-6.43,2.24-7.81,4.23-.09.12-.92,1.66-1.36,2.51-.02-.93-.04-1.85-.09-2.79-.15-2.7-.39-5.44-.62-8.16-.07-.84-.13-1.67-.19-2.5.37.07,4.7.84,6.67.33,1.75-.45,3.86-1.51,4.6-3.27.72-1.73-.03-3.81-1.89-4.38-2.59-.79-6.43,2.24-7.81,4.22-.1.15-1.3,2.36-1.57,2.94-.14-1.84-.26-3.67-.3-5.48-.07-2.5,0-4.95.25-7.32.17.03,4.69.86,6.71.34,1.75-.45,3.86-1.51,4.6-3.27.72-1.73-.03-3.81-1.89-4.38-2.59-.79-6.43,2.24-7.81,4.22-.11.16-1.39,2.54-1.59,2.99.01-.14.01-.29.03-.43.3-2.53.9-4.94,1.57-7.17.39-1.3.84-2.52,1.3-3.69.83.24,4.61,1.29,6.48,1.03,1.79-.25,4-1.07,4.93-2.75.91-1.64.39-3.79-1.4-4.56-2.49-1.07-6.64,1.52-8.23,3.34-.09.1-.85,1.2-1.4,2.02.22-.53.43-1.08.65-1.58.81-1.88,1.67-3.56,2.44-5.03.45-.84.86-1.58,1.26-2.28.93-.19,4.69-.99,6.19-2.07,1.47-1.05,3.05-2.8,3.11-4.71.05-1.87-1.4-3.55-3.35-3.4-2.7.2-5.19,4.41-5.76,6.76-.05.2-.46,3.47-.41,3.46,0,0,.05,0,.06-.01-.4.66-.82,1.37-1.26,2.16-.8,1.46-1.7,3.12-2.55,5-.86,1.87-1.74,3.92-2.47,6.17-.74,2.25-1.39,4.66-1.75,7.23,0,.03,0,.06,0,.09-.13-.78-.56-2.96-.61-3.13-.74-2.31-3.51-6.33-6.23-6.33-1.95,0-3.28,1.77-3.1,3.63.19,1.9,1.89,3.53,3.43,4.48,1.74,1.06,6.13,1.6,6.48,1.64-.32,2.45-.45,4.99-.43,7.56,0,1.47.06,2.96.13,4.44-.13-.67-.26-1.28-.28-1.36-.74-2.31-3.52-6.33-6.23-6.33-1.95,0-3.28,1.77-3.1,3.63.19,1.9,1.89,3.53,3.43,4.48,1.56.96,5.3,1.49,6.29,1.62.03.57.06,1.14.09,1.71.17,2.73.35,5.46.44,8.14.03.95.03,1.88.03,2.81-.12-.6-.22-1.1-.25-1.18-.74-2.31-3.51-6.33-6.23-6.33-1.95,0-3.28,1.77-3.1,3.63.19,1.9,1.89,3.53,3.43,4.48,1.49.91,4.93,1.44,6.11,1.59-.03.95-.05,1.91-.12,2.83-.06.63-.08,1.24-.17,1.87-.08.62-.16,1.24-.25,1.86-.2,1.17-.4,2.39-.62,3.53-.15.79-.31,1.55-.46,2.31-.02-.94-.11-2.78-.13-2.93-.38-2.39-2.52-6.79-5.19-7.2-1.93-.3-3.51,1.25-3.61,3.12-.1,1.91,1.33,3.78,2.72,4.95,1.52,1.28,5.61,2.45,6.12,2.59-.26,1.26-.53,2.48-.8,3.62-.35,1.51-.7,2.91-1.04,4.2.39.34.88.77,1.45,1.25.37-1.53.77-3.23,1.16-5.1.27-1.27.54-2.64.8-4.05.34,0,2.28.05,4.09-.15.69,1.93,3.26,4.94,3.6,5.33-.91.9-1.81,1.77-2.67,2.58-1.48,1.4-2.86,2.65-4.1,3.74.44.35.91.71,1.39,1.07,1.17-1.08,2.45-2.3,3.83-3.65.93-.91,1.91-1.91,2.9-2.94.43.3,3.93,2.72,5.89,3.08,1.78.33,4.13.25,5.54-1.04,1.38-1.27,1.57-3.47.11-4.77-2.02-1.8-6.78-.66-8.86.56-.12.07-1.37,1.01-2.15,1.61.4-.42.8-.83,1.21-1.27.82-.87,1.61-1.76,2.46-2.71.4-.47.8-.95,1.2-1.44.41-.47.78-1.02,1.18-1.54.9-1.21,1.75-2.48,2.58-3.78.76.71,3.5,3.21,5.21,3.8,1.71.59,4.05.87,5.64-.19,1.56-1.04,2.08-3.19.84-4.7-1.73-2.09-6.6-1.68-8.85-.79-.14.06-1.68.88-2.52,1.35.49-.79.99-1.57,1.46-2.38,1.36-2.34,2.67-4.75,3.98-7.15.4-.74.81-1.46,1.22-2.19.27.26,3.46,3.29,5.38,3.96,1.71.59,4.05.87,5.64-.19,1.56-1.04,2.08-3.19.84-4.7-1.73-2.09-6.6-1.68-8.85-.79-.17.07-2.39,1.26-2.93,1.59.9-1.61,1.81-3.2,2.77-4.74,1.32-2.12,2.74-4.13,4.25-5.97.12.12,3.44,3.3,5.41,3.98,1.71.59,4.05.87,5.64-.19,1.56-1.04,2.08-3.19.84-4.7-1.73-2.09-6.6-1.68-8.85-.79-.18.07-2.56,1.35-2.98,1.61.09-.11.17-.23.26-.34,1.64-1.95,3.48-3.63,5.27-5.11,1.04-.87,2.08-1.64,3.12-2.36.56.66,3.13,3.62,4.84,4.43,1.63.78,3.93,1.31,5.63.43,1.66-.86,2.42-2.95,1.35-4.58-1.49-2.27-6.37-2.39-8.71-1.75-.13.03-1.38.53-2.28.91.47-.32.95-.66,1.41-.96,1.71-1.12,3.35-2.05,4.81-2.85.83-.45,1.59-.84,2.31-1.2.88.36,4.45,1.76,6.31,1.69,1.81-.06,4.09-.65,5.19-2.21,1.08-1.53.79-3.73-.91-4.68Z"/>
        <path class="cls-16" d="m410.66,253.32c1.45,1.55,5.87,3.32,5.87,3.32.05.02.28-3.27.28-3.47-.1-2.42-1.72-7.03-4.33-7.75-1.88-.52-3.63.84-3.95,2.68-.32,1.89.89,3.91,2.13,5.22Z"/>
      </g>
      <g>
        <path class="cls-16" d="m279.38,381.34c-.04-.05-2.55,3.21-2.69,3.44-1.56,2.6-3.06,8.53-.83,11.09,1.61,1.84,4.37,1.63,5.98-.08,1.64-1.75,1.77-4.7,1.38-6.93-.45-2.62-3.84-7.52-3.84-7.52Z"/>
        <path class="cls-16" d="m254.55,394.2c2.96,1.66,8.46-1.02,10.68-3.08.19-.18,2.87-3.31,2.82-3.33,0,0-.05-.02-.07-.03.87-.42,1.8-.87,2.81-1.39,1.85-.97,3.93-2.09,6.12-3.45,2.19-1.36,4.52-2.9,6.84-4.74,2.32-1.84,4.67-3.9,6.82-6.34.02-.03.05-.06.07-.09-.41.91-1.46,3.48-1.52,3.69-.82,2.92-.7,9.03,2.13,10.91,2.04,1.35,4.65.42,5.74-1.65,1.12-2.12.47-5-.49-7.05-1.08-2.31-5.29-5.9-5.63-6.19,2.02-2.34,3.91-4.9,5.68-7.6,1.01-1.54,1.98-3.13,2.94-4.73-.33.8-.61,1.51-.64,1.61-.82,2.92-.7,9.03,2.13,10.91,2.04,1.35,4.65.42,5.74-1.65,1.12-2.12.47-5-.49-7.05-.97-2.08-4.5-5.21-5.45-6.03.36-.62.72-1.23,1.08-1.85,1.71-2.97,3.41-5.94,5.16-8.81.62-1.01,1.26-1.98,1.9-2.96-.29.71-.53,1.3-.55,1.4-.82,2.92-.7,9.03,2.13,10.91,2.04,1.35,4.65.42,5.74-1.65,1.12-2.12.47-5-.49-7.05-.93-1.98-4.16-4.91-5.28-5.88.69-.98,1.37-1.96,2.08-2.88.5-.62.94-1.24,1.47-1.83.52-.6,1.03-1.18,1.54-1.77,1.02-1.09,2.06-2.22,3.09-3.25.7-.73,1.39-1.41,2.08-2.09-.63,1-1.81,2.98-1.89,3.15-.83,1.83-1.46,5.12-1.06,7.8-.12.27-.23.55-.3.84-.57,2.28.76,4.71,3.18,5.06,3.36.49,7.53-3.99,8.86-6.71.08-.16.74-2,1.13-3.16-.13.72-.26,1.42-.38,2.16-.25,1.47-.46,2.94-.7,4.53-.09.77-.17,1.55-.26,2.33-.1.78-.11,1.61-.17,2.42-.1,1.89-.11,3.8-.08,5.73-1.29-.22-5.87-.93-8.07-.37-2.19.56-4.83,1.89-5.76,4.09-.91,2.16.03,4.77,2.37,5.49,3.25.99,8.05-2.8,9.78-5.29.11-.16,1.15-2.08,1.7-3.15.03,1.16.05,2.32.12,3.49.19,3.38.49,6.8.78,10.22.09,1.05.16,2.09.24,3.13-.46-.08-5.88-1.05-8.35-.42-2.19.56-4.83,1.89-5.76,4.09-.91,2.16.03,4.77,2.37,5.48,3.25.99,8.05-2.8,9.78-5.29.13-.19,1.62-2.96,1.97-3.68.17,2.3.32,4.59.38,6.86.08,3.13,0,6.2-.32,9.17-.21-.04-5.87-1.07-8.4-.43-2.19.56-4.83,1.88-5.76,4.09-.91,2.16.03,4.77,2.37,5.48,3.25.99,8.05-2.8,9.78-5.29.14-.2,1.74-3.18,1.99-3.74-.02.18-.02.36-.04.54-.37,3.17-1.13,6.19-1.97,8.98-.49,1.62-1.05,3.15-1.62,4.62-1.03-.3-5.78-1.62-8.11-1.29-2.24.32-5.01,1.34-6.17,3.44-1.14,2.05-.49,4.75,1.76,5.71,3.12,1.34,8.31-1.9,10.3-4.18.11-.12,1.07-1.51,1.76-2.53-.27.66-.54,1.35-.81,1.97-1.01,2.36-2.09,4.45-3.05,6.3-.56,1.05-1.08,1.98-1.58,2.85-1.17.23-5.87,1.24-7.75,2.59-1.84,1.31-3.82,3.5-3.89,5.89-.07,2.34,1.75,4.44,4.19,4.26,3.38-.25,6.5-5.52,7.21-8.46.06-.25.57-4.34.51-4.33,0,0-.06.01-.07.01.5-.83,1.02-1.72,1.58-2.71,1.01-1.83,2.13-3.91,3.2-6.26,1.07-2.34,2.17-4.91,3.09-7.73.92-2.82,1.74-5.83,2.19-9.05,0-.04,0-.07.01-.11.16.98.7,3.71.77,3.91.92,2.89,4.4,7.92,7.79,7.93,2.44,0,4.11-2.21,3.88-4.55-.24-2.38-2.37-4.42-4.3-5.6-2.18-1.33-7.67-2-8.11-2.06.4-3.07.56-6.24.54-9.47,0-1.84-.07-3.7-.16-5.56.17.84.32,1.6.35,1.7.92,2.89,4.4,7.92,7.79,7.93,2.44,0,4.11-2.21,3.88-4.55-.24-2.38-2.37-4.42-4.3-5.6-1.96-1.2-6.63-1.86-7.87-2.02-.04-.71-.07-1.43-.12-2.14-.21-3.42-.44-6.84-.55-10.19-.04-1.18-.04-2.35-.04-3.52.15.75.28,1.38.31,1.47.92,2.89,4.4,7.92,7.79,7.93,2.44,0,4.11-2.21,3.88-4.55-.24-2.38-2.37-4.42-4.3-5.6-1.87-1.14-6.18-1.8-7.65-1.99.03-1.19.07-2.39.15-3.55.08-.79.1-1.55.22-2.34.1-.78.21-1.56.31-2.32.25-1.47.5-2.99.78-4.42.19-.99.38-1.94.58-2.89.03,1.18.13,3.48.16,3.67.47,2.99,3.15,8.5,6.5,9.02,2.42.38,4.4-1.56,4.52-3.91.13-2.39-1.67-4.73-3.4-6.19-1.9-1.61-7.02-3.07-7.66-3.25.33-1.57.66-3.1,1-4.54.44-1.89.88-3.64,1.3-5.26-.49-.43-1.1-.96-1.81-1.56-.47,1.92-.96,4.05-1.45,6.38-.34,1.6-.67,3.31-1,5.07-.43-.01-2.85-.06-5.12.18-.86-2.41-4.08-6.19-4.5-6.67,1.14-1.13,2.26-2.22,3.34-3.23,1.85-1.75,3.58-3.31,5.13-4.68-.56-.44-1.13-.88-1.73-1.34-1.46,1.35-3.07,2.88-4.79,4.57-1.16,1.14-2.39,2.39-3.63,3.68-.53-.37-4.92-3.4-7.37-3.85-2.23-.41-5.17-.31-6.94,1.31-1.73,1.58-1.97,4.35-.14,5.97,2.53,2.26,8.48.83,11.1-.71.15-.09,1.72-1.26,2.69-2.01-.51.53-1,1.04-1.51,1.59-1.02,1.08-2.01,2.2-3.08,3.39-.5.59-1,1.19-1.5,1.8-.51.59-.98,1.28-1.48,1.92-1.12,1.52-2.19,3.11-3.23,4.74-.95-.89-4.38-4.01-6.53-4.76-2.14-.74-5.07-1.09-7.06.24-1.95,1.3-2.6,4-1.05,5.88,2.16,2.62,8.26,2.1,11.08.98.18-.07,2.1-1.1,3.15-1.69-.62.98-1.24,1.96-1.83,2.98-1.71,2.93-3.34,5.95-4.99,8.95-.5.92-1.02,1.83-1.53,2.75-.33-.32-4.33-4.12-6.73-4.95-2.14-.74-5.07-1.09-7.06.24-1.95,1.3-2.6,4-1.05,5.88,2.16,2.62,8.26,2.1,11.07.98.21-.08,2.99-1.57,3.67-1.99-1.12,2.01-2.26,4.01-3.46,5.93-1.65,2.65-3.43,5.16-5.32,7.47-.16-.15-4.31-4.13-6.77-4.99-2.14-.74-5.07-1.09-7.06.24-1.95,1.3-2.6,4-1.05,5.88,2.16,2.62,8.26,2.1,11.07.98.22-.09,3.2-1.69,3.73-2.02-.11.14-.22.29-.33.43-2.05,2.44-4.35,4.54-6.6,6.4-1.3,1.09-2.61,2.05-3.9,2.96-.7-.82-3.92-4.54-6.05-5.55-2.04-.97-4.92-1.64-7.04-.54-2.08,1.08-3.03,3.69-1.69,5.73,1.86,2.84,7.98,3,10.9,2.19.16-.04,1.72-.67,2.86-1.14-.59.4-1.19.83-1.76,1.2-2.15,1.41-4.2,2.56-6.02,3.57-1.04.57-2,1.06-2.89,1.51-1.1-.45-5.58-2.2-7.89-2.12-2.26.08-5.12.81-6.5,2.77-1.35,1.92-.99,4.67,1.14,5.87Z"/>
        <path class="cls-16" d="m334.26,406.23c-1.82-1.94-7.35-4.15-7.35-4.15-.06-.02-.36,4.09-.34,4.35.13,3.03,2.15,8.8,5.42,9.71,2.36.65,4.55-1.05,4.94-3.36.4-2.36-1.11-4.89-2.67-6.54Z"/>
      </g>
    </g>
  </g>
  <g id="Page">
    <g>
      <rect class="cls-6" x="58.71" y="76.25" width="358.67" height="288.19"/>
      <g>
        <path class="cls-6" d="m370.71,327.47h-44.74c-2.43,0-4.39-1.97-4.39-4.39v-51.27"/>
        <path class="cls-6" d="m398.91,221.29v101.78c0,2.43-1.97,4.39-4.4,4.39h-19.4"/>
        <path class="cls-6" d="m321.57,268.35v-77.68c0-2.43,1.96-4.39,4.39-4.39h68.54c2.43,0,4.4,1.97,4.4,4.39v27.8"/>
        <path class="cls-6" d="m398.91,190.67v23.73h-77.33v-23.73c0-2.43,1.96-4.39,4.39-4.39h68.54c2.43,0,4.4,1.97,4.4,4.39Z"/>
      </g>
      <rect class="cls-6" x="58.71" y="76.25" width="358.67" height="97.58"/>
      <g>
        <circle class="cls-7" cx="388.62" cy="142.46" r="8.45" transform="translate(-22.81 97.19) rotate(-13.85)"/>
        <g>
          <g>
            <circle class="cls-16" cx="363.2" cy="137.82" r="1.13"/>
            <path class="cls-16" d="m368.75,137.82c0-.62-.51-1.13-1.13-1.13s-1.13.51-1.13,1.13.51,1.13,1.13,1.13,1.13-.51,1.13-1.13Z"/>
            <path class="cls-16" d="m373.18,137.82c0-.62-.51-1.13-1.13-1.13s-1.13.51-1.13,1.13.51,1.13,1.13,1.13,1.13-.51,1.13-1.13Z"/>
          </g>
          <g>
            <path class="cls-16" d="m364.32,142.42c0-.62-.51-1.13-1.13-1.13s-1.13.51-1.13,1.13.51,1.13,1.13,1.13,1.13-.51,1.13-1.13Z"/>
            <path class="cls-16" d="m368.75,142.42c0-.62-.51-1.13-1.13-1.13s-1.13.51-1.13,1.13.51,1.13,1.13,1.13,1.13-.51,1.13-1.13Z"/>
            <path class="cls-16" d="m373.18,142.42c0-.62-.51-1.13-1.13-1.13s-1.13.51-1.13,1.13.51,1.13,1.13,1.13,1.13-.51,1.13-1.13Z"/>
          </g>
          <g>
            <path class="cls-16" d="m364.32,147.02c0-.62-.51-1.13-1.13-1.13s-1.13.51-1.13,1.13.51,1.13,1.13,1.13,1.13-.51,1.13-1.13Z"/>
            <path class="cls-16" d="m368.75,147.02c0-.62-.51-1.13-1.13-1.13s-1.13.51-1.13,1.13.51,1.13,1.13,1.13,1.13-.51,1.13-1.13Z"/>
            <path class="cls-16" d="m373.18,147.02c0-.62-.51-1.13-1.13-1.13s-1.13.51-1.13,1.13.51,1.13,1.13,1.13,1.13-.51,1.13-1.13Z"/>
          </g>
        </g>
      </g>
      <g>
        <path class="cls-6" d="m310.06,145.83c-1.65,5.14-6.47,8.86-12.16,8.86h-116.34"/>
        <path class="cls-6" d="m207.15,129.15h90.75c7.05,0,12.77,5.72,12.77,12.77"/>
        <path class="cls-6" d="m175.16,154.68h-60.57c-7.05,0-12.77-5.72-12.77-12.77h0c0-7.05,5.72-12.77,12.77-12.77h88.13"/>
        <line class="cls-13" x1="278.47" y1="135.04" x2="278.47" y2="146.98"/>
        <g>
          <line class="cls-1" x1="269.19" y1="135.15" x2="257.99" y2="146.35"/>
          <line class="cls-1" x1="257.99" y1="135.15" x2="269.19" y2="146.35"/>
        </g>
        <g>
          <path class="cls-16" d="m115.14,145.19h-1.21l-1.09-7.93h.86l.93,6.75.88-6.74h.87l.87,6.75.9-6.76h.77l-1.08,7.93h-1.17l-.76-5.38-.78,5.38Z"/>
          <path class="cls-16" d="m122.47,140.77v.79h-1.94v2.82h2.38v.8h-3.26v-7.93h3.26v.8h-2.38v2.71h1.94Z"/>
          <path class="cls-16" d="m125.51,137.26c1.23,0,1.72.59,1.72,1.76v.37c0,.84-.24,1.36-.93,1.57.77.22,1.07.83,1.07,1.7v.67c0,1.19-.58,1.86-1.81,1.86h-1.82v-7.93h1.78Zm-.22,3.37c.7,0,1.07-.23,1.07-1.05v-.46c0-.7-.24-1.04-.87-1.04h-.87v2.56h.68Zm.26,3.76c.65,0,.94-.34.94-1.08v-.7c0-.88-.35-1.18-1.11-1.18h-.77v2.96h.94Z"/>
          <path class="cls-16" d="m133.36,139.16v.22h-.84v-.26c0-.71-.27-1.13-.91-1.13s-.91.42-.91,1.12c0,1.78,2.66,1.95,2.66,4.18,0,1.2-.58,1.98-1.79,1.98s-1.78-.78-1.78-1.98v-.45h.83v.5c0,.71.29,1.13.93,1.13s.93-.42.93-1.13c0-1.77-2.65-1.94-2.65-4.17,0-1.22.57-1.98,1.76-1.98s1.77.78,1.77,1.98Z"/>
          <path class="cls-16" d="m136.97,140.77v.79h-1.94v2.82h2.38v.8h-3.26v-7.93h3.26v.8h-2.38v2.71h1.94Z"/>
          <path class="cls-16" d="m139.12,143.59l-.31,1.6h-.82l1.52-7.93h1.28l1.52,7.93h-.88l-.31-1.6h-2.01Zm.11-.76h1.77l-.89-4.58-.87,4.58Z"/>
          <path class="cls-16" d="m144.78,137.26c1.25,0,1.77.63,1.77,1.81v.65c0,.87-.31,1.42-.99,1.63.73.22,1,.8,1,1.65v1.24c0,.35.01.68.16.95h-.89c-.1-.23-.15-.43-.15-.96v-1.25c0-.89-.42-1.18-1.16-1.18h-.62v3.39h-.88v-7.93h1.77Zm-.23,3.74c.7,0,1.12-.23,1.12-1.09v-.76c0-.71-.26-1.09-.92-1.09h-.86v2.93h.66Z"/>
          <path class="cls-16" d="m150.98,139.17v.71h-.84v-.76c0-.71-.28-1.14-.93-1.14s-.93.43-.93,1.14v4.19c0,.71.29,1.14.93,1.14s.93-.43.93-1.14v-1.03h.84v.99c0,1.2-.57,1.99-1.79,1.99s-1.78-.79-1.78-1.99v-4.1c0-1.2.57-1.99,1.78-1.99s1.79.79,1.79,1.99Z"/>
          <path class="cls-16" d="m152.67,141.62v3.57h-.88v-7.93h.88v3.57h1.95v-3.57h.88v7.93h-.88v-3.57h-1.95Z"/>
        </g>
        <g>
          <path class="cls-10" d="m298.03,146.66h0c-.34.41-.95.46-1.35.11l-4.59-4.18.87-1.05,4.93,3.77c.42.33.49.94.15,1.35Z"/>
          <path class="cls-10" d="m286.24,136.87c-1.53,1.84-1.27,4.57.57,6.1,1.84,1.53,4.57,1.27,6.1-.57s1.27-4.57-.57-6.1c-1.84-1.53-4.57-1.27-6.1.57Zm6.19,5.13c-1.31,1.58-3.64,1.8-5.22.49-1.58-1.31-1.8-3.64-.49-5.22,1.31-1.58,3.64-1.8,5.22-.49,1.58,1.31,1.8,3.64.49,5.22Z"/>
        </g>
      </g>
      <rect class="cls-7" x="406.43" y="76.25" width="10.94" height="288.19"/>
      <rect class="cls-5" x="406.43" y="133.71" width="10.94" height="28.27"/>
      <rect class="cls-11" x="58.71" y="76.25" width="358.67" height="33.74"/>
      <g>
        <rect class="cls-10" x="120.07" y="76.25" width="297.31" height="11.86"/>
        <g>
          <g>
            <line class="cls-3" x1="410.5" y1="79.23" x2="404.23" y2="85.51"/>
            <line class="cls-3" x1="404.23" y1="79.23" x2="410.5" y2="85.51"/>
          </g>
          <g>
            <rect class="cls-12" x="387.65" y="79.76" width="4.62" height="4.62"/>
            <rect class="cls-12" x="385.43" y="80.87" width="4.62" height="4.62"/>
          </g>
          <line class="cls-3" x1="371.02" y1="82.6" x2="363.03" y2="82.6"/>
        </g>
        <g>
          <line class="cls-3" x1="126.41" y1="79.01" x2="126.41" y2="86.18"/>
          <line class="cls-3" x1="129.99" y1="82.59" x2="122.82" y2="82.59"/>
        </g>
      </g>
      <g>
        <line class="cls-6" x1="104.23" y1="193.89" x2="178.04" y2="193.89"/>
        <line class="cls-6" x1="104.23" y1="200.34" x2="197.96" y2="200.34"/>
        <line class="cls-6" x1="104.23" y1="207.95" x2="297.55" y2="207.95"/>
        <line class="cls-6" x1="104.23" y1="214.98" x2="297.55" y2="214.98"/>
        <line class="cls-6" x1="104.23" y1="222.01" x2="297.55" y2="222.01"/>
      </g>
      <g>
        <line class="cls-6" x1="104.23" y1="238.42" x2="178.04" y2="238.42"/>
        <line class="cls-6" x1="104.23" y1="244.86" x2="197.96" y2="244.86"/>
        <line class="cls-6" x1="104.23" y1="252.48" x2="297.55" y2="252.48"/>
        <line class="cls-6" x1="104.23" y1="259.51" x2="297.55" y2="259.51"/>
        <line class="cls-6" x1="104.23" y1="266.54" x2="297.55" y2="266.54"/>
      </g>
      <g>
        <line class="cls-6" x1="104.23" y1="282.94" x2="178.04" y2="282.94"/>
        <line class="cls-6" x1="104.23" y1="289.39" x2="197.96" y2="289.39"/>
        <line class="cls-6" x1="104.23" y1="297" x2="297.55" y2="297"/>
        <line class="cls-6" x1="104.23" y1="304.03" x2="297.55" y2="304.03"/>
        <line class="cls-6" x1="104.23" y1="311.06" x2="297.55" y2="311.06"/>
      </g>
      <g>
        <line class="cls-6" x1="104.23" y1="327.46" x2="178.04" y2="327.46"/>
        <line class="cls-6" x1="104.23" y1="333.91" x2="197.96" y2="333.91"/>
        <line class="cls-6" x1="104.23" y1="341.52" x2="297.55" y2="341.52"/>
        <line class="cls-6" x1="104.23" y1="348.55" x2="297.55" y2="348.55"/>
        <line class="cls-6" x1="104.23" y1="355.58" x2="297.55" y2="355.58"/>
      </g>
      <g>
        <line class="cls-6" x1="326.64" y1="222.67" x2="361.4" y2="222.67"/>
        <line class="cls-6" x1="326.64" y1="227.34" x2="361.4" y2="227.34"/>
        <line class="cls-6" x1="326.64" y1="232.02" x2="394.49" y2="232.02"/>
        <line class="cls-6" x1="326.64" y1="236.7" x2="394.49" y2="236.7"/>
        <line class="cls-6" x1="326.64" y1="241.38" x2="394.49" y2="241.38"/>
        <line class="cls-6" x1="326.64" y1="246.06" x2="394.49" y2="246.06"/>
        <line class="cls-6" x1="326.64" y1="250.74" x2="394.49" y2="250.74"/>
        <line class="cls-6" x1="326.64" y1="255.42" x2="394.49" y2="255.42"/>
        <line class="cls-6" x1="326.64" y1="260.1" x2="394.49" y2="260.1"/>
        <line class="cls-6" x1="326.64" y1="264.78" x2="394.49" y2="264.78"/>
      </g>
      <g>
        <line class="cls-6" x1="326.64" y1="275.81" x2="361.4" y2="275.81"/>
        <line class="cls-6" x1="326.64" y1="280.48" x2="361.4" y2="280.48"/>
        <line class="cls-6" x1="326.64" y1="285.16" x2="394.49" y2="285.16"/>
        <line class="cls-6" x1="326.64" y1="289.84" x2="394.49" y2="289.84"/>
        <line class="cls-6" x1="326.64" y1="294.52" x2="394.49" y2="294.52"/>
        <line class="cls-6" x1="326.64" y1="299.2" x2="394.49" y2="299.2"/>
        <line class="cls-6" x1="326.64" y1="303.88" x2="394.49" y2="303.88"/>
        <line class="cls-6" x1="326.64" y1="308.56" x2="394.49" y2="308.56"/>
        <line class="cls-6" x1="326.64" y1="313.24" x2="394.49" y2="313.24"/>
        <line class="cls-6" x1="326.64" y1="317.92" x2="394.49" y2="317.92"/>
      </g>
    </g>
  </g>
  <g id="Floor">
    <g>
      <line class="cls-1" x1="425.46" y1="431.93" x2="438" y2="431.93"/>
      <line class="cls-1" x1="99.44" y1="431.93" x2="417.1" y2="431.93"/>
      <line class="cls-1" x1="29.22" y1="431.93" x2="91.08" y2="431.93"/>
    </g>
  </g>
  <g id="Character">
    <g>
      <g>
        <path class="cls-6" d="m236.51,412.42s10.71.63,13.23,0c2.52-.63,7.56-4.72,8.19-1.57.63,3.15-2.83,7.56-5.04,10.08-2.2,2.52-11.02,4.72-13.54,5.98-2.52,1.26-6.3,4.41-9.45,4.41s-5.04-10.39-5.04-10.39c0,0,9.45-5.67,11.97-9.76"/>
        <path class="cls-6" d="m257.36,409.9c-6.42,11.84-16.96,13.85-16.96,13.85l-13.39,4.46c.78,1.74,1.75,3.1,2.89,3.1,3.15,0,6.93-3.15,9.45-4.41,2.52-1.26,11.34-3.46,13.54-5.98,2.2-2.52,5.67-6.93,5.04-10.08-.09-.47-.29-.76-.56-.95Z"/>
      </g>
      <g>
        <path class="cls-6" d="m122.97,404.43s-8.2,9.3-8.89,12.04c-.66,2.6,5.61,6.38,7.23,7.52,4.12,2.91,9.05,5.29,13.82,6.94,1.74.6,10.29,2.61,9.16-1.62-.83-3.13-7.39-6.74-8.22-8.58-.83-1.84-2.2-5.43-2.2-5.43l-10.89-10.88Z"/>
        <path class="cls-6" d="m121.3,423.99c4.12,2.91,9.05,5.29,13.82,6.94,1.51.52,8.15,2.1,9.14-.26-3.04-.17-8.76-1.12-16.12-5.33-7.05-4.03-11.54-7.41-13.89-9.36-.07.18-.14.34-.17.48-.66,2.6,5.61,6.38,7.23,7.52Z"/>
      </g>
      <path class="cls-10" d="m145.13,287.83l3.46,25.19,2.89,53.11s-8.82,8.5-13.86,14.17c-5.04,5.67-16.5,25.44-16.5,25.44,0,0,.91,4.95,6.55,8.33,5.64,3.38,8.7,2.85,8.7,2.85l4.07-7.09,1.46-3.2s32.88-31.67,33.51-35.76c.63-4.09,3.9-48.43,3.9-48.43l25.7,37.72s3.15,24.88,5.67,30.86c2.52,5.98,12.91,25.51,12.91,25.51l1.26,4.41s4.41,1.57,7.87-1.57c3.46-3.15,5.69-6.8,5.69-6.8l-3.48-4.22-.63-2.83s-8.5-50.7-10.39-56.68c-1.89-5.98-24.93-57.83-24.93-57.83l-5.04-13.86s-4.72,3.15-19.21,7.56-29.6,3.15-29.6,3.15Z"/>
      <g>
        <path class="cls-11" d="m177.25,293.19c10.56-4.82,15.55-9.63,17.88-12.78l-1.19-3.28s-4.72,3.15-19.21,7.56c-12.95,3.94-26.39,3.35-29.1,3.18-.16.02-.32.05-.49.07l.92,6.73c3.87,1.51,16.34,5.29,31.18-1.48Z"/>
        <path class="cls-11" d="m139.62,214.22l-24.8,18.42,28.11,52.67s.24,2.83,2.83,4.96c2.6,2.13,19.6,1.65,25.74-.24,6.14-1.89,15.59-6.61,18.19-8.27,2.6-1.65,6.14-5.2,5.2-8.27-.94-3.07-2.6-5.67-2.6-5.67l-4.96-14.41s19.6,1.18,22.2,1.18,11.57-22.67,11.57-22.67c0,0-2.6-.24-3.54-1.89-.94-1.65-1.42-3.54-1.42-3.54,0,0-3.54,2.13-8.5,4.25-4.96,2.13-10.16,2.6-12.28,1.65-2.13-.94-14.64-12.28-17.48-15.82-2.83-3.54-3.31-4.96-4.25-4.96s-18.42,1.18-20.55,1.18-13.46,1.42-13.46,1.42Z"/>
        <path class="cls-11" d="m217.56,230.05c-.82-1.44-1.28-3.04-1.39-3.45l-.73.85s-3.78,2.83-2.83,6.85c.59,2.51,3.5,3.36,6.05,3.58,1.44-3.39,2.45-5.95,2.45-5.95,0,0-2.6-.24-3.54-1.89Z"/>
        <line class="cls-6" x1="177.5" y1="225.19" x2="176.23" y2="221.54"/>
        <line class="cls-6" x1="187.33" y1="253.43" x2="178.61" y2="228.39"/>
      </g>
      <g>
        <path class="cls-10" d="m139.85,304.53h0c-5.79-4.79-6.47-13.42-1.51-19.06l96.84-111.11,14.8,12.26-91.13,115.84c-4.62,5.93-13.22,6.87-19.01,2.07Z"/>
        <path class="cls-6" d="m209.42,203.92l-71.07,81.54c-4.96,5.64-4.28,14.27,1.51,19.06,5.79,4.79,14.39,3.85,19.01-2.07l67.23-85.46-16.67-13.07Z"/>
        <path class="cls-10" d="m315.96,91.88c-25.99-21.52-64.5-17.9-86.02,8.09-21.52,25.99-17.9,64.5,8.09,86.02,25.99,21.52,64.5,17.9,86.02-8.09,21.52-25.99,17.9-64.5-8.09-86.02Zm-72.3,87.32c-22.24-18.41-25.34-51.37-6.92-73.6,18.41-22.24,51.37-25.34,73.6-6.92,22.24,18.41,25.34,51.37,6.92,73.6-18.41,22.24-51.37,25.34-73.6,6.92Z"/>
      </g>
      <g>
        <path class="cls-6" d="m221.1,231.94l8.97-14.17s3.31-6.38,4.25-7.56c.94-1.18,4.72-2.6,1.65-2.6s-4.02,1.89-4.02,1.89c0,0,0-3.57,0-4.99s0-4.93-1.88-4.69c-1.89.24-1.21,2.97-1.57,5.7-.16,1.19-1.5,6.58-1.5,6.58l-2.03-7.95c-.2-.79-.96-1.36-1.76-1.24-.38.06-.69.24-.69.68,0,1.18,1.18,6.38,1.18,6.38l-.73,3.96s-.97-6.25-2.45-7.91c-.65-.73-1.77.62-1.29,1.8s.69,7.82.69,7.82l-.24,2.83s-1.65-2.83-2.6-4.25c-.94-1.42-2.36-.71-1.65,1.42s2.36,5.67,2.36,5.67l-1.65,5.2s-2.6,8.03,4.96,5.43Z"/>
        <line class="cls-6" x1="231.97" y1="209.5" x2="230.31" y2="214.22"/>
      </g>
      <g>
        <path class="cls-11" d="m119.28,229.74s-5.64,1.48-5.64,3.85,0,51.49-.24,53.14c-.24,1.65,51.49-5.67,51.49-5.67l1.18-8.03-31.65-6.38-.24-22.67"/>
        <path class="cls-11" d="m160.87,271.98l-.23,9.55s.06.04.16.1c2.55-.35,4.09-.57,4.09-.57l1.18-8.03-5.2-1.05Z"/>
        <path class="cls-6" d="m166.07,273.03s6.61-8.5,9.45-8.5,7.09.24,8.03.24,3.07-.47,1.89,1.18c-1.18,1.65-5.2,1.42-5.2,1.42l5.26,2.87c1.54.84,1.91,2.94.68,4.18-.01.01-.02.02-.04.04-1.18,1.18-4.25,1.18-4.25,1.18,0,0-3.31,5.43-5.43,5.9-2.13.47-11.1-1.65-11.1-1.65l.71-6.85Z"/>
      </g>
      <polygon class="cls-11" points="160.53 229.72 161.14 214.24 155.11 212.23 156.11 218.46 160.53 229.72"/>
      <polygon class="cls-11" points="161.14 214.24 165.56 223.29 160.94 222.88 161.14 214.24"/>
      <g>
        <g>
          <path class="cls-6" d="m163.95,202.39c-2.01.6-6.84,12.26-6.84,12.26l3.42,15.07-5.42-7.63-1.49-7.35-12.79-5.31.2-8.45s-1.48-.77-3.33-2.12c-1.93-1.41-4.26-3.45-5.71-5.92-2.82-4.82-6.83-12.25-.6-20.29,6.02-7.76,12.22-8.22,18.96-8.61.25,0,.49-.03.74-.04,0,0,7.84,4.83,8.04,7.24.2,2.41,1.21,5.83,3.42,7.24,2.21,1.41,5.22-.21,5.22,2.81s-2.42,5.03-2.42,5.03c0,0,2.01,9.25,3.01,12.26,1.01,3.01-2.41,3.21-4.41,3.82Z"/>
          <path class="cls-16" d="m157.99,178.73c.52.79.64,1.63.26,1.87-.37.24-1.09-.2-1.61-.99-.52-.79-.64-1.63-.26-1.87.37-.24,1.09.2,1.61.99Z"/>
          <path class="cls-1" d="m153.3,178.27s.2-3.42,3.42-3.42"/>
          <path class="cls-1" d="m162.54,190.33s-5.43,1.21-6.43-2.01"/>
        </g>
        <path class="cls-8" d="m149.28,171.24c1.8,1.8-4.83,6.23-5.83,8.24-1.01,2.01.8,5.22,1,6.63.2,1.41-4.62,5.42-4.62,5.42l-1.81,1.81,1.41,5.62s-.64,0-1.73-.1c-1.93-1.41-4.26-3.45-5.71-5.92-2.82-4.82-6.83-12.25-.6-20.29,6.02-7.76,12.22-8.22,18.96-8.61-1.17.79-2.65,1.14-3.49,1.97-1.2,1.2.6,3.41,2.42,5.22Z"/>
        <path class="cls-6" d="m142.25,192.34s-3.01-4.62-6.63-2.01c-3.62,2.61,3.02,8.64,4.22,9.65,1.2,1,5.02-2.81,5.02-2.81,0,0,2.01,3.22,6.03,3.82"/>
        <path class="cls-10" d="m145.86,167.62s-8.64,9.65-10.85,14.07c-2.21,4.42-3.82,9.65-3.82,9.65,0,0-4.42-.4-7.03-3.22-2.61-2.81.2-13.87,5.22-19.29,5.02-5.43,10.85-8.24,10.85-8.24,0,0-6.43.2-4.02-1.61,2.41-1.81,8.44-2.61,12.46-.6s2.41,5.63,2.41,5.63l-5.22,3.62Z"/>
      </g>
      <polygon class="cls-11" points="139.63 208.21 135.49 217 151.69 226.3 154.43 214.14 139.63 208.21"/>
    </g>
  </g>
</svg>