<?xml version="1.0" encoding="UTF-8"?>
<svg xmlns="http://www.w3.org/2000/svg" xmlns:xlink="http://www.w3.org/1999/xlink" viewBox="0 0 391.56 293.51">
  <defs>
    <style>
      .cls-1, .cls-2, .cls-3, .cls-4, .cls-5, .cls-6, .cls-7, .cls-8 {
        stroke: #454545;
      }

      .cls-1, .cls-2, .cls-3, .cls-8 {
        stroke-linecap: round;
        stroke-linejoin: round;
      }

      .cls-1, .cls-6, .cls-9 {
        fill: #41c7a8;
      }

      .cls-2, .cls-10, .cls-5, .cls-11, .cls-12, .cls-13 {
        fill: #fff;
      }

      .cls-3, .cls-7 {
        fill: none;
      }

      .cls-14 {
        clip-path: url(#clippath);
      }

      .cls-4, .cls-5, .cls-6, .cls-7 {
        stroke-miterlimit: 10;
      }

      .cls-11 {
        opacity: .5;
      }

      .cls-11, .cls-15, .cls-12, .cls-9, .cls-13 {
        stroke-width: 0px;
      }

      .cls-12 {
        opacity: .3;
      }
    </style>
    <clipPath id="clippath">
      <path class="cls-2" d="m222.77,187.01v-19.5h-58.68v19.5c0,6.36-2.2,12.54-6.23,17.53l-2.57,3.18h76.28l-2.57-3.18c-4.04-4.99-6.23-11.17-6.23-17.53Z"/>
    </clipPath>
  </defs>
  <g id="Device">
    <g>
      <g>
        <polygon class="cls-2" points="291.96 217.62 99.18 217.62 114.4 202.94 276.74 202.94 291.96 217.62"/>
        <g>
          <path class="cls-9" d="m270.54,208.6c0,3.02-34.91,5.47-77.97,5.47s-77.97-2.45-77.97-5.47,34.91-5.47,77.97-5.47,77.97,2.45,77.97,5.47Z"/>
          <path class="cls-11" d="m270.54,208.6c0,3.02-34.91,5.47-77.97,5.47s-77.97-2.45-77.97-5.47,34.91-5.47,77.97-5.47,77.97,2.45,77.97,5.47Z"/>
        </g>
        <rect class="cls-8" x="99.18" y="217.62" width="192.78" height="13.61"/>
        <polygon class="cls-2" points="305.6 245.91 85.54 245.91 99.18 231.23 291.96 231.23 305.6 245.91"/>
        <rect class="cls-8" x="85.58" y="245.91" width="219.98" height="14.32"/>
      </g>
      <g>
        <polyline class="cls-7" points="196.04 87.02 356.39 87.02 356.39 64.23 387.05 64.23"/>
        <polyline class="cls-7" points="188.18 86.24 35.69 86.24 35.69 61.87 2.68 61.87"/>
        <polyline class="cls-7" points="299.8 37.5 327.31 37.5 327.31 19.43 345.39 19.43 345.39 9.21 361.11 9.21"/>
        <polyline class="cls-7" points="80.49 43.79 51.41 43.79 51.41 21 10.54 21"/>
        <polyline class="cls-7" points="107.22 167.2 107.22 187.64 93.86 187.64 93.86 210.43 55.34 210.43"/>
        <polyline class="cls-7" points="254.21 170.35 254.21 191.57 284.86 191.57 284.86 182.92 293.51 182.92 293.51 201 320.24 201"/>
        <path class="cls-8" d="m12.78,21c0,1.24-1,2.24-2.24,2.24s-2.24-1-2.24-2.24,1-2.24,2.24-2.24,2.24,1,2.24,2.24Z"/>
        <path class="cls-8" d="m4.98,61.8c0,1.24-1,2.24-2.24,2.24s-2.24-1-2.24-2.24,1-2.24,2.24-2.24,2.24,1,2.24,2.24Z"/>
        <path class="cls-8" d="m57.78,210c0,1.24-1,2.24-2.24,2.24s-2.24-1-2.24-2.24,1-2.24,2.24-2.24,2.24,1,2.24,2.24Z"/>
        <path class="cls-8" d="m323.62,200.56c0,1.24-1,2.24-2.24,2.24s-2.24-1-2.24-2.24,1-2.24,2.24-2.24,2.24,1,2.24,2.24Z"/>
        <path class="cls-8" d="m390.43,63.79c0,1.24-1,2.24-2.24,2.24s-2.24-1-2.24-2.24,1-2.24,2.24-2.24,2.24,1,2.24,2.24Z"/>
        <path class="cls-8" d="m364.41,8.73c0,1.24-1,2.24-2.24,2.24s-2.24-1-2.24-2.24,1-2.24,2.24-2.24,2.24,1,2.24,2.24Z"/>
      </g>
      <g>
        <g>
          <g>
            <path class="cls-10" d="m222.77,187.01v-19.5h-58.68v19.5c0,6.36-2.2,12.54-6.23,17.53l-2.57,3.18h76.28l-2.57-3.18c-4.04-4.99-6.23-11.17-6.23-17.53Z"/>
            <g class="cls-14">
              <path class="cls-9" d="m160.5,200.67h65.88c-2.35-4.16-3.6-8.86-3.6-13.66v-19.5h-58.68v19.5c0,4.8-1.25,9.5-3.6,13.66Z"/>
              <path class="cls-12" d="m160.5,200.67h65.88c-2.35-4.16-3.6-8.86-3.6-13.66v-19.5h-58.68v19.5c0,4.8-1.25,9.5-3.6,13.66Z"/>
              <path class="cls-15" d="m160.5,180.11h65.88c-2.35-4.16-3.6-8.86-3.6-13.66v-19.5h-58.68v19.5c0,4.8-1.25,9.5-3.6,13.66Z"/>
            </g>
            <path class="cls-3" d="m222.77,187.01v-19.5h-58.68v19.5c0,6.36-2.2,12.54-6.23,17.53l-2.57,3.18h76.28l-2.57-3.18c-4.04-4.99-6.23-11.17-6.23-17.53Z"/>
          </g>
          <rect class="cls-8" x="75.53" y=".5" width="235.82" height="173.15" rx="8.48" ry="8.48"/>
          <path class="cls-2" d="m75.53,146.74h235.82v18.43c0,4.68-3.8,8.48-8.48,8.48H84.01c-4.68,0-8.48-3.8-8.48-8.48v-18.43h0Z"/>
          <rect class="cls-2" x="87.39" y="11.27" width="212.09" height="122.33"/>
          <path class="cls-8" d="m197.79,164.45c0-2.35-1.95-4.26-4.35-4.26s-4.35,1.91-4.35,4.26,1.95,4.26,4.35,4.26,4.35-1.91,4.35-4.26Z"/>
          <rect class="cls-2" x="155.3" y="207.72" width="76.29" height="3.48"/>
        </g>
        <g>
          <path class="cls-1" d="m193.76,4.93c-10.67,9.95-37.98,19.98-69.81,41.28,0,0,1.99,71.97,69.81,111.32V4.93Z"/>
          <path class="cls-8" d="m193.76,4.93c10.67,9.95,37.98,19.98,69.81,41.28,0,0-1.99,71.97-69.81,111.32V4.93Z"/>
          <path class="cls-8" d="m193.76,11.06c-12.88,8.94-35.19,17.46-64.69,37.19,0,0,1.84,66.7,64.69,103.15,62.85-36.46,64.69-103.15,64.69-103.15-29.5-19.74-51.72-28.25-64.69-37.19Z"/>
          <path class="cls-1" d="m258.46,48.25c-29.5-19.74-51.72-28.25-64.69-37.19v140.34c62.85-36.46,64.69-103.15,64.69-103.15Z"/>
          <g>
            <rect class="cls-8" x="74.8" y="83.56" width="237.28" height="15.36"/>
            <g>
              <g>
                <g>
                  <path class="cls-13" d="m79.47,85.99c0,.86-.71,1.56-1.59,1.56s-1.59-.7-1.59-1.56.71-1.56,1.59-1.56,1.59.7,1.59,1.56Z"/>
                  <path class="cls-15" d="m76.97,86.86c.23.24.56.39.92.39.71,0,1.28-.56,1.28-1.25,0-.31-.13-.59-.32-.81-.67.51-1.36,1.16-1.87,1.67Z"/>
                </g>
                <g>
                  <path class="cls-13" d="m85.71,85.99c0,.86-.71,1.56-1.59,1.56s-1.59-.7-1.59-1.56.71-1.56,1.59-1.56,1.59.7,1.59,1.56Z"/>
                  <path class="cls-15" d="m83.2,86.86c.23.24.56.39.92.39.71,0,1.28-.56,1.28-1.25,0-.31-.13-.59-.32-.81-.67.51-1.36,1.16-1.87,1.67Z"/>
                </g>
                <g>
                  <path class="cls-13" d="m91.94,85.99c0,.86-.71,1.56-1.59,1.56s-1.59-.7-1.59-1.56.71-1.56,1.59-1.56,1.59.7,1.59,1.56Z"/>
                  <path class="cls-15" d="m89.43,86.86c.23.24.56.39.92.39.71,0,1.28-.56,1.28-1.25,0-.31-.13-.59-.32-.81-.67.51-1.36,1.16-1.87,1.67Z"/>
                </g>
                <g>
                  <path class="cls-13" d="m98.17,85.99c0,.86-.71,1.56-1.59,1.56s-1.59-.7-1.59-1.56.71-1.56,1.59-1.56,1.59.7,1.59,1.56Z"/>
                  <path class="cls-15" d="m95.66,86.86c.23.24.56.39.92.39.71,0,1.28-.56,1.28-1.25,0-.31-.13-.59-.32-.81-.67.51-1.36,1.16-1.87,1.67Z"/>
                </g>
                <g>
                  <path class="cls-13" d="m104.4,85.99c0,.86-.71,1.56-1.59,1.56s-1.59-.7-1.59-1.56.71-1.56,1.59-1.56,1.59.7,1.59,1.56Z"/>
                  <path class="cls-15" d="m101.89,86.86c.23.24.56.39.92.39.71,0,1.28-.56,1.28-1.25,0-.31-.13-.59-.32-.81-.67.51-1.36,1.16-1.87,1.67Z"/>
                </g>
                <g>
                  <path class="cls-13" d="m110.63,85.99c0,.86-.71,1.56-1.59,1.56s-1.59-.7-1.59-1.56.71-1.56,1.59-1.56,1.59.7,1.59,1.56Z"/>
                  <path class="cls-15" d="m108.13,86.86c.23.24.56.39.92.39.71,0,1.28-.56,1.28-1.25,0-.31-.13-.59-.32-.81-.67.51-1.36,1.16-1.87,1.67Z"/>
                </g>
                <g>
                  <path class="cls-13" d="m116.87,85.99c0,.86-.71,1.56-1.59,1.56s-1.59-.7-1.59-1.56.71-1.56,1.59-1.56,1.59.7,1.59,1.56Z"/>
                  <path class="cls-15" d="m114.36,86.86c.23.24.56.39.92.39.71,0,1.28-.56,1.28-1.25,0-.31-.13-.59-.32-.81-.67.51-1.36,1.16-1.87,1.67Z"/>
                </g>
                <g>
                  <path class="cls-13" d="m123.1,85.99c0,.86-.71,1.56-1.59,1.56s-1.59-.7-1.59-1.56.71-1.56,1.59-1.56,1.59.7,1.59,1.56Z"/>
                  <path class="cls-15" d="m120.59,86.86c.23.24.56.39.92.39.71,0,1.28-.56,1.28-1.25,0-.31-.13-.59-.32-.81-.67.51-1.36,1.16-1.87,1.67Z"/>
                </g>
                <g>
                  <path class="cls-13" d="m129.33,85.99c0,.86-.71,1.56-1.59,1.56s-1.59-.7-1.59-1.56.71-1.56,1.59-1.56,1.59.7,1.59,1.56Z"/>
                  <path class="cls-15" d="m126.82,86.86c.23.24.56.39.92.39.71,0,1.28-.56,1.28-1.25,0-.31-.13-.59-.32-.81-.67.51-1.36,1.16-1.87,1.67Z"/>
                </g>
                <g>
                  <path class="cls-13" d="m135.56,85.99c0,.86-.71,1.56-1.59,1.56s-1.59-.7-1.59-1.56.71-1.56,1.59-1.56,1.59.7,1.59,1.56Z"/>
                  <path class="cls-15" d="m133.05,86.86c.23.24.56.39.92.39.71,0,1.28-.56,1.28-1.25,0-.31-.13-.59-.32-.81-.67.51-1.36,1.16-1.87,1.67Z"/>
                </g>
                <g>
                  <path class="cls-13" d="m141.79,85.99c0,.86-.71,1.56-1.59,1.56s-1.59-.7-1.59-1.56.71-1.56,1.59-1.56,1.59.7,1.59,1.56Z"/>
                  <path class="cls-15" d="m139.29,86.86c.23.24.56.39.92.39.71,0,1.28-.56,1.28-1.25,0-.31-.13-.59-.32-.81-.67.51-1.36,1.16-1.87,1.67Z"/>
                </g>
                <g>
                  <path class="cls-13" d="m148.03,85.99c0,.86-.71,1.56-1.59,1.56s-1.59-.7-1.59-1.56.71-1.56,1.59-1.56,1.59.7,1.59,1.56Z"/>
                  <path class="cls-15" d="m145.52,86.86c.23.24.56.39.92.39.71,0,1.28-.56,1.28-1.25,0-.31-.13-.59-.32-.81-.67.51-1.36,1.16-1.87,1.67Z"/>
                </g>
                <g>
                  <path class="cls-13" d="m154.26,85.99c0,.86-.71,1.56-1.59,1.56s-1.59-.7-1.59-1.56.71-1.56,1.59-1.56,1.59.7,1.59,1.56Z"/>
                  <path class="cls-15" d="m151.75,86.86c.23.24.56.39.92.39.71,0,1.28-.56,1.28-1.25,0-.31-.13-.59-.32-.81-.67.51-1.36,1.16-1.87,1.67Z"/>
                </g>
                <g>
                  <path class="cls-13" d="m160.49,85.99c0,.86-.71,1.56-1.59,1.56s-1.59-.7-1.59-1.56.71-1.56,1.59-1.56,1.59.7,1.59,1.56Z"/>
                  <path class="cls-15" d="m157.98,86.86c.23.24.56.39.92.39.71,0,1.28-.56,1.28-1.25,0-.31-.13-.59-.32-.81-.67.51-1.36,1.16-1.87,1.67Z"/>
                </g>
              </g>
              <g>
                <g>
                  <path class="cls-13" d="m79.47,95.91c0,.86-.71,1.56-1.59,1.56s-1.59-.7-1.59-1.56.71-1.56,1.59-1.56,1.59.7,1.59,1.56Z"/>
                  <path class="cls-15" d="m76.97,96.78c.23.24.56.39.92.39.71,0,1.28-.56,1.28-1.25,0-.31-.13-.59-.32-.81-.67.51-1.36,1.16-1.87,1.67Z"/>
                </g>
                <g>
                  <path class="cls-13" d="m85.71,95.91c0,.86-.71,1.56-1.59,1.56s-1.59-.7-1.59-1.56.71-1.56,1.59-1.56,1.59.7,1.59,1.56Z"/>
                  <path class="cls-15" d="m83.2,96.78c.23.24.56.39.92.39.71,0,1.28-.56,1.28-1.25,0-.31-.13-.59-.32-.81-.67.51-1.36,1.16-1.87,1.67Z"/>
                </g>
                <g>
                  <path class="cls-13" d="m91.94,95.91c0,.86-.71,1.56-1.59,1.56s-1.59-.7-1.59-1.56.71-1.56,1.59-1.56,1.59.7,1.59,1.56Z"/>
                  <path class="cls-15" d="m89.43,96.78c.23.24.56.39.92.39.71,0,1.28-.56,1.28-1.25,0-.31-.13-.59-.32-.81-.67.51-1.36,1.16-1.87,1.67Z"/>
                </g>
                <g>
                  <path class="cls-13" d="m98.17,95.91c0,.86-.71,1.56-1.59,1.56s-1.59-.7-1.59-1.56.71-1.56,1.59-1.56,1.59.7,1.59,1.56Z"/>
                  <path class="cls-15" d="m95.66,96.78c.23.24.56.39.92.39.71,0,1.28-.56,1.28-1.25,0-.31-.13-.59-.32-.81-.67.51-1.36,1.16-1.87,1.67Z"/>
                </g>
                <g>
                  <path class="cls-13" d="m104.4,95.91c0,.86-.71,1.56-1.59,1.56s-1.59-.7-1.59-1.56.71-1.56,1.59-1.56,1.59.7,1.59,1.56Z"/>
                  <path class="cls-15" d="m101.89,96.78c.23.24.56.39.92.39.71,0,1.28-.56,1.28-1.25,0-.31-.13-.59-.32-.81-.67.51-1.36,1.16-1.87,1.67Z"/>
                </g>
                <g>
                  <path class="cls-13" d="m110.63,95.91c0,.86-.71,1.56-1.59,1.56s-1.59-.7-1.59-1.56.71-1.56,1.59-1.56,1.59.7,1.59,1.56Z"/>
                  <path class="cls-15" d="m108.13,96.78c.23.24.56.39.92.39.71,0,1.28-.56,1.28-1.25,0-.31-.13-.59-.32-.81-.67.51-1.36,1.16-1.87,1.67Z"/>
                </g>
                <g>
                  <path class="cls-13" d="m116.87,95.91c0,.86-.71,1.56-1.59,1.56s-1.59-.7-1.59-1.56.71-1.56,1.59-1.56,1.59.7,1.59,1.56Z"/>
                  <path class="cls-15" d="m114.36,96.78c.23.24.56.39.92.39.71,0,1.28-.56,1.28-1.25,0-.31-.13-.59-.32-.81-.67.51-1.36,1.16-1.87,1.67Z"/>
                </g>
                <g>
                  <path class="cls-13" d="m123.1,95.91c0,.86-.71,1.56-1.59,1.56s-1.59-.7-1.59-1.56.71-1.56,1.59-1.56,1.59.7,1.59,1.56Z"/>
                  <path class="cls-15" d="m120.59,96.78c.23.24.56.39.92.39.71,0,1.28-.56,1.28-1.25,0-.31-.13-.59-.32-.81-.67.51-1.36,1.16-1.87,1.67Z"/>
                </g>
                <g>
                  <path class="cls-13" d="m129.33,95.91c0,.86-.71,1.56-1.59,1.56s-1.59-.7-1.59-1.56.71-1.56,1.59-1.56,1.59.7,1.59,1.56Z"/>
                  <path class="cls-15" d="m126.82,96.78c.23.24.56.39.92.39.71,0,1.28-.56,1.28-1.25,0-.31-.13-.59-.32-.81-.67.51-1.36,1.16-1.87,1.67Z"/>
                </g>
                <g>
                  <path class="cls-13" d="m135.56,95.91c0,.86-.71,1.56-1.59,1.56s-1.59-.7-1.59-1.56.71-1.56,1.59-1.56,1.59.7,1.59,1.56Z"/>
                  <path class="cls-15" d="m133.05,96.78c.23.24.56.39.92.39.71,0,1.28-.56,1.28-1.25,0-.31-.13-.59-.32-.81-.67.51-1.36,1.16-1.87,1.67Z"/>
                </g>
                <g>
                  <path class="cls-13" d="m141.79,95.91c0,.86-.71,1.56-1.59,1.56s-1.59-.7-1.59-1.56.71-1.56,1.59-1.56,1.59.7,1.59,1.56Z"/>
                  <path class="cls-15" d="m139.29,96.78c.23.24.56.39.92.39.71,0,1.28-.56,1.28-1.25,0-.31-.13-.59-.32-.81-.67.51-1.36,1.16-1.87,1.67Z"/>
                </g>
                <g>
                  <path class="cls-13" d="m148.03,95.91c0,.86-.71,1.56-1.59,1.56s-1.59-.7-1.59-1.56.71-1.56,1.59-1.56,1.59.7,1.59,1.56Z"/>
                  <path class="cls-15" d="m145.52,96.78c.23.24.56.39.92.39.71,0,1.28-.56,1.28-1.25,0-.31-.13-.59-.32-.81-.67.51-1.36,1.16-1.87,1.67Z"/>
                </g>
                <g>
                  <path class="cls-13" d="m154.26,95.91c0,.86-.71,1.56-1.59,1.56s-1.59-.7-1.59-1.56.71-1.56,1.59-1.56,1.59.7,1.59,1.56Z"/>
                  <path class="cls-15" d="m151.75,96.78c.23.24.56.39.92.39.71,0,1.28-.56,1.28-1.25,0-.31-.13-.59-.32-.81-.67.51-1.36,1.16-1.87,1.67Z"/>
                </g>
                <g>
                  <path class="cls-13" d="m160.49,95.91c0,.86-.71,1.56-1.59,1.56s-1.59-.7-1.59-1.56.71-1.56,1.59-1.56,1.59.7,1.59,1.56Z"/>
                  <path class="cls-15" d="m157.98,96.78c.23.24.56.39.92.39.71,0,1.28-.56,1.28-1.25,0-.31-.13-.59-.32-.81-.67.51-1.36,1.16-1.87,1.67Z"/>
                </g>
              </g>
              <g>
                <g>
                  <path class="cls-13" d="m229.54,85.99c0,.86-.71,1.56-1.59,1.56s-1.59-.7-1.59-1.56.71-1.56,1.59-1.56,1.59.7,1.59,1.56Z"/>
                  <path class="cls-15" d="m227.04,86.86c.23.24.56.39.92.39.71,0,1.28-.56,1.28-1.25,0-.31-.13-.59-.32-.81-.67.51-1.36,1.16-1.87,1.67Z"/>
                </g>
                <g>
                  <path class="cls-13" d="m235.78,85.99c0,.86-.71,1.56-1.59,1.56s-1.59-.7-1.59-1.56.71-1.56,1.59-1.56,1.59.7,1.59,1.56Z"/>
                  <path class="cls-15" d="m233.27,86.86c.23.24.56.39.92.39.71,0,1.28-.56,1.28-1.25,0-.31-.13-.59-.32-.81-.67.51-1.36,1.16-1.87,1.67Z"/>
                </g>
                <g>
                  <path class="cls-13" d="m242.01,85.99c0,.86-.71,1.56-1.59,1.56s-1.59-.7-1.59-1.56.71-1.56,1.59-1.56,1.59.7,1.59,1.56Z"/>
                  <path class="cls-15" d="m239.5,86.86c.23.24.56.39.92.39.71,0,1.28-.56,1.28-1.25,0-.31-.13-.59-.32-.81-.67.51-1.36,1.16-1.87,1.67Z"/>
                </g>
                <g>
                  <path class="cls-13" d="m248.24,85.99c0,.86-.71,1.56-1.59,1.56s-1.59-.7-1.59-1.56.71-1.56,1.59-1.56,1.59.7,1.59,1.56Z"/>
                  <path class="cls-15" d="m245.73,86.86c.23.24.56.39.92.39.71,0,1.28-.56,1.28-1.25,0-.31-.13-.59-.32-.81-.67.51-1.36,1.16-1.87,1.67Z"/>
                </g>
                <g>
                  <path class="cls-13" d="m254.47,85.99c0,.86-.71,1.56-1.59,1.56s-1.59-.7-1.59-1.56.71-1.56,1.59-1.56,1.59.7,1.59,1.56Z"/>
                  <path class="cls-15" d="m251.96,86.86c.23.24.56.39.92.39.71,0,1.28-.56,1.28-1.25,0-.31-.13-.59-.32-.81-.67.51-1.36,1.16-1.87,1.67Z"/>
                </g>
                <g>
                  <path class="cls-13" d="m260.7,85.99c0,.86-.71,1.56-1.59,1.56s-1.59-.7-1.59-1.56.71-1.56,1.59-1.56,1.59.7,1.59,1.56Z"/>
                  <path class="cls-15" d="m258.2,86.86c.23.24.56.39.92.39.71,0,1.28-.56,1.28-1.25,0-.31-.13-.59-.32-.81-.67.51-1.36,1.16-1.87,1.67Z"/>
                </g>
                <g>
                  <path class="cls-13" d="m266.94,85.99c0,.86-.71,1.56-1.59,1.56s-1.59-.7-1.59-1.56.71-1.56,1.59-1.56,1.59.7,1.59,1.56Z"/>
                  <path class="cls-15" d="m264.43,86.86c.23.24.56.39.92.39.71,0,1.28-.56,1.28-1.25,0-.31-.13-.59-.32-.81-.67.51-1.36,1.16-1.87,1.67Z"/>
                </g>
                <g>
                  <path class="cls-13" d="m273.17,85.99c0,.86-.71,1.56-1.59,1.56s-1.59-.7-1.59-1.56.71-1.56,1.59-1.56,1.59.7,1.59,1.56Z"/>
                  <path class="cls-15" d="m270.66,86.86c.23.24.56.39.92.39.71,0,1.28-.56,1.28-1.25,0-.31-.13-.59-.32-.81-.67.51-1.36,1.16-1.87,1.67Z"/>
                </g>
                <g>
                  <path class="cls-13" d="m279.4,85.99c0,.86-.71,1.56-1.59,1.56s-1.59-.7-1.59-1.56.71-1.56,1.59-1.56,1.59.7,1.59,1.56Z"/>
                  <path class="cls-15" d="m276.89,86.86c.23.24.56.39.92.39.71,0,1.28-.56,1.28-1.25,0-.31-.13-.59-.32-.81-.67.51-1.36,1.16-1.87,1.67Z"/>
                </g>
                <g>
                  <path class="cls-13" d="m285.63,85.99c0,.86-.71,1.56-1.59,1.56s-1.59-.7-1.59-1.56.71-1.56,1.59-1.56,1.59.7,1.59,1.56Z"/>
                  <path class="cls-15" d="m283.13,86.86c.23.24.56.39.92.39.71,0,1.28-.56,1.28-1.25,0-.31-.13-.59-.32-.81-.67.51-1.36,1.16-1.87,1.67Z"/>
                </g>
                <g>
                  <path class="cls-13" d="m291.87,85.99c0,.86-.71,1.56-1.59,1.56s-1.59-.7-1.59-1.56.71-1.56,1.59-1.56,1.59.7,1.59,1.56Z"/>
                  <path class="cls-15" d="m289.36,86.86c.23.24.56.39.92.39.71,0,1.28-.56,1.28-1.25,0-.31-.13-.59-.32-.81-.67.51-1.36,1.16-1.87,1.67Z"/>
                </g>
                <g>
                  <path class="cls-13" d="m298.1,85.99c0,.86-.71,1.56-1.59,1.56s-1.59-.7-1.59-1.56.71-1.56,1.59-1.56,1.59.7,1.59,1.56Z"/>
                  <path class="cls-15" d="m295.59,86.86c.23.24.56.39.92.39.71,0,1.28-.56,1.28-1.25,0-.31-.13-.59-.32-.81-.67.51-1.36,1.16-1.87,1.67Z"/>
                </g>
                <g>
                  <path class="cls-13" d="m304.33,85.99c0,.86-.71,1.56-1.59,1.56s-1.59-.7-1.59-1.56.71-1.56,1.59-1.56,1.59.7,1.59,1.56Z"/>
                  <path class="cls-15" d="m301.82,86.86c.23.24.56.39.92.39.71,0,1.28-.56,1.28-1.25,0-.31-.13-.59-.32-.81-.67.51-1.36,1.16-1.87,1.67Z"/>
                </g>
                <g>
                  <path class="cls-13" d="m310.56,85.99c0,.86-.71,1.56-1.59,1.56s-1.59-.7-1.59-1.56.71-1.56,1.59-1.56,1.59.7,1.59,1.56Z"/>
                  <path class="cls-15" d="m308.05,86.86c.23.24.56.39.92.39.71,0,1.28-.56,1.28-1.25,0-.31-.13-.59-.32-.81-.67.51-1.36,1.16-1.87,1.67Z"/>
                </g>
              </g>
              <g>
                <g>
                  <path class="cls-13" d="m229.54,95.91c0,.86-.71,1.56-1.59,1.56s-1.59-.7-1.59-1.56.71-1.56,1.59-1.56,1.59.7,1.59,1.56Z"/>
                  <path class="cls-15" d="m227.04,96.78c.23.24.56.39.92.39.71,0,1.28-.56,1.28-1.25,0-.31-.13-.59-.32-.81-.67.51-1.36,1.16-1.87,1.67Z"/>
                </g>
                <g>
                  <path class="cls-13" d="m235.78,95.91c0,.86-.71,1.56-1.59,1.56s-1.59-.7-1.59-1.56.71-1.56,1.59-1.56,1.59.7,1.59,1.56Z"/>
                  <path class="cls-15" d="m233.27,96.78c.23.24.56.39.92.39.71,0,1.28-.56,1.28-1.25,0-.31-.13-.59-.32-.81-.67.51-1.36,1.16-1.87,1.67Z"/>
                </g>
                <g>
                  <path class="cls-13" d="m242.01,95.91c0,.86-.71,1.56-1.59,1.56s-1.59-.7-1.59-1.56.71-1.56,1.59-1.56,1.59.7,1.59,1.56Z"/>
                  <path class="cls-15" d="m239.5,96.78c.23.24.56.39.92.39.71,0,1.28-.56,1.28-1.25,0-.31-.13-.59-.32-.81-.67.51-1.36,1.16-1.87,1.67Z"/>
                </g>
                <g>
                  <path class="cls-13" d="m248.24,95.91c0,.86-.71,1.56-1.59,1.56s-1.59-.7-1.59-1.56.71-1.56,1.59-1.56,1.59.7,1.59,1.56Z"/>
                  <path class="cls-15" d="m245.73,96.78c.23.24.56.39.92.39.71,0,1.28-.56,1.28-1.25,0-.31-.13-.59-.32-.81-.67.51-1.36,1.16-1.87,1.67Z"/>
                </g>
                <g>
                  <path class="cls-13" d="m254.47,95.91c0,.86-.71,1.56-1.59,1.56s-1.59-.7-1.59-1.56.71-1.56,1.59-1.56,1.59.7,1.59,1.56Z"/>
                  <path class="cls-15" d="m251.96,96.78c.23.24.56.39.92.39.71,0,1.28-.56,1.28-1.25,0-.31-.13-.59-.32-.81-.67.51-1.36,1.16-1.87,1.67Z"/>
                </g>
                <g>
                  <path class="cls-13" d="m260.7,95.91c0,.86-.71,1.56-1.59,1.56s-1.59-.7-1.59-1.56.71-1.56,1.59-1.56,1.59.7,1.59,1.56Z"/>
                  <path class="cls-15" d="m258.2,96.78c.23.24.56.39.92.39.71,0,1.28-.56,1.28-1.25,0-.31-.13-.59-.32-.81-.67.51-1.36,1.16-1.87,1.67Z"/>
                </g>
                <g>
                  <path class="cls-13" d="m266.94,95.91c0,.86-.71,1.56-1.59,1.56s-1.59-.7-1.59-1.56.71-1.56,1.59-1.56,1.59.7,1.59,1.56Z"/>
                  <path class="cls-15" d="m264.43,96.78c.23.24.56.39.92.39.71,0,1.28-.56,1.28-1.25,0-.31-.13-.59-.32-.81-.67.51-1.36,1.16-1.87,1.67Z"/>
                </g>
                <g>
                  <path class="cls-13" d="m273.17,95.91c0,.86-.71,1.56-1.59,1.56s-1.59-.7-1.59-1.56.71-1.56,1.59-1.56,1.59.7,1.59,1.56Z"/>
                  <path class="cls-15" d="m270.66,96.78c.23.24.56.39.92.39.71,0,1.28-.56,1.28-1.25,0-.31-.13-.59-.32-.81-.67.51-1.36,1.16-1.87,1.67Z"/>
                </g>
                <g>
                  <path class="cls-13" d="m279.4,95.91c0,.86-.71,1.56-1.59,1.56s-1.59-.7-1.59-1.56.71-1.56,1.59-1.56,1.59.7,1.59,1.56Z"/>
                  <path class="cls-15" d="m276.89,96.78c.23.24.56.39.92.39.71,0,1.28-.56,1.28-1.25,0-.31-.13-.59-.32-.81-.67.51-1.36,1.16-1.87,1.67Z"/>
                </g>
                <g>
                  <path class="cls-13" d="m285.63,95.91c0,.86-.71,1.56-1.59,1.56s-1.59-.7-1.59-1.56.71-1.56,1.59-1.56,1.59.7,1.59,1.56Z"/>
                  <path class="cls-15" d="m283.13,96.78c.23.24.56.39.92.39.71,0,1.28-.56,1.28-1.25,0-.31-.13-.59-.32-.81-.67.51-1.36,1.16-1.87,1.67Z"/>
                </g>
                <g>
                  <path class="cls-13" d="m291.87,95.91c0,.86-.71,1.56-1.59,1.56s-1.59-.7-1.59-1.56.71-1.56,1.59-1.56,1.59.7,1.59,1.56Z"/>
                  <path class="cls-15" d="m289.36,96.78c.23.24.56.39.92.39.71,0,1.28-.56,1.28-1.25,0-.31-.13-.59-.32-.81-.67.51-1.36,1.16-1.87,1.67Z"/>
                </g>
                <g>
                  <path class="cls-13" d="m298.1,95.91c0,.86-.71,1.56-1.59,1.56s-1.59-.7-1.59-1.56.71-1.56,1.59-1.56,1.59.7,1.59,1.56Z"/>
                  <path class="cls-15" d="m295.59,96.78c.23.24.56.39.92.39.71,0,1.28-.56,1.28-1.25,0-.31-.13-.59-.32-.81-.67.51-1.36,1.16-1.87,1.67Z"/>
                </g>
                <g>
                  <path class="cls-13" d="m304.33,95.91c0,.86-.71,1.56-1.59,1.56s-1.59-.7-1.59-1.56.71-1.56,1.59-1.56,1.59.7,1.59,1.56Z"/>
                  <path class="cls-15" d="m301.82,96.78c.23.24.56.39.92.39.71,0,1.28-.56,1.28-1.25,0-.31-.13-.59-.32-.81-.67.51-1.36,1.16-1.87,1.67Z"/>
                </g>
                <g>
                  <path class="cls-13" d="m310.56,95.91c0,.86-.71,1.56-1.59,1.56s-1.59-.7-1.59-1.56.71-1.56,1.59-1.56,1.59.7,1.59,1.56Z"/>
                  <path class="cls-15" d="m308.05,96.78c.23.24.56.39.92.39.71,0,1.28-.56,1.28-1.25,0-.31-.13-.59-.32-.81-.67.51-1.36,1.16-1.87,1.67Z"/>
                </g>
              </g>
            </g>
          </g>
          <g>
            <path class="cls-2" d="m218.27,78.31h-48.21c-2.21,0-4.01-1.76-4.01-3.92v-22.23c0-15.18,12.61-27.52,28.11-27.52s28.11,12.35,28.11,27.52v22.23c0,2.17-1.79,3.92-4.01,3.92Zm-44.21-7.85h40.2v-18.31c0-10.85-9.02-19.68-20.1-19.68s-20.1,8.83-20.1,19.68v18.31Z"/>
            <rect class="cls-1" x="163.07" y="67.59" width="61.38" height="50.78"/>
            <path class="cls-8" d="m200.15,88.68c0-3.61-2.99-6.54-6.68-6.54s-6.68,2.93-6.68,6.54c0,2.49,1.42,4.65,3.51,5.76l-1.12,11.53h8.59l-1.12-11.53c2.09-1.11,3.51-3.27,3.51-5.76Z"/>
          </g>
        </g>
      </g>
    </g>
  </g>
  <g id="Character_1" data-name="Character 1">
    <g>
      <g>
        <ellipse class="cls-9" cx="54.36" cy="283.01" rx="47.5" ry="10.5"/>
        <ellipse class="cls-11" cx="54.36" cy="283.01" rx="47.5" ry="10.5"/>
      </g>
      <g>
        <path class="cls-6" d="m29.68,272.27s-11.52,6.48-11.52,9.6,7.11,1.2,11.77-.96c4.66-2.16,8.33-3.84,8.33-8.16s-8.58-.48-8.58-.48Z"/>
        <path class="cls-6" d="m84.83,272.27s11.52,6.48,11.52,9.6-7.11,1.2-11.77-.96c-4.66-2.16-8.33-3.84-8.33-8.16s8.58-.48,8.58-.48Z"/>
        <path class="cls-4" d="m34.34,166.2l-4.9,107.27s2.21,1.92,4.9,1.44c2.7-.48,3.92-2.16,3.92-2.16l16.67-87.59h3.43l17.65,89.27s1.72.96,3.43.96,4.41-2.16,4.41-2.16l-5.64-107.03h-43.88Z"/>
        <polygon class="cls-6" points="51.5 101.16 29.19 110.28 35.07 162.12 77.72 162.12 85.57 108.36 61.3 100.68 51.5 101.16"/>
        <rect class="cls-4" x="34.34" y="161.16" width="43.88" height="5.04"/>
        <path class="cls-4" d="m33.6,165.24l-7.6,3.12s-.25,3.6.49,6.48c.74,2.88,1.72,9.12,2.45,10.32.74,1.2,4.41,3.6,4.9,2.88.49-.72,2.94-21.84,2.94-21.84l-3.19-.96Z"/>
        <polygon class="cls-5" points="50.74 90 50.74 98.74 57.13 105.37 63.64 98.62 63.64 89.87 50.74 90"/>
        <path class="cls-5" d="m46.28,81.87s-1.15-2.62-1.91-1c-.77,1.62.13,4.12,1.28,5.12,1.15,1,2.94.75,2.94.75l-.64-3.75-1.66-1.12Z"/>
        <path class="cls-5" d="m67.08,81.87s1.15-2.62,1.91-1c.77,1.62-.13,4.12-1.28,5.12-1.15,1-2.94.75-2.94.75l.64-3.75,1.66-1.12Z"/>
        <path class="cls-4" d="m48.45,64.5s-5.36,2.25-5.36,6,.77,8,2.04,9.62c1.28,1.62,2.3,2.75,2.3,2.75l.26-5.37,3.7-6.37s6.13,3.87,9.19,3.87,5.11-.37,5.11-.37l1.15,6.37,1.66-4.62v-4.25s3.06-2.87,2.43-4.75c-.64-1.87-10.98-7.75-17.36-6.25-6.38,1.5-5.11,3.37-5.11,3.37Z"/>
        <path class="cls-5" d="m45.89,77.12s1.53,9.37,2.81,11.87c1.28,2.5,5.23,6.87,6.13,7.5.89.62,4.21.12,5.49.12s4.98-7.5,5.62-8.87c.64-1.37,1.02-13.12,1.02-13.12l-1.15-2.12s-5.49,1.37-9.83-.38c-4.34-1.75-6.13-4.12-6.13-4.12,0,0-.38,4.25-1.91,6.75-1.53,2.5-2.04,2.37-2.04,2.37Z"/>
        <path class="cls-4" d="m55.72,78.12s-2.17-1.25-4.98-1.25-4.34.87-4.34.87c0,0,0,4.25,1.4,5.87,1.4,1.62,5.49,1.12,6.64-.25,1.15-1.37,1.28-5.25,1.28-5.25Z"/>
        <path class="cls-4" d="m57.51,78.12s2.17-1.25,4.98-1.25,4.34.87,4.34.87c0,0,0,4.25-1.4,5.87-1.4,1.62-5.49,1.12-6.64-.25-1.15-1.37-1.28-5.25-1.28-5.25Z"/>
        <line class="cls-5" x1="55.72" y1="78.12" x2="57.51" y2="78.12"/>
        <polygon class="cls-4" points="53.95 108.6 56.64 112.92 52.23 150.12 57.62 158.04 62.28 149.4 58.6 112.44 61.79 107.4 57.13 105.37 53.95 108.6"/>
        <polygon class="cls-6" points="57.13 105.37 53.55 111.49 47.17 102.99 50.74 98.74 57.13 105.37"/>
        <polygon class="cls-6" points="57.13 105.37 61.47 112.12 66.7 102.49 63.64 98.62 57.13 105.37"/>
        <polygon class="cls-6" points="29.19 110.28 1.98 146.04 26 163.32 29.44 157.32 22.08 143.16 32.13 134.04 29.19 110.28"/>
        <path class="cls-5" d="m29.44,157.32l8.09-.24,6.13,5.52s0,1.2-.74,1.92c-.74.72-2.7.24-2.7.24,0,0-1.47,3.6-4.17,3.6s-10.05-5.04-10.05-5.04l3.43-6Z"/>
        <line class="cls-3" x1="27.47" y1="153.24" x2="23.31" y2="160.68"/>
        <line class="cls-3" x1="22.08" y1="143.16" x2="18.9" y2="135"/>
        <polygon class="cls-6" points="85.57 108.36 113.02 146.04 89 163.32 85.57 157.32 92.92 143.16 81.4 133.8 85.57 108.36"/>
        <path class="cls-5" d="m85.57,157.32l-8.09-.24-6.13,5.52s0,1.2.74,1.92c.74.72,2.7.24,2.7.24,0,0,1.47,3.6,4.17,3.6s10.05-5.04,10.05-5.04l-3.43-6Z"/>
        <line class="cls-3" x1="87.53" y1="153.24" x2="91.7" y2="160.68"/>
        <line class="cls-3" x1="92.92" y1="143.16" x2="96.11" y2="135"/>
        <polygon class="cls-6" points="48.47 119.88 33.44 119.88 33.44 125 40.96 127.88 48.47 124.68 48.47 119.88"/>
        <polygon class="cls-6" points="78.54 119.88 63.51 119.88 63.51 125 71.02 127.88 78.54 124.68 78.54 119.88"/>
      </g>
    </g>
  </g>
  <g id="Character_2" data-name="Character 2">
    <g>
      <g>
        <ellipse class="cls-9" cx="332.36" cy="283.01" rx="47.5" ry="10.5"/>
        <ellipse class="cls-11" cx="332.36" cy="283.01" rx="47.5" ry="10.5"/>
      </g>
      <g>
        <path class="cls-6" d="m307.52,272.27s-11.52,6.48-11.52,9.6,7.11,1.2,11.77-.96c4.66-2.16,8.33-3.84,8.33-8.16s-8.58-.48-8.58-.48Z"/>
        <path class="cls-6" d="m362.67,272.27s11.52,6.48,11.52,9.6-7.11,1.2-11.77-.96-8.33-3.84-8.33-8.16,8.58-.48,8.58-.48Z"/>
        <path class="cls-4" d="m312.18,166.2l-4.9,107.27s2.21,1.92,4.9,1.44c2.7-.48,3.92-2.16,3.92-2.16l16.67-87.59h3.43l17.65,89.27s1.72.96,3.43.96,4.41-2.16,4.41-2.16l-5.64-107.03h-43.88Z"/>
        <g>
          <polygon class="cls-6" points="329.33 101.16 307.03 110.28 312.91 162.12 355.56 162.12 363.41 108.36 339.14 100.68 329.33 101.16"/>
          <polygon class="cls-4" points="331.79 108.6 334.48 112.92 330.07 150.12 335.46 158.04 340.12 149.4 336.44 112.44 339.63 107.4 334.97 105.37 331.79 108.6"/>
          <polygon class="cls-6" points="334.97 105.37 331.39 111.49 325.01 102.99 328.58 98.74 334.97 105.37"/>
          <polygon class="cls-6" points="334.97 105.37 339.31 112.12 344.54 102.49 341.48 98.62 334.97 105.37"/>
          <polygon class="cls-6" points="326.31 119.88 311.28 119.88 311.28 125 318.79 127.88 326.31 124.68 326.31 119.88"/>
          <polygon class="cls-6" points="356.38 119.88 341.35 119.88 341.35 125 348.86 127.88 356.38 124.68 356.38 119.88"/>
        </g>
        <rect class="cls-4" x="312.18" y="161.16" width="43.88" height="5.04"/>
        <path class="cls-4" d="m311.44,165.24l-7.6,3.12s-.25,3.6.49,6.48,1.72,9.12,2.45,10.32c.74,1.2,4.41,3.6,4.9,2.88.49-.72,2.94-21.84,2.94-21.84l-3.19-.96Z"/>
        <polygon class="cls-5" points="328.58 90 328.58 98.74 334.97 105.37 341.48 98.62 341.48 89.87 328.58 90"/>
        <path class="cls-5" d="m324.12,81.87s-1.15-2.62-1.91-1c-.77,1.62.13,4.12,1.28,5.12,1.15,1,2.94.75,2.94.75l-.64-3.75-1.66-1.12Z"/>
        <path class="cls-5" d="m344.92,81.87s1.15-2.62,1.91-1c.77,1.62-.13,4.12-1.28,5.12-1.15,1-2.94.75-2.94.75l.64-3.75,1.66-1.12Z"/>
        <path class="cls-4" d="m326.29,64.5s-5.36,2.25-5.36,6,.77,8,2.04,9.62c1.28,1.62,2.3,2.75,2.3,2.75l.26-5.37,3.7-6.37s6.13,3.87,9.19,3.87,5.11-.37,5.11-.37l1.15,6.37,1.66-4.62v-4.25s3.06-2.87,2.43-4.75c-.64-1.87-10.98-7.75-17.36-6.25-6.38,1.5-5.11,3.37-5.11,3.37Z"/>
        <path class="cls-5" d="m323.73,77.12s1.53,9.37,2.81,11.87c1.28,2.5,5.23,6.87,6.13,7.5.89.62,4.21.12,5.49.12s4.98-7.5,5.62-8.87c.64-1.37,1.02-13.12,1.02-13.12l-1.15-2.12s-5.49,1.37-9.83-.38c-4.34-1.75-6.13-4.12-6.13-4.12,0,0-.38,4.25-1.91,6.75-1.53,2.5-2.04,2.37-2.04,2.37Z"/>
        <path class="cls-4" d="m333.56,78.12s-2.17-1.25-4.98-1.25-4.34.87-4.34.87c0,0,0,4.25,1.4,5.87,1.4,1.62,5.49,1.12,6.64-.25,1.15-1.37,1.28-5.25,1.28-5.25Z"/>
        <path class="cls-4" d="m335.35,78.12s2.17-1.25,4.98-1.25,4.34.87,4.34.87c0,0,0,4.25-1.4,5.87-1.4,1.62-5.49,1.12-6.64-.25-1.15-1.37-1.28-5.25-1.28-5.25Z"/>
        <line class="cls-5" x1="333.56" y1="78.12" x2="335.35" y2="78.12"/>
        <path class="cls-5" d="m307.27,157.32l8.09-.24,6.13,5.52s0,1.2-.74,1.92c-.74.72-2.7.24-2.7.24,0,0-1.47,3.6-4.17,3.6s-10.05-5.04-10.05-5.04l3.43-6Z"/>
        <g>
          <polygon class="cls-6" points="307.03 110.28 279.82 146.04 303.84 163.32 307.27 157.32 299.92 143.16 309.97 134.04 307.03 110.28"/>
          <line class="cls-3" x1="305.31" y1="153.24" x2="301.15" y2="160.68"/>
          <line class="cls-3" x1="299.92" y1="143.16" x2="296.73" y2="135"/>
        </g>
        <path class="cls-5" d="m363.41,157.32l-8.09-.24-6.13,5.52s0,1.2.74,1.92c.74.72,2.7.24,2.7.24,0,0,1.47,3.6,4.17,3.6s10.05-5.04,10.05-5.04l-3.43-6Z"/>
        <g>
          <polygon class="cls-6" points="363.41 108.36 390.86 146.04 366.84 163.32 363.41 157.32 370.76 143.16 359.24 133.8 363.41 108.36"/>
          <line class="cls-3" x1="365.37" y1="153.24" x2="369.53" y2="160.68"/>
          <line class="cls-3" x1="370.76" y1="143.16" x2="373.95" y2="135"/>
        </g>
      </g>
    </g>
  </g>
</svg>