<?xml version="1.0" encoding="UTF-8"?>
<svg id="Ebene_1" data-name="Ebene 1" xmlns="http://www.w3.org/2000/svg" xmlns:xlink="http://www.w3.org/1999/xlink" viewBox="0 0 432.66 500.01">
  <defs>
    <style>
      .cls-1 {
        stroke: #263238;
        stroke-linecap: round;
        stroke-linejoin: round;
      }

      .cls-1, .cls-2 {
        fill: none;
      }

      .cls-3 {
        clip-path: url(#clippath);
      }

      .cls-2, .cls-4, .cls-5, .cls-6, .cls-7 {
        stroke-width: 0px;
      }

      .cls-4 {
        fill: #263238;
      }

      .cls-5 {
        fill: #455a64;
      }

      .cls-6 {
        fill: #41c7a8;
      }

      .cls-7 {
        fill: #fff;
      }
    </style>
    <clipPath id="clippath">
      <rect class="cls-2" y="0" width="432.66" height="500"/>
    </clipPath>
  </defs>
  <g class="cls-3">
    <g id="Gruppe_482" data-name="Gruppe 482">
      <path id="Pfad_1647" data-name="Pfad 1647" class="cls-7" d="m258.59,219.81l-39.2-143.59c-8.59-36.04-36.72-61.07-72.5-51.49l-3.25,1.08c-32.76,10.85-51.7,45.04-43.52,78.57,7.62,31.19,16.43,65.56,22.03,81.79,11.6,33.6,47.1,27.67,47.1,27.67.08-.02,6.16,20.71,9.01,30.75l-1.32,25.72,26.14-14.88,55.53-35.61Z"/>
      <path id="Pfad_1648" data-name="Pfad 1648" class="cls-1" d="m258.59,219.81l-39.2-143.59c-8.59-36.04-36.72-61.07-72.5-51.49l-3.25,1.08c-32.76,10.85-51.7,45.04-43.52,78.57,7.62,31.19,16.43,65.56,22.03,81.79,11.6,33.6,47.1,27.67,47.1,27.67.08-.02,6.16,20.71,9.01,30.75l-1.32,25.72,26.14-14.88,55.53-35.61Z"/>
      <path id="Pfad_1649" data-name="Pfad 1649" class="cls-4" d="m169.23,213.84c15.57-5.2,29.32-14.76,39.63-27.55,0,0-2.16,28.87-36.84,36.99l-2.79-9.45Z"/>
      <path id="Pfad_1650" data-name="Pfad 1650" class="cls-4" d="m122.75,133.56c.84,2.62,3.61,4.09,6.26,3.32,2.6-.64,4.19-3.27,3.54-5.88,0-.04-.02-.08-.03-.12-.84-2.62-3.61-4.1-6.25-3.33-2.61.64-4.2,3.27-3.56,5.88,0,.04.02.08.03.12"/>
      <path id="Pfad_1651" data-name="Pfad 1651" class="cls-4" d="m112.23,116.9c.81.43,3.56-3.48,8.75-5.19,5.15-1.78,9.84-.37,10.2-1.19.18-.37-.8-1.31-2.86-1.96-2.76-.81-5.71-.75-8.44.18-2.7.89-5.05,2.61-6.7,4.92-1.19,1.75-1.35,3.06-.96,3.25"/>
      <path id="Pfad_1652" data-name="Pfad 1652" class="cls-4" d="m166.24,119.51c.84,2.62,3.62,4.09,6.26,3.32,2.6-.64,4.2-3.26,3.56-5.87,0-.04-.02-.08-.03-.12-.84-2.62-3.61-4.09-6.25-3.33-2.61.64-4.2,3.27-3.56,5.87.01.04.02.08.03.12"/>
      <path id="Pfad_1653" data-name="Pfad 1653" class="cls-4" d="m163.45,101.26c.81.43,3.57-3.48,8.75-5.19,5.15-1.78,9.84-.37,10.2-1.19.18-.37-.8-1.31-2.86-1.96-2.76-.81-5.7-.75-8.42.18-2.7.89-5.05,2.61-6.7,4.92-1.18,1.75-1.35,3.07-.97,3.25"/>
      <path id="Pfad_1654" data-name="Pfad 1654" class="cls-4" d="m158.06,147.27c-3.02.05-6.01.48-8.93,1.27-1.37.3-2.71.45-3.23-.37-.56-1.33-.71-2.8-.42-4.22.18-3.61.38-7.41.58-11.38.68-16.17.7-29.26.06-29.29s-1.73,13.05-2.41,29.21c-.14,3.98-.27,7.76-.39,11.38-.3,1.87.07,3.79,1.04,5.42.7.82,1.74,1.26,2.81,1.22.8-.05,1.58-.19,2.34-.43,2.95-.57,5.82-1.52,8.54-2.81"/>
      <path id="Pfad_1655" data-name="Pfad 1655" class="cls-4" d="m156.4,85.6c1.14,1.09,5.71-1.97,11.79-4.13,6.04-2.28,11.5-2.91,11.67-4.48.06-.74-1.37-1.59-3.88-1.95-6.65-.68-13.25,1.74-17.88,6.56-1.68,1.9-2.23,3.47-1.7,4"/>
      <path id="Pfad_1656" data-name="Pfad 1656" class="cls-4" d="m106.94,101.74c1.46.84,5.31-1.72,10.39-3.39,5.03-1.81,9.67-2.17,10.28-3.72.23-.74-.81-1.71-3.05-2.23-3.04-.58-6.18-.33-9.09.73-2.93.95-5.55,2.67-7.57,5-1.42,1.78-1.63,3.19-.97,3.62"/>
      <path id="Pfad_1657" data-name="Pfad 1657" class="cls-7" d="m224.91,102.12c.49-.44,20.91-14.53,27.82,8.77s-17.92,25.44-18.16,24.78-9.66-33.55-9.66-33.55"/>
      <path id="Pfad_1658" data-name="Pfad 1658" class="cls-1" d="m224.91,102.12c.49-.44,20.91-14.53,27.82,8.77s-17.92,25.44-18.16,24.78-9.66-33.55-9.66-33.55Z"/>
      <path id="Pfad_1659" data-name="Pfad 1659" class="cls-4" d="m239.07,124.73c.08-.11.49.16,1.27.28,1.09.12,2.18-.18,3.05-.84,2.19-1.64,3.11-6.16,1.98-10.39-.53-2.02-1.51-3.89-2.86-5.48-.88-1.35-2.37-2.18-3.98-2.21-1.04.03-1.91.8-2.07,1.83-.12.74.17,1.17.06,1.24-.05.08-.62-.23-.7-1.26-.04-.62.13-1.23.49-1.73.5-.67,1.24-1.13,2.07-1.26,2.06-.19,4.07.7,5.31,2.36,1.59,1.73,2.74,3.82,3.33,6.09,1.24,4.74.14,9.84-2.94,11.82-1.16.74-2.59.92-3.89.49-.9-.36-1.17-.85-1.1-.91"/>
      <path id="Pfad_1660" data-name="Pfad 1660" class="cls-4" d="m175.47,145.8c-.82.18.68,5.56-2.85,10.66-3.53,5.11-9.41,6.13-9.25,6.89.02.36,1.57.69,4.01.07,3.16-.84,5.93-2.77,7.81-5.45,1.8-2.57,2.53-5.75,2.04-8.85-.42-2.3-1.41-3.47-1.76-3.33"/>
      <path id="Pfad_1661" data-name="Pfad 1661" class="cls-4" d="m44.14,87.13c0-1.49.6-2.93,1.64-4,2.36-2.05,5.22-3.43,8.29-4.02,7.37-2.36,14.12-6.37,19.72-11.72-2.65-.44-5.2-1.29-7.58-2.53-5.1-2.49-8.39-7.61-8.55-13.29-.07-1.06.37-2.08,1.17-2.77,1.38-.92,3.14.18,4.55,1.04,3.84,2.91,8.97,3.47,13.36,1.48,3.06-1.12,5.82-2.92,8.08-5.27.07-.13.12-.28.2-.41.84-1.61,1.66-3.16,2.48-4.66h0c6.17-11.32,11.91-19.6,18.75-25.03C116.25,7.99,134.72.44,147.51.02c12.79-.42,26.28,6.02,31.56,17.68,4.97-7.61,14.97-10.54,24.05-9.7l.18-.15c9.98.52,17.95,8.52,23.36,16.93.3.47.57.94.86,1.41,4.49,3.96,9.87,6.79,15.68,8.23,1.02.25,2.21.57,2.61,1.54.24,1.03-.07,2.12-.83,2.87-1.72,2.19-3.9,3.97-6.39,5.21,1.47,1.95,3.1,3.78,4.88,5.45,1.53,1.42,3.36,3.12,3.01,5.19-.43,1.6-1.81,2.76-3.47,2.92-1.62.12-3.24-.1-4.77-.65l5.18,6.33c-3.11,1.53-6.54,2.31-10.01,2.28.65,9.18,3.97,25.54,3.49,32.03-6.15,1.95-7.85,1.73-10.67,3.7-3.63,2.54.04,9.23-5.82,8.76-2.98-.23-10.11-9.14-11.81-11.59-11.35-16.37-19.05-34.99-22.57-54.6-4.94-2.87-10.39-4.77-16.05-5.59l.51.23c-10.51-.47-22.26-.51-29.96,6.67-5.98,5.56-7.92,14.06-11.43,21.44-6.65,13.97-16.14,23.2-30.76,28.25,1.74,10.68,6.36,27.62,8.72,37.37l-13.93-16.77.02.08c-1-.94-1.87-1.9-2.75-2.88l-.29-.29v-.04c-1.38-1.62-2.82-3.18-4.34-4.65-.02.04-.04.07-.07.11-1.92,2.88-5.8,3.65-8.68,1.74-2.33-1.56-3.35-4.47-2.48-7.14.48-1.36,1.16-2.63,2.03-3.78-1.7,3.03-4.87,4.94-8.34,5.04-3.51-.02-6.57-2.4-7.46-5.79-.41-2.32.45-4.69,2.26-6.2-4.13,1.6-8.64,1.93-12.96.95-2.81-.65-5.84-2.2-5.93-5.46"/>
      <path id="Pfad_1662" data-name="Pfad 1662" class="cls-5" d="m169.5,24.81c1.5.59,2.96,1.29,4.35,2.11,3.67,2.45,6.63,5.82,8.61,9.76,1.43,2.68,2.59,5.49,3.46,8.4.95,3.14,1.7,6.57,2.52,10.19.79,3.81,1.82,7.57,3.08,11.25.7,1.95,1.54,3.85,2.53,5.67.92,1.99,2.34,3.72,4.12,5,1.61.99,3.62,1.06,5.29.18,1.59-.81,2.85-2.13,3.6-3.75,1.09-3.1,1.33-6.43.7-9.65l-.69.3c1.8,2.26,3.91,4.25,6.28,5.91,2.26,1.52,5.03,2.1,7.71,1.64,1.24-.24,2.4-.81,3.33-1.67.86-.83,1.45-1.9,1.69-3.06.23-1.08.17-2.19-.18-3.24-.34-.97-1.01-1.79-1.89-2.32l-.27.43c2.72,1.72,5.78,2.85,8.96,3.31.84.12,1.69.19,2.53.21.29.02.58,0,.87-.04-.28-.06-.57-.09-.86-.1-.57-.06-1.41-.14-2.5-.33-3.11-.56-6.08-1.74-8.74-3.47l-.26.43c1.58,1.13,2.28,3.13,1.74,5-.23,1.04-.76,1.99-1.54,2.73-.86.76-1.9,1.27-3.03,1.47-2.51.41-5.08-.16-7.18-1.59-2.29-1.63-4.34-3.58-6.09-5.79l-.82-.94.13,1.25c.6,3.08.37,6.25-.66,9.22-.67,1.44-1.81,2.62-3.22,3.34-1.42.75-3.13.7-4.5-.15-1.65-1.21-2.96-2.83-3.82-4.69-.97-1.79-1.8-3.64-2.49-5.55-1.26-3.65-2.29-7.37-3.1-11.15-.84-3.61-1.62-7.06-2.61-10.22-.91-2.94-2.11-5.79-3.6-8.48-2.06-3.99-5.15-7.36-8.96-9.75-1.39-.86-2.92-1.48-4.52-1.83"/>
      <path id="Pfad_1663" data-name="Pfad 1663" class="cls-5" d="m73.92,89.48c.11.07.22.12.34.15l1.04.37c.56.21,1.14.37,1.72.5.79.21,1.59.36,2.4.47,5.19.71,10.48.11,15.38-1.73,7.3-2.72,13.66-7.49,18.31-13.74,5.57-7.68,9.51-16.4,11.6-25.65,1.25-4.87,2-9.71,3.06-14.28.89-4.41,2.42-8.67,4.52-12.65,1.9-3.59,4.66-6.65,8.04-8.9,1.54-.97,3.23-1.7,5-2.14,1.64-.39,3.33-.56,5.01-.5,5.17.21,10.07,2.35,13.73,6,1.27,1.4,2.37,2.94,3.28,4.59-.02-.12-.07-.24-.13-.35-.13-.27-.28-.6-.47-1-.67-1.25-1.49-2.41-2.44-3.46-1.55-1.63-3.36-3-5.36-4.03-2.66-1.39-5.58-2.19-8.57-2.34-1.74-.07-3.49.08-5.19.47-1.84.45-3.6,1.18-5.22,2.18-3.5,2.29-6.37,5.42-8.35,9.11-2.16,4.04-3.72,8.36-4.65,12.85-1.08,4.61-1.84,9.44-3.08,14.26-2.06,9.15-5.94,17.79-11.41,25.41-4.54,6.17-10.75,10.91-17.9,13.65-4.81,1.86-10,2.54-15.13,1.96-1.87-.29-3.72-.68-5.54-1.17"/>
      <path id="Pfad_1664" data-name="Pfad 1664" class="cls-5" d="m66.35,75.42c.47.23.96.4,1.48.49,1.37.36,2.76.61,4.17.76,2.09.24,4.19.3,6.29.17,2.57-.17,5.12-.58,7.62-1.22,2.49-.68,4.91-1.58,7.23-2.7,1.89-.93,3.69-2.02,5.39-3.26,1.15-.82,2.24-1.73,3.25-2.72.7-.7,1.08-1.11,1.05-1.15-.11-.11-1.7,1.41-4.63,3.39-1.72,1.15-3.52,2.17-5.39,3.05-2.29,1.06-4.67,1.93-7.1,2.6-2.45.62-4.94,1.04-7.46,1.26-2.06.15-4.13.15-6.19,0-3.51-.27-5.66-.81-5.7-.66"/>
      <path id="Pfad_1665" data-name="Pfad 1665" class="cls-6" d="m79.01,291s-3.47-9.81,8.31-23.01c11.77-13.2,85.81-41.07,85.81-41.07,0,0,25.23,24.22,56.3,7.31,24.19-13.16,24.56-31.26,24.56-31.26l94.09,15.75,3.2,71.09-33.71.2-238.56,1Z"/>
      <path id="Pfad_1666" data-name="Pfad 1666" class="cls-7" d="m242.79,411.68l116.05-36.39-37.91-91.83,73.18,1.41s52.81,103.03,32.83,133.11c-18.19,27.38-167.96,32.91-167.96,32.91l-16.2-39.2Z"/>
      <path id="Pfad_1667" data-name="Pfad 1667" class="cls-1" d="m242.79,411.68l116.05-36.39-37.91-91.83,73.18,1.41s52.81,103.03,32.83,133.11c-18.19,27.38-167.96,32.91-167.96,32.91l-16.2-39.2Z"/>
      <path id="Pfad_1668" data-name="Pfad 1668" class="cls-7" d="m242.79,411.68s-66.56,19.32-68.45,20.41-37.6,40.77-39,53c-1.4,12.23,22.85-9.78,22.85-9.78l17.23-20.66s-1.04,16.92,0,22.18,5.07,17.32,9.88,18.75c3.62.88,7.4-.68,9.35-3.85,0,0,4.29,11.88,16.79,4.89,0,0,8.2,3.44,14.62.18,6.42-3.26,12.25-13.66,12.25-13.66.32-3.07-1.91-5.81-4.98-6.13-.43-.04-.86-.04-1.29.02-4.66.47-9.1,2.2-12.84,5.02l-.63-6.76c4.74-5.69,10.26-10.68,16.4-14.81,5.26-3.15,27.05-3.66,33.82-10.54"/>
      <path id="Pfad_1669" data-name="Pfad 1669" class="cls-1" d="m242.79,411.68s-66.56,19.32-68.45,20.41-37.6,40.77-39,53c-1.4,12.23,22.85-9.78,22.85-9.78l17.23-20.66s-1.04,16.92,0,22.18,5.07,17.32,9.88,18.75c3.62.88,7.4-.68,9.35-3.85,0,0,4.29,11.88,16.79,4.89,0,0,8.2,3.44,14.62.18,6.42-3.26,12.25-13.66,12.25-13.66.32-3.07-1.91-5.81-4.98-6.13-.43-.04-.86-.04-1.29.02-4.66.47-9.1,2.2-12.84,5.02l-.63-6.76c4.74-5.69,10.26-10.68,16.4-14.81,5.26-3.15,27.05-3.66,33.82-10.54"/>
      <path id="Pfad_1670" data-name="Pfad 1670" class="cls-4" d="m398.56,393.28c-.2.1-1.38-2.63-4.31-6.31-3.81-4.78-8.78-8.52-14.44-10.86-5.7-2.23-11.93-2.71-17.9-1.38-4.61.95-7.33,2.12-7.41,1.91.55-.43,1.18-.75,1.84-.97,1.74-.74,3.54-1.35,5.38-1.8,6.14-1.63,12.65-1.25,18.56,1.08,5.85,2.4,10.93,6.37,14.66,11.48,1.12,1.53,2.1,3.16,2.91,4.88.35.61.58,1.27.7,1.96"/>
      <path id="Pfad_1671" data-name="Pfad 1671" class="cls-6" d="m304.48,259.55c-1.15-38.77,49.39-56.02,72.04-24.54.13.18.26.36.38.54,21.36,30.42,47.17,102.34,47.17,102.34l-91.43,14.2-22.82-62.42c-3.1-9.76-4.9-19.89-5.34-30.13"/>
      <path id="Pfad_1672" data-name="Pfad 1672" class="cls-7" d="m19.47,286.74c.15.33.28.66.41,1,.54,1.54.87,3.14.97,4.77-.02.77.01,1.54.11,2.3.17.47.39.92.63,1.35.94,3.07,1.23,6.3.85,9.49-.41,3.49.2,7.02,1.76,10.17,1.82,2.98,6.06,4.74,8.93,2.76-.28,2.29,1.19,4.42,3.42,4.99,2.22.46,4.52-.25,6.09-1.89,1.53-1.63,2.58-3.65,3.05-5.83.09,2.71,2.31,4.87,5.02,4.88,2.66-.13,5.06-1.6,6.38-3.91,1.27-2.29,2.02-4.83,2.2-7.44.34-3.35.86-6.68,1.58-9.97,0,0,3.28.52,4.77.67l.44.04c1.14-1.76,2.18-3.57,3.14-5.44,2.09-4.29,3.68-7.03,5.28-10.92,1.19-2.92,1.97-5.84.16-7.73-4.35-4.58-12.85,4.73-12.85,4.73-1.2-3.24-11.09-3.77-13.01.55-.78-2.38-.49-3.75-2.41-5.35-1.92-1.67-4.52-2.33-7-1.76-2.5.66-4.24,2.91-4.25,5.49-2.15-3.33-6.13-4.99-10.01-4.18-2.27.55-4.26,1.93-5.58,3.85-.66.95-1.14,2.01-1.43,3.13-.15.41-.23.85-.23,1.29.03.2.1.39.2.57.44.83,1.02,1.56,1.41,2.43"/>
      <path id="Pfad_1673" data-name="Pfad 1673" class="cls-1" d="m19.47,286.74c.15.33.28.66.41,1,.54,1.54.87,3.14.97,4.77-.02.77.01,1.54.11,2.3.17.47.39.92.63,1.35.94,3.07,1.23,6.3.85,9.49-.41,3.49.2,7.02,1.76,10.17,1.82,2.98,6.06,4.74,8.93,2.76-.28,2.29,1.19,4.42,3.42,4.99,2.22.46,4.52-.25,6.09-1.89,1.53-1.63,2.58-3.65,3.05-5.83.09,2.71,2.31,4.87,5.02,4.88,2.66-.13,5.06-1.6,6.38-3.91,1.27-2.29,2.02-4.83,2.2-7.44.34-3.35.86-6.68,1.58-9.97,0,0,3.28.52,4.77.67l.44.04c1.14-1.76,2.18-3.57,3.14-5.44,2.09-4.29,3.68-7.03,5.28-10.92,1.19-2.92,1.97-5.84.16-7.73-4.35-4.58-12.85,4.73-12.85,4.73-1.2-3.24-11.09-3.77-13.01.55-.78-2.38-.49-3.75-2.41-5.35-1.92-1.67-4.52-2.33-7-1.76-2.5.66-4.24,2.91-4.25,5.49-2.15-3.33-6.13-4.99-10.01-4.18-2.27.55-4.26,1.93-5.58,3.85-.66.95-1.14,2.01-1.43,3.13-.15.41-.23.85-.23,1.29.03.2.1.39.2.57.44.83,1.01,1.56,1.4,2.43Z"/>
      <path id="Pfad_1674" data-name="Pfad 1674" class="cls-7" d="m9.03,280.43c-2.17-.24-4.34.48-5.93,1.98-1.57,2.44-2.23,5.35-1.85,8.22,2.98.56,4.52.67,7.5,1.24.63.11,1.16-.04,1.68.33,1.38.97,1.15,4.27,1.71,5.86,1.21,2.79,4.39,4.15,7.25,3.1,2.75-1.19,4.57-3.86,4.65-6.86.02-2.96-1.06-5.82-3.03-8.02-3-3.53-7.34-5.65-11.97-5.84"/>
      <path id="Pfad_1675" data-name="Pfad 1675" class="cls-1" d="m9.03,280.43c-2.17-.24-4.34.48-5.93,1.98-1.57,2.44-2.23,5.35-1.85,8.22,2.98.56,4.52.67,7.5,1.24.63.11,1.16-.04,1.68.33,1.38.97,1.15,4.27,1.71,5.86,1.21,2.79,4.39,4.15,7.25,3.1,2.75-1.19,4.57-3.86,4.65-6.86.02-2.96-1.06-5.82-3.03-8.02-3-3.53-7.34-5.65-11.96-5.84Z"/>
      <path id="Pfad_1676" data-name="Pfad 1676" class="cls-4" d="m35.14,278.79c.56.03.56,8.96,0,19.94-.56,10.98-1.47,19.87-2.03,19.83s-.56-8.96,0-19.94,1.47-19.86,2.03-19.83"/>
      <path id="Pfad_1677" data-name="Pfad 1677" class="cls-4" d="m48.85,280.68c.53-.02,1.26,8.1.39,18.1-.88,9.99-2.95,17.88-3.47,17.77-.57-.11.62-8.08,1.46-17.94s1.05-17.91,1.64-17.92"/>
      <path id="Pfad_1678" data-name="Pfad 1678" class="cls-4" d="m62.25,282.51c.57,0,.81,6.76-.23,14.95s-2.3,14.7-2.83,14.65c-.59-.06-.22-6.76.82-14.9s1.7-14.71,2.25-14.71"/>
      <path id="Pfad_1679" data-name="Pfad 1679" class="cls-4" d="m348.91,221.38c-3.34,1.2-6.62,2.57-9.82,4.11-15.53,7.94-25.68,23.53-26.64,40.94-.11,3.55-.03,7.1.22,10.64-.34-.91-.55-1.85-.65-2.81-.4-2.6-.55-5.24-.45-7.87.5-17.88,10.98-33.98,27.13-41.68,2.37-1.15,4.84-2.08,7.38-2.77.92-.31,1.87-.49,2.84-.55"/>
      <path id="Pfad_1680" data-name="Pfad 1680" class="cls-7" d="m193.69,462.03c-1.33,9.88-1.01,19.91.97,29.69"/>
      <path id="Pfad_1681" data-name="Pfad 1681" class="cls-1" d="m193.69,462.03c-1.33,9.88-1.01,19.91.97,29.69"/>
      <path id="Pfad_1682" data-name="Pfad 1682" class="cls-7" d="m211.44,496.6s-6.57-20.6.06-30.03"/>
      <path id="Pfad_1683" data-name="Pfad 1683" class="cls-1" d="m211.44,496.6s-6.57-20.6.06-30.03"/>
    </g>
  </g>
</svg>